# MagicaVoxel @ Ephtracy

# material
mtllib bibelot_3.mtl
usemtl palette

# normals
vn -1 0 0
vn 1 0 0
vn 0 0 1
vn 0 0 -1
vn 0 -1 0
vn 0 1 0

# texcoords
vt 0.626953 0.5
vt 0.751953 0.5
vt 0.818359 0.5
vt 0.822266 0.5
vt 0.830078 0.5

# verts
v -7 5 5
v -7 5 4
v -7 11 5
v -7 11 4
v -6 3 5
v -6 3 4
v -6 5 5
v -6 5 4
v -6 6 6
v -6 6 5
v -6 6 4
v -6 6 3
v -6 10 6
v -6 10 5
v -6 10 4
v -6 10 3
v -6 11 5
v -6 11 4
v -6 13 5
v -6 13 4
v -5 2 5
v -5 2 4
v -5 3 5
v -5 3 4
v -5 4 6
v -5 4 5
v -5 4 4
v -5 4 3
v -5 6 6
v -5 6 5
v -5 6 4
v -5 6 3
v -5 10 6
v -5 10 5
v -5 10 4
v -5 10 3
v -5 12 6
v -5 12 5
v -5 12 4
v -5 12 3
v -5 13 5
v -5 13 4
v -5 14 5
v -5 14 4
v -4 3 6
v -4 3 5
v -4 3 4
v -4 3 3
v -4 4 6
v -4 4 5
v -4 4 4
v -4 4 3
v -4 12 6
v -4 12 5
v -4 12 4
v -4 12 3
v -4 13 6
v -4 13 5
v -4 13 4
v -4 13 3
v -3 1 5
v -3 1 4
v -3 2 5
v -3 2 4
v -3 14 5
v -3 14 4
v -3 15 5
v -3 15 4
v -2 2 6
v -2 2 5
v -2 2 4
v -2 2 3
v -2 3 6
v -2 3 5
v -2 3 4
v -2 3 3
v -2 13 6
v -2 13 5
v -2 13 4
v -2 13 3
v -2 14 6
v -2 14 5
v -2 14 4
v -2 14 3
v -1 4 6
v -1 4 5
v -1 4 4
v -1 4 3
v -1 5 6
v -1 5 5
v -1 5 4
v -1 5 3
v -1 6 6
v -1 6 5
v -1 6 4
v -1 6 3
v -1 12 6
v -1 12 5
v -1 12 4
v -1 12 3
v 3 4 6
v 3 4 5
v 3 4 4
v 3 4 3
v 3 5 6
v 3 5 5
v 3 5 4
v 3 5 3
v 3 11 6
v 3 11 5
v 3 11 4
v 3 11 3
v 3 12 6
v 3 12 5
v 3 12 4
v 3 12 3
v 4 5 6
v 4 5 5
v 4 5 4
v 4 5 3
v 4 7 6
v 4 7 5
v 4 7 4
v 4 7 3
v 4 9 6
v 4 9 5
v 4 9 4
v 4 9 3
v 4 11 6
v 4 11 5
v 4 11 4
v 4 11 3
v 5 7 6
v 5 7 5
v 5 7 4
v 5 7 3
v 5 9 6
v 5 9 5
v 5 9 4
v 5 9 3
v -5 7 6
v -5 7 5
v -5 7 4
v -5 7 3
v -5 9 6
v -5 9 5
v -5 9 4
v -5 9 3
v -4 5 6
v -4 5 5
v -4 5 4
v -4 5 3
v -4 7 6
v -4 7 5
v -4 7 4
v -4 7 3
v -4 9 6
v -4 9 5
v -4 9 4
v -4 9 3
v -4 11 6
v -4 11 5
v -4 11 4
v -4 11 3
v -3 4 6
v -3 4 5
v -3 4 4
v -3 4 3
v -3 5 6
v -3 5 5
v -3 5 4
v -3 5 3
v -3 11 6
v -3 11 5
v -3 11 4
v -3 11 3
v -3 12 6
v -3 12 5
v -3 12 4
v -3 12 3
v 1 4 6
v 1 4 5
v 1 4 4
v 1 4 3
v 1 5 6
v 1 5 5
v 1 5 4
v 1 5 3
v 1 6 6
v 1 6 5
v 1 6 4
v 1 6 3
v 1 12 6
v 1 12 5
v 1 12 4
v 1 12 3
v 2 2 6
v 2 2 5
v 2 2 4
v 2 2 3
v 2 3 6
v 2 3 5
v 2 3 4
v 2 3 3
v 2 13 6
v 2 13 5
v 2 13 4
v 2 13 3
v 2 14 6
v 2 14 5
v 2 14 4
v 2 14 3
v 3 1 5
v 3 1 4
v 3 2 5
v 3 2 4
v 3 14 5
v 3 14 4
v 3 15 5
v 3 15 4
v 4 3 6
v 4 3 5
v 4 3 4
v 4 3 3
v 4 4 6
v 4 4 5
v 4 4 4
v 4 4 3
v 4 12 6
v 4 12 5
v 4 12 4
v 4 12 3
v 4 13 6
v 4 13 5
v 4 13 4
v 4 13 3
v 5 2 5
v 5 2 4
v 5 3 5
v 5 3 4
v 5 4 6
v 5 4 5
v 5 4 4
v 5 4 3
v 5 6 6
v 5 6 5
v 5 6 4
v 5 6 3
v 5 10 6
v 5 10 5
v 5 10 4
v 5 10 3
v 5 12 6
v 5 12 5
v 5 12 4
v 5 12 3
v 5 13 5
v 5 13 4
v 5 14 5
v 5 14 4
v 6 3 5
v 6 3 4
v 6 5 5
v 6 5 4
v 6 6 6
v 6 6 5
v 6 6 4
v 6 6 3
v 6 10 6
v 6 10 5
v 6 10 4
v 6 10 3
v 6 11 5
v 6 11 4
v 6 13 5
v 6 13 4
v 7 5 5
v 7 5 4
v 7 11 5
v 7 11 4
v -6 6 6
v -6 10 6
v -5 4 6
v -5 6 6
v -5 7 6
v -5 9 6
v -5 10 6
v -5 12 6
v -4 3 6
v -4 4 6
v -4 5 6
v -4 7 6
v -4 9 6
v -4 11 6
v -4 12 6
v -4 13 6
v -3 4 6
v -3 5 6
v -3 11 6
v -3 12 6
v -2 2 6
v -2 3 6
v -2 13 6
v -2 14 6
v -1 3 6
v -1 4 6
v -1 5 6
v -1 6 6
v -1 12 6
v -1 13 6
v 1 3 6
v 1 4 6
v 1 5 6
v 1 6 6
v 1 12 6
v 1 13 6
v 2 2 6
v 2 3 6
v 2 13 6
v 2 14 6
v 3 4 6
v 3 5 6
v 3 11 6
v 3 12 6
v 4 3 6
v 4 4 6
v 4 5 6
v 4 7 6
v 4 9 6
v 4 11 6
v 4 12 6
v 4 13 6
v 5 4 6
v 5 6 6
v 5 7 6
v 5 9 6
v 5 10 6
v 5 12 6
v 6 6 6
v 6 10 6
v -7 5 5
v -7 11 5
v -6 3 5
v -6 5 5
v -6 6 5
v -6 10 5
v -6 11 5
v -6 13 5
v -5 2 5
v -5 3 5
v -5 4 5
v -5 6 5
v -5 7 5
v -5 9 5
v -5 10 5
v -5 12 5
v -5 13 5
v -5 14 5
v -4 3 5
v -4 4 5
v -4 5 5
v -4 7 5
v -4 9 5
v -4 11 5
v -4 12 5
v -4 13 5
v -3 1 5
v -3 2 5
v -3 4 5
v -3 5 5
v -3 11 5
v -3 12 5
v -3 14 5
v -3 15 5
v -2 2 5
v -2 3 5
v -2 13 5
v -2 14 5
v -1 4 5
v -1 5 5
v -1 6 5
v -1 12 5
v 1 4 5
v 1 5 5
v 1 6 5
v 1 12 5
v 2 2 5
v 2 3 5
v 2 13 5
v 2 14 5
v 3 1 5
v 3 2 5
v 3 4 5
v 3 5 5
v 3 11 5
v 3 12 5
v 3 14 5
v 3 15 5
v 4 3 5
v 4 4 5
v 4 5 5
v 4 7 5
v 4 9 5
v 4 11 5
v 4 12 5
v 4 13 5
v 5 2 5
v 5 3 5
v 5 4 5
v 5 6 5
v 5 7 5
v 5 9 5
v 5 10 5
v 5 12 5
v 5 13 5
v 5 14 5
v 6 3 5
v 6 5 5
v 6 6 5
v 6 10 5
v 6 11 5
v 6 13 5
v 7 5 5
v 7 11 5
v -7 5 4
v -7 11 4
v -6 3 4
v -6 5 4
v -6 6 4
v -6 10 4
v -6 11 4
v -6 13 4
v -5 2 4
v -5 3 4
v -5 4 4
v -5 6 4
v -5 7 4
v -5 9 4
v -5 10 4
v -5 12 4
v -5 13 4
v -5 14 4
v -4 3 4
v -4 4 4
v -4 5 4
v -4 7 4
v -4 9 4
v -4 11 4
v -4 12 4
v -4 13 4
v -3 1 4
v -3 2 4
v -3 4 4
v -3 5 4
v -3 11 4
v -3 12 4
v -3 14 4
v -3 15 4
v -2 2 4
v -2 3 4
v -2 13 4
v -2 14 4
v -1 4 4
v -1 5 4
v -1 6 4
v -1 12 4
v 1 4 4
v 1 5 4
v 1 6 4
v 1 12 4
v 2 2 4
v 2 3 4
v 2 13 4
v 2 14 4
v 3 1 4
v 3 2 4
v 3 4 4
v 3 5 4
v 3 11 4
v 3 12 4
v 3 14 4
v 3 15 4
v 4 3 4
v 4 4 4
v 4 5 4
v 4 7 4
v 4 9 4
v 4 11 4
v 4 12 4
v 4 13 4
v 5 2 4
v 5 3 4
v 5 4 4
v 5 6 4
v 5 7 4
v 5 9 4
v 5 10 4
v 5 12 4
v 5 13 4
v 5 14 4
v 6 3 4
v 6 5 4
v 6 6 4
v 6 10 4
v 6 11 4
v 6 13 4
v 7 5 4
v 7 11 4
v -6 6 3
v -6 10 3
v -5 4 3
v -5 6 3
v -5 7 3
v -5 9 3
v -5 10 3
v -5 12 3
v -4 3 3
v -4 4 3
v -4 5 3
v -4 7 3
v -4 9 3
v -4 11 3
v -4 12 3
v -4 13 3
v -3 4 3
v -3 5 3
v -3 11 3
v -3 12 3
v -2 2 3
v -2 3 3
v -2 13 3
v -2 14 3
v -1 3 3
v -1 4 3
v -1 5 3
v -1 6 3
v -1 12 3
v -1 13 3
v 1 3 3
v 1 4 3
v 1 5 3
v 1 6 3
v 1 12 3
v 1 13 3
v 2 2 3
v 2 3 3
v 2 13 3
v 2 14 3
v 3 4 3
v 3 5 3
v 3 11 3
v 3 12 3
v 4 3 3
v 4 4 3
v 4 5 3
v 4 7 3
v 4 9 3
v 4 11 3
v 4 12 3
v 4 13 3
v 5 4 3
v 5 6 3
v 5 7 3
v 5 9 3
v 5 10 3
v 5 12 3
v 6 6 3
v 6 10 3
v -3 1 5
v 3 1 5
v -3 1 4
v 3 1 4
v -2 2 6
v 2 2 6
v -5 2 5
v -3 2 5
v -2 2 5
v 2 2 5
v 3 2 5
v 5 2 5
v -5 2 4
v -3 2 4
v -2 2 4
v 2 2 4
v 3 2 4
v 5 2 4
v -2 2 3
v 2 2 3
v -4 3 6
v -2 3 6
v 2 3 6
v 4 3 6
v -6 3 5
v -5 3 5
v -4 3 5
v -2 3 5
v 2 3 5
v 4 3 5
v 5 3 5
v 6 3 5
v -6 3 4
v -5 3 4
v -4 3 4
v -2 3 4
v 2 3 4
v 4 3 4
v 5 3 4
v 6 3 4
v -4 3 3
v -2 3 3
v 2 3 3
v 4 3 3
v -5 4 6
v -4 4 6
v 4 4 6
v 5 4 6
v -5 4 5
v -4 4 5
v 4 4 5
v 5 4 5
v -5 4 4
v -4 4 4
v 4 4 4
v 5 4 4
v -5 4 3
v -4 4 3
v 4 4 3
v 5 4 3
v -7 5 5
v -6 5 5
v 6 5 5
v 7 5 5
v -7 5 4
v -6 5 4
v 6 5 4
v 7 5 4
v -6 6 6
v -5 6 6
v 5 6 6
v 6 6 6
v -6 6 5
v -5 6 5
v 5 6 5
v 6 6 5
v -6 6 4
v -5 6 4
v 5 6 4
v 6 6 4
v -6 6 3
v -5 6 3
v 5 6 3
v 6 6 3
v -5 9 6
v -4 9 6
v 4 9 6
v 5 9 6
v -5 9 5
v -4 9 5
v 4 9 5
v 5 9 5
v -5 9 4
v -4 9 4
v 4 9 4
v 5 9 4
v -5 9 3
v -4 9 3
v 4 9 3
v 5 9 3
v -4 11 6
v -3 11 6
v 3 11 6
v 4 11 6
v -4 11 5
v -3 11 5
v 3 11 5
v 4 11 5
v -4 11 4
v -3 11 4
v 3 11 4
v 4 11 4
v -4 11 3
v -3 11 3
v 3 11 3
v 4 11 3
v -3 12 6
v -1 12 6
v 1 12 6
v 3 12 6
v -3 12 5
v -1 12 5
v 1 12 5
v 3 12 5
v -3 12 4
v -1 12 4
v 1 12 4
v 3 12 4
v -3 12 3
v -1 12 3
v 1 12 3
v 3 12 3
v -3 4 6
v -1 4 6
v 1 4 6
v 3 4 6
v -3 4 5
v -1 4 5
v 1 4 5
v 3 4 5
v -3 4 4
v -1 4 4
v 1 4 4
v 3 4 4
v -3 4 3
v -1 4 3
v 1 4 3
v 3 4 3
v -4 5 6
v -3 5 6
v 3 5 6
v 4 5 6
v -4 5 5
v -3 5 5
v 3 5 5
v 4 5 5
v -4 5 4
v -3 5 4
v 3 5 4
v 4 5 4
v -4 5 3
v -3 5 3
v 3 5 3
v 4 5 3
v -5 7 6
v -4 7 6
v 4 7 6
v 5 7 6
v -5 7 5
v -4 7 5
v 4 7 5
v 5 7 5
v -5 7 4
v -4 7 4
v 4 7 4
v 5 7 4
v -5 7 3
v -4 7 3
v 4 7 3
v 5 7 3
v -6 10 6
v -5 10 6
v 5 10 6
v 6 10 6
v -6 10 5
v -5 10 5
v 5 10 5
v 6 10 5
v -6 10 4
v -5 10 4
v 5 10 4
v 6 10 4
v -6 10 3
v -5 10 3
v 5 10 3
v 6 10 3
v -7 11 5
v -6 11 5
v 6 11 5
v 7 11 5
v -7 11 4
v -6 11 4
v 6 11 4
v 7 11 4
v -5 12 6
v -4 12 6
v 4 12 6
v 5 12 6
v -5 12 5
v -4 12 5
v 4 12 5
v 5 12 5
v -5 12 4
v -4 12 4
v 4 12 4
v 5 12 4
v -5 12 3
v -4 12 3
v 4 12 3
v 5 12 3
v -4 13 6
v -2 13 6
v 2 13 6
v 4 13 6
v -6 13 5
v -5 13 5
v -4 13 5
v -2 13 5
v 2 13 5
v 4 13 5
v 5 13 5
v 6 13 5
v -6 13 4
v -5 13 4
v -4 13 4
v -2 13 4
v 2 13 4
v 4 13 4
v 5 13 4
v 6 13 4
v -4 13 3
v -2 13 3
v 2 13 3
v 4 13 3
v -2 14 6
v 2 14 6
v -5 14 5
v -3 14 5
v -2 14 5
v 2 14 5
v 3 14 5
v 5 14 5
v -5 14 4
v -3 14 4
v -2 14 4
v 2 14 4
v 3 14 4
v 5 14 4
v -2 14 3
v 2 14 3
v -3 15 5
v 3 15 5
v -3 15 4
v 3 15 4

# faces
f 3/5/1 2/5/1 1/5/1
f 4/5/1 2/5/1 3/5/1
f 7/5/1 6/5/1 5/5/1
f 8/5/1 6/5/1 7/5/1
f 13/4/1 10/4/1 9/4/1
f 14/4/1 10/4/1 13/4/1
f 15/4/1 12/4/1 11/4/1
f 16/4/1 12/4/1 15/4/1
f 19/5/1 18/5/1 17/5/1
f 20/5/1 18/5/1 19/5/1
f 23/5/1 22/5/1 21/5/1
f 24/5/1 22/5/1 23/5/1
f 29/4/1 26/4/1 25/4/1
f 30/4/1 26/4/1 29/4/1
f 31/4/1 28/4/1 27/4/1
f 32/4/1 28/4/1 31/4/1
f 37/4/1 34/4/1 33/4/1
f 38/4/1 34/4/1 37/4/1
f 39/4/1 36/4/1 35/4/1
f 40/4/1 36/4/1 39/4/1
f 43/5/1 42/5/1 41/5/1
f 44/5/1 42/5/1 43/5/1
f 49/4/1 46/4/1 45/4/1
f 50/4/1 46/4/1 49/4/1
f 51/4/1 48/4/1 47/4/1
f 52/4/1 48/4/1 51/4/1
f 57/4/1 54/4/1 53/4/1
f 58/4/1 54/4/1 57/4/1
f 59/4/1 56/4/1 55/4/1
f 60/4/1 56/4/1 59/4/1
f 63/5/1 62/5/1 61/5/1
f 64/5/1 62/5/1 63/5/1
f 67/5/1 66/5/1 65/5/1
f 68/5/1 66/5/1 67/5/1
f 73/4/1 70/4/1 69/4/1
f 74/4/1 70/4/1 73/4/1
f 75/4/1 72/4/1 71/4/1
f 76/4/1 72/4/1 75/4/1
f 81/4/1 78/4/1 77/4/1
f 82/4/1 78/4/1 81/4/1
f 83/4/1 80/4/1 79/4/1
f 84/4/1 80/4/1 83/4/1
f 89/2/1 86/2/1 85/2/1
f 90/2/1 86/2/1 89/2/1
f 91/2/1 88/2/1 87/2/1
f 92/2/1 88/2/1 91/2/1
f 93/1/1 90/1/1 89/1/1
f 94/1/1 90/1/1 93/1/1
f 95/1/1 92/1/1 91/1/1
f 96/1/1 92/1/1 95/1/1
f 97/2/1 94/2/1 93/2/1
f 98/2/1 94/2/1 97/2/1
f 99/2/1 96/2/1 95/2/1
f 100/2/1 96/2/1 99/2/1
f 105/4/1 102/4/1 101/4/1
f 106/4/1 102/4/1 105/4/1
f 107/4/1 104/4/1 103/4/1
f 108/4/1 104/4/1 107/4/1
f 113/4/1 110/4/1 109/4/1
f 114/4/1 110/4/1 113/4/1
f 115/4/1 112/4/1 111/4/1
f 116/4/1 112/4/1 115/4/1
f 121/4/1 118/4/1 117/4/1
f 122/4/1 118/4/1 121/4/1
f 123/4/1 120/4/1 119/4/1
f 124/4/1 120/4/1 123/4/1
f 129/4/1 126/4/1 125/4/1
f 130/4/1 126/4/1 129/4/1
f 131/4/1 128/4/1 127/4/1
f 132/4/1 128/4/1 131/4/1
f 137/4/1 134/4/1 133/4/1
f 138/4/1 134/4/1 137/4/1
f 139/4/1 136/4/1 135/4/1
f 140/4/1 136/4/1 139/4/1
f 141/4/2 142/4/2 145/4/2
f 145/4/2 142/4/2 146/4/2
f 143/4/2 144/4/2 147/4/2
f 147/4/2 144/4/2 148/4/2
f 149/4/2 150/4/2 153/4/2
f 153/4/2 150/4/2 154/4/2
f 151/4/2 152/4/2 155/4/2
f 155/4/2 152/4/2 156/4/2
f 157/4/2 158/4/2 161/4/2
f 161/4/2 158/4/2 162/4/2
f 159/4/2 160/4/2 163/4/2
f 163/4/2 160/4/2 164/4/2
f 165/4/2 166/4/2 169/4/2
f 169/4/2 166/4/2 170/4/2
f 167/4/2 168/4/2 171/4/2
f 171/4/2 168/4/2 172/4/2
f 173/4/2 174/4/2 177/4/2
f 177/4/2 174/4/2 178/4/2
f 175/4/2 176/4/2 179/4/2
f 179/4/2 176/4/2 180/4/2
f 181/2/2 182/2/2 185/2/2
f 185/2/2 182/2/2 186/2/2
f 183/2/2 184/2/2 187/2/2
f 187/2/2 184/2/2 188/2/2
f 185/1/2 186/1/2 189/1/2
f 189/1/2 186/1/2 190/1/2
f 187/1/2 188/1/2 191/1/2
f 191/1/2 188/1/2 192/1/2
f 189/2/2 190/2/2 193/2/2
f 193/2/2 190/2/2 194/2/2
f 191/2/2 192/2/2 195/2/2
f 195/2/2 192/2/2 196/2/2
f 197/4/2 198/4/2 201/4/2
f 201/4/2 198/4/2 202/4/2
f 199/4/2 200/4/2 203/4/2
f 203/4/2 200/4/2 204/4/2
f 205/4/2 206/4/2 209/4/2
f 209/4/2 206/4/2 210/4/2
f 207/4/2 208/4/2 211/4/2
f 211/4/2 208/4/2 212/4/2
f 213/5/2 214/5/2 215/5/2
f 215/5/2 214/5/2 216/5/2
f 217/5/2 218/5/2 219/5/2
f 219/5/2 218/5/2 220/5/2
f 221/4/2 222/4/2 225/4/2
f 225/4/2 222/4/2 226/4/2
f 223/4/2 224/4/2 227/4/2
f 227/4/2 224/4/2 228/4/2
f 229/4/2 230/4/2 233/4/2
f 233/4/2 230/4/2 234/4/2
f 231/4/2 232/4/2 235/4/2
f 235/4/2 232/4/2 236/4/2
f 237/5/2 238/5/2 239/5/2
f 239/5/2 238/5/2 240/5/2
f 241/4/2 242/4/2 245/4/2
f 245/4/2 242/4/2 246/4/2
f 243/4/2 244/4/2 247/4/2
f 247/4/2 244/4/2 248/4/2
f 249/4/2 250/4/2 253/4/2
f 253/4/2 250/4/2 254/4/2
f 251/4/2 252/4/2 255/4/2
f 255/4/2 252/4/2 256/4/2
f 257/5/2 258/5/2 259/5/2
f 259/5/2 258/5/2 260/5/2
f 261/5/2 262/5/2 263/5/2
f 263/5/2 262/5/2 264/5/2
f 265/4/2 266/4/2 269/4/2
f 269/4/2 266/4/2 270/4/2
f 267/4/2 268/4/2 271/4/2
f 271/4/2 268/4/2 272/4/2
f 273/5/2 274/5/2 275/5/2
f 275/5/2 274/5/2 276/5/2
f 277/5/2 278/5/2 279/5/2
f 279/5/2 278/5/2 280/5/2
f 284/4/3 282/4/3 281/4/3
f 285/4/3 282/4/3 284/4/3
f 286/4/3 282/4/3 285/4/3
f 287/4/3 282/4/3 286/4/3
f 290/4/3 284/4/3 283/4/3
f 290/4/3 285/4/3 284/4/3
f 291/4/3 285/4/3 290/4/3
f 292/4/3 285/4/3 291/4/3
f 293/4/3 287/4/3 286/4/3
f 293/4/3 288/4/3 287/4/3
f 294/4/3 288/4/3 293/4/3
f 295/4/3 288/4/3 294/4/3
f 297/4/3 291/4/3 290/4/3
f 297/4/3 290/4/3 289/4/3
f 298/4/3 291/4/3 297/4/3
f 299/4/3 296/4/3 295/4/3
f 299/4/3 295/4/3 294/4/3
f 300/4/3 296/4/3 299/4/3
f 302/4/3 297/4/3 289/4/3
f 303/4/3 296/4/3 300/4/3
f 305/4/3 302/4/3 301/4/3
f 305/4/3 297/4/3 302/4/3
f 306/4/3 297/4/3 305/4/3
f 309/4/3 304/4/3 303/4/3
f 309/4/3 303/4/3 300/4/3
f 310/4/3 304/4/3 309/4/3
f 311/2/3 307/2/3 306/2/3
f 311/4/3 305/4/3 301/4/3
f 311/2/3 306/2/3 305/2/3
f 312/2/3 307/2/3 311/2/3
f 313/1/3 308/1/3 307/1/3
f 313/2/3 307/2/3 312/2/3
f 314/2/3 310/2/3 309/2/3
f 314/1/3 308/1/3 313/1/3
f 314/2/3 309/2/3 308/2/3
f 315/2/3 310/2/3 314/2/3
f 316/4/3 304/4/3 310/4/3
f 316/2/3 310/2/3 315/2/3
f 317/4/3 312/4/3 311/4/3
f 317/4/3 311/4/3 301/4/3
f 318/4/3 312/4/3 317/4/3
f 319/4/3 304/4/3 316/4/3
f 319/4/3 316/4/3 315/4/3
f 320/4/3 304/4/3 319/4/3
f 321/4/3 312/4/3 318/4/3
f 324/4/3 319/4/3 315/4/3
f 325/4/3 322/4/3 321/4/3
f 325/4/3 321/4/3 318/4/3
f 326/4/3 322/4/3 325/4/3
f 327/4/3 322/4/3 326/4/3
f 330/4/3 324/4/3 323/4/3
f 331/4/3 319/4/3 324/4/3
f 331/4/3 324/4/3 330/4/3
f 332/4/3 319/4/3 331/4/3
f 333/4/3 328/4/3 327/4/3
f 333/4/3 327/4/3 326/4/3
f 334/4/3 328/4/3 333/4/3
f 335/4/3 328/4/3 334/4/3
f 336/4/3 330/4/3 329/4/3
f 336/4/3 331/4/3 330/4/3
f 337/4/3 331/4/3 336/4/3
f 338/4/3 331/4/3 337/4/3
f 339/4/3 335/4/3 334/4/3
f 339/4/3 337/4/3 336/4/3
f 339/4/3 336/4/3 335/4/3
f 340/4/3 337/4/3 339/4/3
f 344/5/3 342/5/3 341/5/3
f 345/5/3 342/5/3 344/5/3
f 346/5/3 342/5/3 345/5/3
f 347/5/3 342/5/3 346/5/3
f 350/5/3 344/5/3 343/5/3
f 350/5/3 345/5/3 344/5/3
f 351/5/3 345/5/3 350/5/3
f 352/5/3 345/5/3 351/5/3
f 355/5/3 347/5/3 346/5/3
f 355/5/3 348/5/3 347/5/3
f 356/5/3 348/5/3 355/5/3
f 357/5/3 348/5/3 356/5/3
f 359/5/3 350/5/3 349/5/3
f 359/5/3 351/5/3 350/5/3
f 360/5/3 351/5/3 359/5/3
f 362/3/3 354/3/3 353/3/3
f 363/3/3 354/3/3 362/3/3
f 365/5/3 358/5/3 357/5/3
f 365/5/3 357/5/3 356/5/3
f 366/5/3 358/5/3 365/5/3
f 368/5/3 359/5/3 349/5/3
f 370/3/3 364/3/3 363/3/3
f 370/3/3 363/3/3 362/3/3
f 370/3/3 362/3/3 361/3/3
f 371/3/3 364/3/3 370/3/3
f 373/5/3 358/5/3 366/5/3
f 375/5/3 368/5/3 367/5/3
f 375/5/3 359/5/3 368/5/3
f 376/5/3 359/5/3 375/5/3
f 377/5/3 374/5/3 373/5/3
f 377/5/3 373/5/3 366/5/3
f 378/5/3 374/5/3 377/5/3
f 379/3/3 372/3/3 371/3/3
f 379/3/3 370/3/3 369/3/3
f 379/3/3 371/3/3 370/3/3
f 380/3/3 372/3/3 379/3/3
f 381/3/3 372/3/3 380/3/3
f 382/3/3 372/3/3 381/3/3
f 387/5/3 375/5/3 367/5/3
f 390/5/3 374/5/3 378/5/3
f 391/5/3 387/5/3 367/5/3
f 391/5/3 388/5/3 387/5/3
f 392/5/3 388/5/3 391/5/3
f 393/3/3 386/3/3 385/3/3
f 393/3/3 384/3/3 383/3/3
f 393/3/3 385/3/3 384/3/3
f 394/3/3 386/3/3 393/3/3
f 395/3/3 386/3/3 394/3/3
f 396/3/3 386/3/3 395/3/3
f 397/5/3 390/5/3 389/5/3
f 397/5/3 374/5/3 390/5/3
f 398/5/3 374/5/3 397/5/3
f 399/5/3 388/5/3 392/5/3
f 401/3/3 395/3/3 394/3/3
f 402/3/3 395/3/3 401/3/3
f 403/3/3 395/3/3 402/3/3
f 404/3/3 395/3/3 403/3/3
f 406/5/3 397/5/3 389/5/3
f 407/5/3 400/5/3 399/5/3
f 407/5/3 399/5/3 392/5/3
f 408/5/3 400/5/3 407/5/3
f 409/5/3 400/5/3 408/5/3
f 411/3/3 403/3/3 402/3/3
f 412/3/3 403/3/3 411/3/3
f 414/5/3 406/5/3 405/5/3
f 415/5/3 397/5/3 406/5/3
f 415/5/3 406/5/3 414/5/3
f 416/5/3 397/5/3 415/5/3
f 417/5/3 410/5/3 409/5/3
f 417/5/3 409/5/3 408/5/3
f 418/5/3 410/5/3 417/5/3
f 419/5/3 410/5/3 418/5/3
f 420/5/3 414/5/3 413/5/3
f 420/5/3 415/5/3 414/5/3
f 421/5/3 415/5/3 420/5/3
f 422/5/3 415/5/3 421/5/3
f 423/5/3 419/5/3 418/5/3
f 423/5/3 421/5/3 420/5/3
f 423/5/3 420/5/3 419/5/3
f 424/5/3 421/5/3 423/5/3
f 425/5/4 426/5/4 428/5/4
f 428/5/4 426/5/4 429/5/4
f 429/5/4 426/5/4 430/5/4
f 430/5/4 426/5/4 431/5/4
f 427/5/4 428/5/4 434/5/4
f 428/5/4 429/5/4 434/5/4
f 434/5/4 429/5/4 435/5/4
f 435/5/4 429/5/4 436/5/4
f 430/5/4 431/5/4 439/5/4
f 431/5/4 432/5/4 439/5/4
f 439/5/4 432/5/4 440/5/4
f 440/5/4 432/5/4 441/5/4
f 433/5/4 434/5/4 443/5/4
f 434/5/4 435/5/4 443/5/4
f 443/5/4 435/5/4 444/5/4
f 437/3/4 438/3/4 446/3/4
f 446/3/4 438/3/4 447/3/4
f 441/5/4 442/5/4 449/5/4
f 440/5/4 441/5/4 449/5/4
f 449/5/4 442/5/4 450/5/4
f 433/5/4 443/5/4 452/5/4
f 447/3/4 448/3/4 454/3/4
f 446/3/4 447/3/4 454/3/4
f 445/3/4 446/3/4 454/3/4
f 454/3/4 448/3/4 455/3/4
f 450/5/4 442/5/4 457/5/4
f 451/5/4 452/5/4 459/5/4
f 452/5/4 443/5/4 459/5/4
f 459/5/4 443/5/4 460/5/4
f 457/5/4 458/5/4 461/5/4
f 450/5/4 457/5/4 461/5/4
f 461/5/4 458/5/4 462/5/4
f 455/3/4 456/3/4 463/3/4
f 453/3/4 454/3/4 463/3/4
f 454/3/4 455/3/4 463/3/4
f 463/3/4 456/3/4 464/3/4
f 464/3/4 456/3/4 465/3/4
f 465/3/4 456/3/4 466/3/4
f 451/5/4 459/5/4 471/5/4
f 462/5/4 458/5/4 474/5/4
f 451/5/4 471/5/4 475/5/4
f 471/5/4 472/5/4 475/5/4
f 475/5/4 472/5/4 476/5/4
f 469/3/4 470/3/4 477/3/4
f 467/3/4 468/3/4 477/3/4
f 468/3/4 469/3/4 477/3/4
f 477/3/4 470/3/4 478/3/4
f 478/3/4 470/3/4 479/3/4
f 479/3/4 470/3/4 480/3/4
f 473/5/4 474/5/4 481/5/4
f 474/5/4 458/5/4 481/5/4
f 481/5/4 458/5/4 482/5/4
f 476/5/4 472/5/4 483/5/4
f 478/3/4 479/3/4 485/3/4
f 485/3/4 479/3/4 486/3/4
f 486/3/4 479/3/4 487/3/4
f 487/3/4 479/3/4 488/3/4
f 473/5/4 481/5/4 490/5/4
f 483/5/4 484/5/4 491/5/4
f 476/5/4 483/5/4 491/5/4
f 491/5/4 484/5/4 492/5/4
f 492/5/4 484/5/4 493/5/4
f 486/3/4 487/3/4 495/3/4
f 495/3/4 487/3/4 496/3/4
f 489/5/4 490/5/4 498/5/4
f 490/5/4 481/5/4 499/5/4
f 498/5/4 490/5/4 499/5/4
f 499/5/4 481/5/4 500/5/4
f 493/5/4 494/5/4 501/5/4
f 492/5/4 493/5/4 501/5/4
f 501/5/4 494/5/4 502/5/4
f 502/5/4 494/5/4 503/5/4
f 497/5/4 498/5/4 504/5/4
f 498/5/4 499/5/4 504/5/4
f 504/5/4 499/5/4 505/5/4
f 505/5/4 499/5/4 506/5/4
f 502/5/4 503/5/4 507/5/4
f 504/5/4 505/5/4 507/5/4
f 503/5/4 504/5/4 507/5/4
f 507/5/4 505/5/4 508/5/4
f 509/4/4 510/4/4 512/4/4
f 512/4/4 510/4/4 513/4/4
f 513/4/4 510/4/4 514/4/4
f 514/4/4 510/4/4 515/4/4
f 511/4/4 512/4/4 518/4/4
f 512/4/4 513/4/4 518/4/4
f 518/4/4 513/4/4 519/4/4
f 519/4/4 513/4/4 520/4/4
f 514/4/4 515/4/4 521/4/4
f 515/4/4 516/4/4 521/4/4
f 521/4/4 516/4/4 522/4/4
f 522/4/4 516/4/4 523/4/4
f 518/4/4 519/4/4 525/4/4
f 517/4/4 518/4/4 525/4/4
f 525/4/4 519/4/4 526/4/4
f 523/4/4 524/4/4 527/4/4
f 522/4/4 523/4/4 527/4/4
f 527/4/4 524/4/4 528/4/4
f 517/4/4 525/4/4 530/4/4
f 528/4/4 524/4/4 531/4/4
f 529/4/4 530/4/4 533/4/4
f 530/4/4 525/4/4 533/4/4
f 533/4/4 525/4/4 534/4/4
f 531/4/4 532/4/4 537/4/4
f 528/4/4 531/4/4 537/4/4
f 537/4/4 532/4/4 538/4/4
f 534/2/4 535/2/4 539/2/4
f 529/4/4 533/4/4 539/4/4
f 533/2/4 534/2/4 539/2/4
f 539/2/4 535/2/4 540/2/4
f 535/1/4 536/1/4 541/1/4
f 540/2/4 535/2/4 541/2/4
f 537/2/4 538/2/4 542/2/4
f 541/1/4 536/1/4 542/1/4
f 536/2/4 537/2/4 542/2/4
f 542/2/4 538/2/4 543/2/4
f 538/4/4 532/4/4 544/4/4
f 543/2/4 538/2/4 544/2/4
f 539/4/4 540/4/4 545/4/4
f 529/4/4 539/4/4 545/4/4
f 545/4/4 540/4/4 546/4/4
f 544/4/4 532/4/4 547/4/4
f 543/4/4 544/4/4 547/4/4
f 547/4/4 532/4/4 548/4/4
f 546/4/4 540/4/4 549/4/4
f 543/4/4 547/4/4 552/4/4
f 549/4/4 550/4/4 553/4/4
f 546/4/4 549/4/4 553/4/4
f 553/4/4 550/4/4 554/4/4
f 554/4/4 550/4/4 555/4/4
f 551/4/4 552/4/4 558/4/4
f 552/4/4 547/4/4 559/4/4
f 558/4/4 552/4/4 559/4/4
f 559/4/4 547/4/4 560/4/4
f 555/4/4 556/4/4 561/4/4
f 554/4/4 555/4/4 561/4/4
f 561/4/4 556/4/4 562/4/4
f 562/4/4 556/4/4 563/4/4
f 557/4/4 558/4/4 564/4/4
f 558/4/4 559/4/4 564/4/4
f 564/4/4 559/4/4 565/4/4
f 565/4/4 559/4/4 566/4/4
f 562/4/4 563/4/4 567/4/4
f 564/4/4 565/4/4 567/4/4
f 563/4/4 564/4/4 567/4/4
f 567/4/4 565/4/4 568/4/4
f 571/5/5 570/5/5 569/5/5
f 572/5/5 570/5/5 571/5/5
f 577/4/5 574/4/5 573/4/5
f 578/4/5 574/4/5 577/4/5
f 581/5/5 576/5/5 575/5/5
f 582/5/5 576/5/5 581/5/5
f 585/5/5 580/5/5 579/5/5
f 586/5/5 580/5/5 585/5/5
f 587/4/5 584/4/5 583/4/5
f 588/4/5 584/4/5 587/4/5
f 595/4/5 590/4/5 589/4/5
f 596/4/5 590/4/5 595/4/5
f 597/4/5 592/4/5 591/4/5
f 598/4/5 592/4/5 597/4/5
f 601/5/5 594/5/5 593/5/5
f 602/5/5 594/5/5 601/5/5
f 607/5/5 600/5/5 599/5/5
f 608/5/5 600/5/5 607/5/5
f 609/4/5 604/4/5 603/4/5
f 610/4/5 604/4/5 609/4/5
f 611/4/5 606/4/5 605/4/5
f 612/4/5 606/4/5 611/4/5
f 617/4/5 614/4/5 613/4/5
f 618/4/5 614/4/5 617/4/5
f 619/4/5 616/4/5 615/4/5
f 620/4/5 616/4/5 619/4/5
f 625/4/5 622/4/5 621/4/5
f 626/4/5 622/4/5 625/4/5
f 627/4/5 624/4/5 623/4/5
f 628/4/5 624/4/5 627/4/5
f 633/5/5 630/5/5 629/5/5
f 634/5/5 630/5/5 633/5/5
f 635/5/5 632/5/5 631/5/5
f 636/5/5 632/5/5 635/5/5
f 641/4/5 638/4/5 637/4/5
f 642/4/5 638/4/5 641/4/5
f 643/4/5 640/4/5 639/4/5
f 644/4/5 640/4/5 643/4/5
f 649/4/5 646/4/5 645/4/5
f 650/4/5 646/4/5 649/4/5
f 651/4/5 648/4/5 647/4/5
f 652/4/5 648/4/5 651/4/5
f 657/4/5 654/4/5 653/4/5
f 658/4/5 654/4/5 657/4/5
f 659/4/5 656/4/5 655/4/5
f 660/4/5 656/4/5 659/4/5
f 665/4/5 662/4/5 661/4/5
f 666/4/5 662/4/5 665/4/5
f 667/4/5 664/4/5 663/4/5
f 668/4/5 664/4/5 667/4/5
f 673/4/5 670/4/5 669/4/5
f 674/4/5 670/4/5 673/4/5
f 675/4/5 672/4/5 671/4/5
f 676/4/5 672/4/5 675/4/5
f 681/4/5 678/4/5 677/4/5
f 682/4/5 678/4/5 681/4/5
f 683/4/5 680/4/5 679/4/5
f 684/4/5 680/4/5 683/4/5
f 689/4/5 686/4/5 685/4/5
f 690/4/5 686/4/5 689/4/5
f 691/4/5 688/4/5 687/4/5
f 692/4/5 688/4/5 691/4/5
f 697/4/5 694/4/5 693/4/5
f 698/4/5 694/4/5 697/4/5
f 699/4/5 696/4/5 695/4/5
f 700/4/5 696/4/5 699/4/5
f 701/4/6 702/4/6 705/4/6
f 705/4/6 702/4/6 706/4/6
f 703/4/6 704/4/6 707/4/6
f 707/4/6 704/4/6 708/4/6
f 709/4/6 710/4/6 713/4/6
f 713/4/6 710/4/6 714/4/6
f 711/4/6 712/4/6 715/4/6
f 715/4/6 712/4/6 716/4/6
f 717/4/6 718/4/6 721/4/6
f 721/4/6 718/4/6 722/4/6
f 719/4/6 720/4/6 723/4/6
f 723/4/6 720/4/6 724/4/6
f 725/4/6 726/4/6 729/4/6
f 729/4/6 726/4/6 730/4/6
f 727/4/6 728/4/6 731/4/6
f 731/4/6 728/4/6 732/4/6
f 733/4/6 734/4/6 737/4/6
f 737/4/6 734/4/6 738/4/6
f 735/4/6 736/4/6 739/4/6
f 739/4/6 736/4/6 740/4/6
f 741/4/6 742/4/6 745/4/6
f 745/4/6 742/4/6 746/4/6
f 743/4/6 744/4/6 747/4/6
f 747/4/6 744/4/6 748/4/6
f 749/4/6 750/4/6 753/4/6
f 753/4/6 750/4/6 754/4/6
f 751/4/6 752/4/6 755/4/6
f 755/4/6 752/4/6 756/4/6
f 757/4/6 758/4/6 761/4/6
f 761/4/6 758/4/6 762/4/6
f 759/4/6 760/4/6 763/4/6
f 763/4/6 760/4/6 764/4/6
f 765/5/6 766/5/6 769/5/6
f 769/5/6 766/5/6 770/5/6
f 767/5/6 768/5/6 771/5/6
f 771/5/6 768/5/6 772/5/6
f 773/4/6 774/4/6 777/4/6
f 777/4/6 774/4/6 778/4/6
f 775/4/6 776/4/6 779/4/6
f 779/4/6 776/4/6 780/4/6
f 781/4/6 782/4/6 785/4/6
f 785/4/6 782/4/6 786/4/6
f 783/4/6 784/4/6 787/4/6
f 787/4/6 784/4/6 788/4/6
f 789/4/6 790/4/6 795/4/6
f 795/4/6 790/4/6 796/4/6
f 791/4/6 792/4/6 797/4/6
f 797/4/6 792/4/6 798/4/6
f 793/5/6 794/5/6 801/5/6
f 801/5/6 794/5/6 802/5/6
f 799/5/6 800/5/6 807/5/6
f 807/5/6 800/5/6 808/5/6
f 803/4/6 804/4/6 809/4/6
f 809/4/6 804/4/6 810/4/6
f 805/4/6 806/4/6 811/4/6
f 811/4/6 806/4/6 812/4/6
f 813/4/6 814/4/6 817/4/6
f 817/4/6 814/4/6 818/4/6
f 815/5/6 816/5/6 821/5/6
f 821/5/6 816/5/6 822/5/6
f 819/5/6 820/5/6 825/5/6
f 825/5/6 820/5/6 826/5/6
f 823/4/6 824/4/6 827/4/6
f 827/4/6 824/4/6 828/4/6
f 829/5/6 830/5/6 831/5/6
f 831/5/6 830/5/6 832/5/6
