# MagicaVoxel @ Ephtracy

# material
mtllib wall_patterned_2.mtl
usemtl palette

# normals
vn -1 0 0
vn 1 0 0
vn 0 0 1
vn 0 0 -1
vn 0 -1 0
vn 0 1 0

# texcoords
vt 0.259766 0.5
vt 0.275391 0.5
vt 0.279297 0.5
vt 0.287109 0.5
vt 0.291016 0.5
vt 0.298828 0.5
vt 0.326172 0.5

# verts
v -8 0 1
v -8 0 -0
v -8 0 -8
v -8 2 1
v -8 2 -0
v -8 3 1
v -8 3 -0
v -8 9 1
v -8 9 -0
v -8 10 1
v -8 10 -0
v -8 12 1
v -8 12 -0
v -8 14 1
v -8 14 -0
v -8 16 1
v -8 16 -8
v -5 4 1
v -5 4 -0
v -5 5 1
v -5 5 -0
v -5 5 -1
v -5 6 -0
v -5 6 -1
v -3 6 -0
v -3 6 -1
v -3 7 -0
v -3 7 -1
v -2 5 1
v -2 5 -0
v -2 6 1
v -2 6 -0
v 2 7 -0
v 2 7 -1
v 2 8 -0
v 2 8 -1
v 3 6 1
v 3 6 -0
v 3 7 1
v 3 7 -0
v 5 9 -0
v 5 9 -1
v 5 10 -0
v 5 10 -1
v 6 7 1
v 6 7 -0
v 6 8 1
v 6 8 -0
v 6 8 -1
v 6 9 -0
v 6 9 -1
v 6 10 1
v 6 10 -0
v 6 11 1
v 6 11 -0
v 7 8 1
v 7 8 -0
v 7 10 1
v 7 10 -0
v -7 4 1
v -7 4 -0
v -7 6 1
v -7 6 -0
v -6 5 -0
v -6 5 -1
v -6 6 1
v -6 6 -0
v -6 6 -1
v -6 8 1
v -6 8 -0
v -5 6 -0
v -5 6 -1
v -5 7 -0
v -5 7 -1
v -5 8 1
v -5 8 -0
v -5 9 1
v -5 9 -0
v -4 7 -0
v -4 7 -1
v -4 8 -0
v -4 8 -1
v 0 9 1
v 0 9 -0
v 0 10 1
v 0 10 -0
v 1 8 -0
v 1 8 -1
v 1 9 -0
v 1 9 -1
v 2 10 1
v 2 10 -0
v 2 11 1
v 2 11 -0
v 3 9 -0
v 3 9 -1
v 3 10 -0
v 3 10 -1
v 8 0 1
v 8 0 -8
v 8 2 1
v 8 2 -0
v 8 5 1
v 8 5 -0
v 8 6 1
v 8 6 -0
v 8 7 1
v 8 7 -0
v 8 12 1
v 8 12 -0
v 8 15 1
v 8 15 -0
v 8 16 1
v 8 16 -8
v -8 0 1
v -8 2 1
v -8 3 1
v -8 9 1
v -8 10 1
v -8 12 1
v -8 14 1
v -8 16 1
v -7 2 1
v -7 3 1
v -7 4 1
v -7 6 1
v -7 11 1
v -7 12 1
v -7 14 1
v -7 15 1
v -6 6 1
v -6 8 1
v -6 9 1
v -6 10 1
v -5 4 1
v -5 5 1
v -5 8 1
v -5 9 1
v -4 2 1
v -4 3 1
v -4 10 1
v -4 11 1
v -3 0 1
v -3 3 1
v -2 3 1
v -2 5 1
v -2 6 1
v -1 11 1
v -1 12 1
v -1 14 1
v -1 15 1
v -1 16 1
v 0 9 1
v 0 10 1
v 0 11 1
v 0 12 1
v 1 3 1
v 1 5 1
v 2 0 1
v 2 2 1
v 2 5 1
v 2 6 1
v 2 10 1
v 2 11 1
v 3 1 1
v 3 2 1
v 3 6 1
v 3 7 1
v 5 14 1
v 5 15 1
v 5 16 1
v 6 7 1
v 6 8 1
v 6 10 1
v 6 11 1
v 7 1 1
v 7 2 1
v 7 6 1
v 7 7 1
v 7 8 1
v 7 10 1
v 8 0 1
v 8 2 1
v 8 5 1
v 8 6 1
v 8 7 1
v 8 12 1
v 8 15 1
v 8 16 1
v -7 4 -0
v -7 6 -0
v -6 5 -0
v -6 6 -0
v -6 8 -0
v -5 4 -0
v -5 5 -0
v -5 6 -0
v -5 7 -0
v -5 8 -0
v -5 9 -0
v -4 7 -0
v -4 8 -0
v -3 6 -0
v -3 7 -0
v -2 5 -0
v -2 6 -0
v -2 7 -0
v 0 8 -0
v 0 9 -0
v 0 10 -0
v 1 8 -0
v 1 9 -0
v 2 6 -0
v 2 7 -0
v 2 8 -0
v 2 10 -0
v 2 11 -0
v 3 6 -0
v 3 7 -0
v 3 9 -0
v 3 10 -0
v 5 9 -0
v 5 10 -0
v 6 7 -0
v 6 8 -0
v 6 9 -0
v 6 10 -0
v 6 11 -0
v 7 8 -0
v 7 10 -0
v -6 5 -1
v -6 6 -1
v -5 5 -1
v -5 6 -1
v -5 7 -1
v -4 7 -1
v -4 8 -1
v -3 6 -1
v -3 7 -1
v -2 7 -1
v -2 8 -1
v 0 7 -1
v 0 8 -1
v 1 7 -1
v 1 8 -1
v 1 9 -1
v 2 7 -1
v 2 8 -1
v 3 9 -1
v 3 10 -1
v 5 9 -1
v 5 10 -1
v 6 8 -1
v 6 9 -1
v -8 0 -8
v -8 16 -8
v 8 0 -8
v 8 16 -8
v -8 0 1
v -3 0 1
v 2 0 1
v 8 0 1
v -8 0 -0
v -3 0 -0
v 2 0 -0
v -8 0 -8
v 8 0 -8
v -7 6 1
v -6 6 1
v -7 6 -0
v -6 6 -0
v -5 6 -0
v -6 6 -1
v -5 6 -1
v -5 7 -0
v -4 7 -0
v -5 7 -1
v -4 7 -1
v -6 8 1
v -5 8 1
v -6 8 -0
v -5 8 -0
v -4 8 -0
v 0 8 -0
v 1 8 -0
v -4 8 -1
v -2 8 -1
v 0 8 -1
v 1 8 -1
v -5 9 1
v 0 9 1
v -5 9 -0
v 0 9 -0
v 1 9 -0
v 3 9 -0
v 5 9 -0
v 6 9 -0
v 1 9 -1
v 3 9 -1
v 5 9 -1
v 6 9 -1
v 0 10 1
v 2 10 1
v 6 10 1
v 7 10 1
v 0 10 -0
v 2 10 -0
v 3 10 -0
v 5 10 -0
v 6 10 -0
v 7 10 -0
v 3 10 -1
v 5 10 -1
v 2 11 1
v 6 11 1
v 2 11 -0
v 6 11 -0
v -7 4 1
v -5 4 1
v -7 4 -0
v -5 4 -0
v -5 5 1
v -2 5 1
v -6 5 -0
v -5 5 -0
v -2 5 -0
v -6 5 -1
v -5 5 -1
v -2 6 1
v 2 6 1
v 3 6 1
v -5 6 -0
v -3 6 -0
v -2 6 -0
v 2 6 -0
v 3 6 -0
v -5 6 -1
v -3 6 -1
v 3 7 1
v 6 7 1
v -3 7 -0
v -2 7 -0
v 2 7 -0
v 3 7 -0
v 6 7 -0
v -3 7 -1
v -2 7 -1
v 0 7 -1
v 1 7 -1
v 2 7 -1
v 6 8 1
v 7 8 1
v 2 8 -0
v 6 8 -0
v 7 8 -0
v 2 8 -1
v 6 8 -1
v -8 16 1
v -1 16 1
v 5 16 1
v 8 16 1
v -1 16 -0
v 5 16 -0
v -8 16 -8
v 8 16 -8

# faces
f 4/4/1 2/4/1 1/4/1
f 5/1/1 3/1/1 2/1/1
f 5/4/1 2/4/1 4/4/1
f 6/1/1 5/1/1 4/1/1
f 7/1/1 3/1/1 5/1/1
f 7/1/1 5/1/1 6/1/1
f 8/6/1 7/6/1 6/6/1
f 9/1/1 3/1/1 7/1/1
f 9/6/1 7/6/1 8/6/1
f 10/5/1 9/5/1 8/5/1
f 11/1/1 3/1/1 9/1/1
f 11/5/1 9/5/1 10/5/1
f 12/4/1 11/4/1 10/4/1
f 13/1/1 3/1/1 11/1/1
f 13/4/1 11/4/1 12/4/1
f 14/3/1 13/3/1 12/3/1
f 15/1/1 3/1/1 13/1/1
f 15/3/1 13/3/1 14/3/1
f 16/1/1 15/1/1 14/1/1
f 17/1/1 3/1/1 15/1/1
f 17/1/1 15/1/1 16/1/1
f 20/6/1 19/6/1 18/6/1
f 21/6/1 19/6/1 20/6/1
f 23/6/1 22/6/1 21/6/1
f 24/6/1 22/6/1 23/6/1
f 27/7/1 26/7/1 25/7/1
f 28/7/1 26/7/1 27/7/1
f 31/6/1 30/6/1 29/6/1
f 32/6/1 30/6/1 31/6/1
f 35/6/1 34/6/1 33/6/1
f 36/6/1 34/6/1 35/6/1
f 39/6/1 38/6/1 37/6/1
f 40/6/1 38/6/1 39/6/1
f 43/6/1 42/6/1 41/6/1
f 44/6/1 42/6/1 43/6/1
f 47/6/1 46/6/1 45/6/1
f 48/6/1 46/6/1 47/6/1
f 50/6/1 49/6/1 48/6/1
f 51/6/1 49/6/1 50/6/1
f 54/6/1 53/6/1 52/6/1
f 55/6/1 53/6/1 54/6/1
f 58/6/1 57/6/1 56/6/1
f 59/6/1 57/6/1 58/6/1
f 60/6/2 61/6/2 62/6/2
f 62/6/2 61/6/2 63/6/2
f 64/6/2 65/6/2 67/6/2
f 67/6/2 65/6/2 68/6/2
f 66/6/2 67/6/2 69/6/2
f 69/6/2 67/6/2 70/6/2
f 71/6/2 72/6/2 73/6/2
f 73/6/2 72/6/2 74/6/2
f 75/6/2 76/6/2 77/6/2
f 77/6/2 76/6/2 78/6/2
f 79/6/2 80/6/2 81/6/2
f 81/6/2 80/6/2 82/6/2
f 83/6/2 84/6/2 85/6/2
f 85/6/2 84/6/2 86/6/2
f 87/7/2 88/7/2 89/7/2
f 89/7/2 88/7/2 90/7/2
f 91/6/2 92/6/2 93/6/2
f 93/6/2 92/6/2 94/6/2
f 95/6/2 96/6/2 97/6/2
f 97/6/2 96/6/2 98/6/2
f 99/1/2 100/1/2 101/1/2
f 101/1/2 100/1/2 102/1/2
f 101/3/2 102/3/2 103/3/2
f 102/1/2 100/1/2 104/1/2
f 103/3/2 102/3/2 104/3/2
f 103/4/2 104/4/2 105/4/2
f 104/1/2 100/1/2 106/1/2
f 105/4/2 104/4/2 106/4/2
f 105/1/2 106/1/2 107/1/2
f 106/1/2 100/1/2 108/1/2
f 107/1/2 106/1/2 108/1/2
f 107/6/2 108/6/2 109/6/2
f 108/1/2 100/1/2 110/1/2
f 109/6/2 108/6/2 110/6/2
f 109/4/2 110/4/2 111/4/2
f 110/1/2 100/1/2 112/1/2
f 111/4/2 110/4/2 112/4/2
f 111/1/2 112/1/2 113/1/2
f 112/1/2 100/1/2 114/1/2
f 113/1/2 112/1/2 114/1/2
f 123/4/3 116/4/3 115/4/3
f 123/1/3 117/1/3 116/1/3
f 124/6/3 118/6/3 117/6/3
f 124/1/3 117/1/3 123/1/3
f 125/6/3 118/6/3 124/6/3
f 126/6/3 118/6/3 125/6/3
f 127/4/3 120/4/3 119/4/3
f 128/3/3 121/3/3 120/3/3
f 128/4/3 120/4/3 127/4/3
f 129/1/3 122/1/3 121/1/3
f 129/3/3 121/3/3 128/3/3
f 130/1/3 122/1/3 129/1/3
f 131/6/3 118/6/3 126/6/3
f 132/6/3 118/6/3 131/6/3
f 133/5/3 119/5/3 118/5/3
f 133/6/3 118/6/3 132/6/3
f 134/4/3 127/4/3 119/4/3
f 134/5/3 119/5/3 133/5/3
f 135/6/3 124/6/3 123/6/3
f 135/6/3 125/6/3 124/6/3
f 137/6/3 133/6/3 132/6/3
f 137/6/3 134/6/3 133/6/3
f 138/6/3 134/6/3 137/6/3
f 139/6/3 136/6/3 135/6/3
f 139/4/3 123/4/3 115/4/3
f 139/6/3 135/6/3 123/6/3
f 140/6/3 136/6/3 139/6/3
f 141/6/3 134/6/3 138/6/3
f 141/4/3 127/4/3 134/4/3
f 142/3/3 128/3/3 127/3/3
f 142/4/3 127/4/3 141/4/3
f 142/3/3 129/3/3 128/3/3
f 142/3/3 130/3/3 129/3/3
f 143/4/3 140/4/3 139/4/3
f 143/4/3 139/4/3 115/4/3
f 144/6/3 136/6/3 140/6/3
f 144/4/3 140/4/3 143/4/3
f 145/3/3 144/3/3 143/3/3
f 145/6/3 136/6/3 144/6/3
f 146/6/3 136/6/3 145/6/3
f 148/3/3 130/3/3 142/3/3
f 148/6/3 142/6/3 141/6/3
f 149/3/3 130/3/3 148/3/3
f 150/3/3 130/3/3 149/3/3
f 151/1/3 122/1/3 130/1/3
f 151/3/3 130/3/3 150/3/3
f 152/1/3 122/1/3 151/1/3
f 153/6/3 141/6/3 138/6/3
f 153/6/3 148/6/3 141/6/3
f 154/6/3 148/6/3 153/6/3
f 155/1/3 149/1/3 148/1/3
f 155/6/3 148/6/3 154/6/3
f 156/4/3 150/4/3 149/4/3
f 156/1/3 149/1/3 155/1/3
f 157/4/3 146/4/3 145/4/3
f 157/3/3 145/3/3 143/3/3
f 158/6/3 147/6/3 146/6/3
f 158/4/3 146/4/3 157/4/3
f 159/3/3 157/3/3 143/3/3
f 159/3/3 158/3/3 157/3/3
f 160/3/3 158/3/3 159/3/3
f 161/6/3 147/6/3 158/6/3
f 161/3/3 158/3/3 160/3/3
f 162/6/3 147/6/3 161/6/3
f 163/6/3 155/6/3 154/6/3
f 163/6/3 156/6/3 155/6/3
f 164/6/3 156/6/3 163/6/3
f 165/1/3 160/1/3 159/1/3
f 166/3/3 161/3/3 160/3/3
f 166/1/3 160/1/3 165/1/3
f 167/4/3 162/4/3 161/4/3
f 169/4/3 150/4/3 156/4/3
f 169/3/3 152/3/3 151/3/3
f 169/3/3 151/3/3 150/3/3
f 170/3/3 152/3/3 169/3/3
f 171/3/3 152/3/3 170/3/3
f 172/6/3 168/6/3 167/6/3
f 175/6/3 156/6/3 164/6/3
f 176/1/3 165/1/3 159/1/3
f 176/3/3 166/3/3 165/3/3
f 177/3/3 161/3/3 166/3/3
f 177/3/3 166/3/3 176/3/3
f 178/6/3 173/6/3 172/6/3
f 178/4/3 167/4/3 161/4/3
f 178/6/3 172/6/3 167/6/3
f 179/6/3 173/6/3 178/6/3
f 180/6/3 173/6/3 179/6/3
f 181/6/3 175/6/3 174/6/3
f 182/1/3 176/1/3 159/1/3
f 182/1/3 177/1/3 176/1/3
f 183/3/3 161/3/3 177/3/3
f 183/1/3 177/1/3 182/1/3
f 184/4/3 178/4/3 161/4/3
f 184/3/3 161/3/3 183/3/3
f 185/1/3 179/1/3 178/1/3
f 185/4/3 178/4/3 184/4/3
f 186/6/3 181/6/3 180/6/3
f 186/1/3 179/1/3 185/1/3
f 186/6/3 180/6/3 179/6/3
f 187/6/3 175/6/3 181/6/3
f 187/6/3 181/6/3 186/6/3
f 187/6/3 156/6/3 175/6/3
f 187/4/3 169/4/3 156/4/3
f 187/4/3 170/4/3 169/4/3
f 188/1/3 171/1/3 170/1/3
f 188/4/3 170/4/3 187/4/3
f 189/1/3 171/1/3 188/1/3
f 192/6/3 191/6/3 190/6/3
f 193/6/3 191/6/3 192/6/3
f 195/6/3 192/6/3 190/6/3
f 196/6/3 192/6/3 195/6/3
f 197/6/3 194/6/3 193/6/3
f 198/6/3 194/6/3 197/6/3
f 199/6/3 194/6/3 198/6/3
f 201/6/3 200/6/3 199/6/3
f 201/6/3 199/6/3 198/6/3
f 202/6/3 200/6/3 201/6/3
f 203/6/3 197/6/3 196/6/3
f 205/6/3 203/6/3 196/6/3
f 206/7/3 204/7/3 203/7/3
f 206/6/3 203/6/3 205/6/3
f 207/7/3 204/7/3 206/7/3
f 208/6/3 200/6/3 202/6/3
f 209/6/3 200/6/3 208/6/3
f 211/7/3 209/7/3 208/7/3
f 212/6/3 210/6/3 209/6/3
f 212/7/3 209/7/3 211/7/3
f 213/6/3 207/6/3 206/6/3
f 214/6/3 207/6/3 213/6/3
f 216/6/3 210/6/3 212/6/3
f 218/6/3 215/6/3 214/6/3
f 218/6/3 214/6/3 213/6/3
f 219/6/3 215/6/3 218/6/3
f 220/6/3 217/6/3 216/6/3
f 220/6/3 216/6/3 212/6/3
f 221/6/3 217/6/3 220/6/3
f 223/6/3 217/6/3 221/6/3
f 224/6/3 215/6/3 219/6/3
f 225/6/3 215/6/3 224/6/3
f 226/6/3 223/6/3 222/6/3
f 227/6/3 217/6/3 223/6/3
f 227/6/3 223/6/3 226/6/3
f 228/6/3 217/6/3 227/6/3
f 229/6/3 226/6/3 225/6/3
f 229/6/3 227/6/3 226/6/3
f 230/6/3 227/6/3 229/6/3
f 233/7/3 232/7/3 231/7/3
f 234/7/3 232/7/3 233/7/3
f 236/7/3 235/7/3 234/7/3
f 238/7/3 236/7/3 234/7/3
f 238/7/3 237/7/3 236/7/3
f 239/7/3 237/7/3 238/7/3
f 240/7/3 237/7/3 239/7/3
f 241/7/3 237/7/3 240/7/3
f 242/6/3 241/6/3 240/6/3
f 243/6/3 241/6/3 242/6/3
f 244/7/3 243/7/3 242/7/3
f 245/7/3 243/7/3 244/7/3
f 247/6/3 245/6/3 244/6/3
f 248/7/3 246/7/3 245/7/3
f 248/6/3 245/6/3 247/6/3
f 249/7/3 246/7/3 248/7/3
f 251/7/3 249/7/3 248/7/3
f 251/7/3 250/7/3 249/7/3
f 252/7/3 250/7/3 251/7/3
f 253/7/3 251/7/3 248/7/3
f 254/7/3 251/7/3 253/7/3
f 255/1/4 256/1/4 257/1/4
f 257/1/4 256/1/4 258/1/4
f 263/4/5 260/4/5 259/4/5
f 264/3/5 261/3/5 260/3/5
f 264/4/5 260/4/5 263/4/5
f 265/1/5 262/1/5 261/1/5
f 265/3/5 261/3/5 264/3/5
f 266/1/5 264/1/5 263/1/5
f 266/1/5 265/1/5 264/1/5
f 267/1/5 262/1/5 265/1/5
f 267/1/5 265/1/5 266/1/5
f 270/6/5 269/6/5 268/6/5
f 271/6/5 269/6/5 270/6/5
f 273/6/5 272/6/5 271/6/5
f 274/6/5 272/6/5 273/6/5
f 277/6/5 276/6/5 275/6/5
f 278/6/5 276/6/5 277/6/5
f 281/6/5 280/6/5 279/6/5
f 282/6/5 280/6/5 281/6/5
f 286/6/5 284/6/5 283/6/5
f 287/6/5 284/6/5 286/6/5
f 288/7/5 285/7/5 284/7/5
f 288/6/5 284/6/5 287/6/5
f 289/7/5 285/7/5 288/7/5
f 292/6/5 291/6/5 290/6/5
f 293/6/5 291/6/5 292/6/5
f 298/6/5 295/6/5 294/6/5
f 299/6/5 295/6/5 298/6/5
f 300/6/5 297/6/5 296/6/5
f 301/6/5 297/6/5 300/6/5
f 306/6/5 303/6/5 302/6/5
f 307/6/5 303/6/5 306/6/5
f 310/6/5 305/6/5 304/6/5
f 311/6/5 305/6/5 310/6/5
f 312/6/5 309/6/5 308/6/5
f 313/6/5 309/6/5 312/6/5
f 316/6/5 315/6/5 314/6/5
f 317/6/5 315/6/5 316/6/5
f 318/6/6 319/6/6 320/6/6
f 320/6/6 319/6/6 321/6/6
f 322/6/6 323/6/6 325/6/6
f 325/6/6 323/6/6 326/6/6
f 324/6/6 325/6/6 327/6/6
f 327/6/6 325/6/6 328/6/6
f 329/6/6 330/6/6 334/6/6
f 330/4/6 331/4/6 335/4/6
f 334/6/6 330/6/6 335/6/6
f 335/4/6 331/4/6 336/4/6
f 332/6/6 333/6/6 337/6/6
f 337/6/6 333/6/6 338/6/6
f 339/6/6 340/6/6 344/6/6
f 344/6/6 340/6/6 345/6/6
f 341/7/6 342/7/6 346/7/6
f 342/6/6 343/6/6 347/6/6
f 346/7/6 342/7/6 347/7/6
f 347/6/6 343/6/6 348/6/6
f 348/6/6 343/6/6 349/6/6
f 349/6/6 343/6/6 350/6/6
f 351/6/6 352/6/6 354/6/6
f 354/6/6 352/6/6 355/6/6
f 353/6/6 354/6/6 356/6/6
f 356/6/6 354/6/6 357/6/6
f 358/1/6 359/1/6 362/1/6
f 359/3/6 360/3/6 362/3/6
f 360/1/6 361/1/6 363/1/6
f 362/3/6 360/3/6 363/3/6
f 358/1/6 362/1/6 364/1/6
f 362/1/6 363/1/6 364/1/6
f 363/1/6 361/1/6 365/1/6
f 364/1/6 363/1/6 365/1/6
