# MagicaVoxel @ Ephtracy

# material
mtllib bibelot_1.mtl
usemtl palette

# normals
vn -1 0 0
vn 1 0 0
vn 0 0 1
vn 0 0 -1
vn 0 -1 0
vn 0 1 0

# texcoords
vt 0.259766 0.5
vt 0.298828 0.5
vt 0.306641 0.5
vt 0.310547 0.5
vt 0.322266 0.5
vt 0.626953 0.5
vt 0.751953 0.5
vt 0.759766 0.5
vt 0.767578 0.5
vt 0.943359 0.5
vt 0.951172 0.5

# verts
v -6 0 4
v -6 0 1
v -6 14 4
v -6 14 1
v -5 11 7
v -5 11 6
v -5 11 4
v -5 12 7
v -5 12 6
v -5 13 7
v -5 13 4
v -1 2 6
v -1 2 5
v -1 3 7
v -1 3 6
v -1 3 5
v -1 3 4
v -1 4 8
v -1 4 7
v -1 4 6
v -1 4 5
v -1 4 4
v -1 4 3
v -1 5 8
v -1 5 7
v -1 5 6
v -1 5 5
v -1 5 4
v -1 5 3
v -1 6 7
v -1 6 6
v -1 6 5
v -1 6 4
v -1 7 6
v -1 7 5
v 1 4 7
v 1 4 6
v 1 5 6
v 1 5 5
v 1 8 7
v 1 8 6
v 1 8 5
v 1 9 6
v 1 9 5
v 1 10 7
v 1 10 6
v 1 11 7
v 1 11 5
v -3 11 5
v -3 11 4
v -3 13 5
v -3 13 4
v -2 0 4
v -2 0 1
v -2 14 4
v -2 14 1
v 0 2 6
v 0 2 5
v 0 3 7
v 0 3 6
v 0 3 5
v 0 3 4
v 0 4 8
v 0 4 7
v 0 4 6
v 0 4 5
v 0 4 4
v 0 4 3
v 0 5 8
v 0 5 7
v 0 5 6
v 0 5 5
v 0 5 4
v 0 5 3
v 0 6 7
v 0 6 6
v 0 6 5
v 0 6 4
v 0 7 6
v 0 7 5
v 3 6 7
v 3 6 6
v 3 6 5
v 3 7 6
v 3 7 5
v 3 8 7
v 3 8 6
v 3 9 6
v 3 9 5
v 3 10 7
v 3 10 6
v 3 10 5
v 3 12 7
v 3 12 6
v 3 13 7
v 3 13 6
v 3 13 5
v 8 4 7
v 8 4 6
v 8 4 5
v 8 5 7
v 8 5 6
v 8 6 7
v 8 6 5
v -1 4 8
v -1 5 8
v 0 4 8
v 0 5 8
v -5 11 7
v -5 12 7
v -5 13 7
v -3 11 7
v -3 12 7
v -3 13 7
v -2 12 7
v -2 13 7
v -1 3 7
v -1 4 7
v -1 5 7
v -1 6 7
v -1 11 7
v -1 12 7
v 0 3 7
v 0 4 7
v 0 5 7
v 0 6 7
v 0 11 7
v 0 12 7
v 1 4 7
v 1 8 7
v 1 10 7
v 1 11 7
v 1 12 7
v 2 4 7
v 2 5 7
v 2 6 7
v 2 8 7
v 2 10 7
v 2 11 7
v 2 12 7
v 2 13 7
v 3 6 7
v 3 8 7
v 3 10 7
v 3 12 7
v 3 13 7
v 4 4 7
v 4 5 7
v 4 6 7
v 5 5 7
v 5 6 7
v 6 5 7
v 6 6 7
v 7 4 7
v 7 5 7
v 7 6 7
v 8 4 7
v 8 5 7
v 8 6 7
v -1 2 6
v -1 3 6
v -1 4 6
v -1 5 6
v -1 6 6
v -1 7 6
v 0 2 6
v 0 3 6
v 0 4 6
v 0 5 6
v 0 6 6
v 0 7 6
v 1 4 6
v 1 5 6
v -1 3 5
v -1 4 5
v -1 5 5
v -1 6 5
v 0 3 5
v 0 4 5
v 0 5 5
v 0 6 5
v -6 0 4
v -6 14 4
v -5 0 4
v -5 1 4
v -5 3 4
v -5 5 4
v -5 7 4
v -5 9 4
v -5 11 4
v -5 13 4
v -4 1 4
v -4 2 4
v -4 3 4
v -4 4 4
v -4 5 4
v -4 6 4
v -4 7 4
v -4 8 4
v -4 9 4
v -4 10 4
v -3 0 4
v -3 2 4
v -3 4 4
v -3 6 4
v -3 8 4
v -3 10 4
v -3 11 4
v -3 13 4
v -2 0 4
v -2 14 4
v -1 4 4
v -1 5 4
v 0 4 4
v 0 5 4
v -1 4 7
v -1 5 7
v 0 4 7
v 0 5 7
v -1 3 6
v -1 4 6
v -1 5 6
v -1 6 6
v 0 3 6
v 0 4 6
v 0 5 6
v 0 6 6
v -3 11 5
v -3 13 5
v -1 2 5
v -1 3 5
v -1 4 5
v -1 5 5
v -1 6 5
v -1 7 5
v -1 12 5
v -1 13 5
v 0 2 5
v 0 3 5
v 0 4 5
v 0 5 5
v 0 6 5
v 0 7 5
v 0 12 5
v 0 13 5
v 1 4 5
v 1 5 5
v 1 8 5
v 1 9 5
v 1 11 5
v 1 12 5
v 2 6 5
v 2 7 5
v 2 8 5
v 2 9 5
v 2 10 5
v 2 11 5
v 2 12 5
v 3 4 5
v 3 6 5
v 3 7 5
v 3 9 5
v 3 10 5
v 3 13 5
v 4 4 5
v 4 6 5
v 6 4 5
v 6 5 5
v 7 4 5
v 7 5 5
v 8 4 5
v 8 6 5
v -1 3 4
v -1 4 4
v -1 5 4
v -1 6 4
v 0 3 4
v 0 4 4
v 0 5 4
v 0 6 4
v -1 4 3
v -1 5 3
v 0 4 3
v 0 5 3
v -6 0 1
v -6 14 1
v -2 0 1
v -2 14 1
v -6 0 4
v -5 0 4
v -3 0 4
v -2 0 4
v -5 0 3
v -3 0 3
v -6 0 1
v -2 0 1
v -1 2 6
v 0 2 6
v -1 2 5
v 0 2 5
v -1 3 7
v 0 3 7
v -1 3 6
v 0 3 6
v -1 3 5
v 0 3 5
v -1 3 4
v 0 3 4
v -1 4 8
v 0 4 8
v -1 4 7
v 0 4 7
v 1 4 7
v 2 4 7
v 4 4 7
v 7 4 7
v 8 4 7
v -1 4 6
v 0 4 6
v 1 4 6
v 2 4 6
v 3 4 6
v 6 4 6
v 7 4 6
v 8 4 6
v -1 4 5
v 0 4 5
v 1 4 5
v 3 4 5
v 4 4 5
v 6 4 5
v 7 4 5
v 8 4 5
v -1 4 4
v 0 4 4
v -1 4 3
v 0 4 3
v -1 5 7
v 0 5 7
v -1 5 6
v 0 5 6
v -1 5 5
v 0 5 5
v -1 5 4
v 0 5 4
v -1 6 6
v 0 6 6
v -1 6 5
v 0 6 5
v -5 11 7
v -3 11 7
v -1 11 7
v 0 11 7
v 1 11 7
v -5 11 6
v -3 11 6
v -1 11 6
v 0 11 6
v -3 11 5
v 1 11 5
v -5 11 4
v -3 11 4
v -1 3 6
v 0 3 6
v -1 3 5
v 0 3 5
v -1 4 7
v 0 4 7
v -1 4 6
v 0 4 6
v -1 4 5
v 0 4 5
v -1 4 4
v 0 4 4
v -1 5 8
v 0 5 8
v -1 5 7
v 0 5 7
v -1 5 6
v 0 5 6
v 1 5 6
v -1 5 5
v 0 5 5
v 1 5 5
v -1 5 4
v 0 5 4
v -1 5 3
v 0 5 3
v -1 6 7
v 0 6 7
v 3 6 7
v 4 6 7
v 5 6 7
v 6 6 7
v 7 6 7
v 8 6 7
v -1 6 6
v 0 6 6
v 3 6 6
v 4 6 6
v 5 6 6
v 6 6 6
v 7 6 6
v -1 6 5
v 0 6 5
v 3 6 5
v 4 6 5
v 8 6 5
v -1 6 4
v 0 6 4
v -1 7 6
v 0 7 6
v -1 7 5
v 0 7 5
v -5 13 7
v -3 13 7
v -2 13 7
v 2 13 7
v 3 13 7
v -3 13 6
v -2 13 6
v -1 13 6
v 0 13 6
v 2 13 6
v 3 13 6
v -3 13 5
v -1 13 5
v 0 13 5
v 3 13 5
v -5 13 4
v -3 13 4
v -6 14 4
v -2 14 4
v -6 14 1
v -2 14 1

# faces
f 3/2/1 2/2/1 1/2/1
f 4/2/1 2/2/1 3/2/1
f 8/4/1 6/4/1 5/4/1
f 9/2/1 7/2/1 6/2/1
f 9/4/1 6/4/1 8/4/1
f 10/2/1 9/2/1 8/2/1
f 11/2/1 7/2/1 9/2/1
f 11/2/1 9/2/1 10/2/1
f 15/6/1 13/6/1 12/6/1
f 16/6/1 13/6/1 15/6/1
f 19/6/1 15/6/1 14/6/1
f 20/6/1 15/6/1 19/6/1
f 21/6/1 17/6/1 16/6/1
f 22/6/1 17/6/1 21/6/1
f 24/6/1 19/6/1 18/6/1
f 25/6/1 19/6/1 24/6/1
f 26/7/1 21/7/1 20/7/1
f 27/7/1 21/7/1 26/7/1
f 28/6/1 23/6/1 22/6/1
f 29/6/1 23/6/1 28/6/1
f 30/6/1 26/6/1 25/6/1
f 31/6/1 26/6/1 30/6/1
f 32/6/1 28/6/1 27/6/1
f 33/6/1 28/6/1 32/6/1
f 34/6/1 32/6/1 31/6/1
f 35/6/1 32/6/1 34/6/1
f 38/2/1 37/2/1 36/2/1
f 40/2/1 38/2/1 36/2/1
f 40/2/1 39/2/1 38/2/1
f 41/2/1 39/2/1 40/2/1
f 42/2/1 39/2/1 41/2/1
f 43/4/1 41/4/1 40/4/1
f 43/10/1 42/10/1 41/10/1
f 44/10/1 42/10/1 43/10/1
f 45/4/1 43/4/1 40/4/1
f 46/2/1 44/2/1 43/2/1
f 46/4/1 43/4/1 45/4/1
f 47/2/1 46/2/1 45/2/1
f 48/2/1 44/2/1 46/2/1
f 48/2/1 46/2/1 47/2/1
f 49/2/2 50/2/2 51/2/2
f 51/2/2 50/2/2 52/2/2
f 53/2/2 54/2/2 55/2/2
f 55/2/2 54/2/2 56/2/2
f 57/6/2 58/6/2 60/6/2
f 60/6/2 58/6/2 61/6/2
f 59/6/2 60/6/2 64/6/2
f 64/6/2 60/6/2 65/6/2
f 61/6/2 62/6/2 66/6/2
f 66/6/2 62/6/2 67/6/2
f 63/6/2 64/6/2 69/6/2
f 69/6/2 64/6/2 70/6/2
f 67/6/2 68/6/2 73/6/2
f 73/6/2 68/6/2 74/6/2
f 70/6/2 71/6/2 75/6/2
f 75/6/2 71/6/2 76/6/2
f 72/6/2 73/6/2 77/6/2
f 77/6/2 73/6/2 78/6/2
f 76/6/2 77/6/2 79/6/2
f 79/6/2 77/6/2 80/6/2
f 81/4/2 82/4/2 84/4/2
f 82/10/2 83/10/2 84/10/2
f 84/10/2 83/10/2 85/10/2
f 81/4/2 84/4/2 86/4/2
f 84/2/2 85/2/2 87/2/2
f 86/4/2 84/4/2 87/4/2
f 86/2/2 87/2/2 88/2/2
f 87/2/2 85/2/2 88/2/2
f 88/2/2 85/2/2 89/2/2
f 86/2/2 88/2/2 90/2/2
f 88/10/2 89/10/2 91/10/2
f 90/2/2 88/2/2 91/2/2
f 91/10/2 89/10/2 92/10/2
f 90/5/2 91/5/2 93/5/2
f 91/2/2 92/2/2 94/2/2
f 93/5/2 91/5/2 94/5/2
f 93/11/2 94/11/2 95/11/2
f 94/2/2 92/2/2 96/2/2
f 95/11/2 94/11/2 96/11/2
f 96/2/2 92/2/2 97/2/2
f 98/10/2 99/10/2 101/10/2
f 99/2/2 100/2/2 102/2/2
f 101/10/2 99/10/2 102/10/2
f 101/2/2 102/2/2 103/2/2
f 102/2/2 100/2/2 104/2/2
f 103/2/2 102/2/2 104/2/2
f 107/6/3 106/6/3 105/6/3
f 108/6/3 106/6/3 107/6/3
f 112/4/3 110/4/3 109/4/3
f 113/2/3 111/2/3 110/2/3
f 113/4/3 110/4/3 112/4/3
f 114/2/3 111/2/3 113/2/3
f 115/2/3 113/2/3 112/2/3
f 115/11/3 114/11/3 113/11/3
f 116/11/3 114/11/3 115/11/3
f 121/2/3 115/2/3 112/2/3
f 121/2/3 116/2/3 115/2/3
f 122/2/3 116/2/3 121/2/3
f 123/6/3 118/6/3 117/6/3
f 124/6/3 118/6/3 123/6/3
f 125/6/3 120/6/3 119/6/3
f 126/6/3 120/6/3 125/6/3
f 127/11/3 122/11/3 121/11/3
f 128/2/3 116/2/3 122/2/3
f 128/11/3 122/11/3 127/11/3
f 132/2/3 128/2/3 127/2/3
f 133/2/3 116/2/3 128/2/3
f 133/2/3 128/2/3 132/2/3
f 134/2/3 130/2/3 129/2/3
f 135/2/3 130/2/3 134/2/3
f 136/2/3 130/2/3 135/2/3
f 137/4/3 131/4/3 130/4/3
f 137/2/3 130/2/3 136/2/3
f 138/2/3 132/2/3 131/2/3
f 138/4/3 131/4/3 137/4/3
f 139/3/3 133/3/3 132/3/3
f 139/2/3 132/2/3 138/2/3
f 140/2/3 116/2/3 133/2/3
f 140/3/3 133/3/3 139/3/3
f 141/2/3 116/2/3 140/2/3
f 142/4/3 137/4/3 136/4/3
f 142/2/3 136/2/3 135/2/3
f 143/2/3 138/2/3 137/2/3
f 143/4/3 137/4/3 142/4/3
f 144/5/3 139/5/3 138/5/3
f 144/2/3 138/2/3 143/2/3
f 144/5/3 140/5/3 139/5/3
f 145/11/3 141/11/3 140/11/3
f 145/5/3 140/5/3 144/5/3
f 146/11/3 141/11/3 145/11/3
f 147/10/3 135/10/3 134/10/3
f 148/2/3 142/2/3 135/2/3
f 148/10/3 135/10/3 147/10/3
f 149/2/3 142/2/3 148/2/3
f 150/2/3 148/2/3 147/2/3
f 150/5/3 149/5/3 148/5/3
f 151/5/3 149/5/3 150/5/3
f 152/2/3 150/2/3 147/2/3
f 152/2/3 151/2/3 150/2/3
f 153/2/3 151/2/3 152/2/3
f 154/2/3 152/2/3 147/2/3
f 155/10/3 153/10/3 152/10/3
f 155/2/3 152/2/3 154/2/3
f 156/10/3 153/10/3 155/10/3
f 157/10/3 155/10/3 154/10/3
f 158/2/3 156/2/3 155/2/3
f 158/10/3 155/10/3 157/10/3
f 159/2/3 156/2/3 158/2/3
f 166/6/3 161/6/3 160/6/3
f 167/6/3 161/6/3 166/6/3
f 168/7/3 163/7/3 162/7/3
f 169/7/3 163/7/3 168/7/3
f 170/6/3 165/6/3 164/6/3
f 171/6/3 165/6/3 170/6/3
f 172/6/3 169/6/3 168/6/3
f 173/6/3 169/6/3 172/6/3
f 178/6/3 175/6/3 174/6/3
f 179/6/3 175/6/3 178/6/3
f 180/6/3 177/6/3 176/6/3
f 181/6/3 177/6/3 180/6/3
f 184/2/3 183/2/3 182/2/3
f 185/2/3 183/2/3 184/2/3
f 186/2/3 183/2/3 185/2/3
f 187/2/3 183/2/3 186/2/3
f 188/2/3 183/2/3 187/2/3
f 189/2/3 183/2/3 188/2/3
f 190/2/3 183/2/3 189/2/3
f 191/2/3 183/2/3 190/2/3
f 192/9/3 185/9/3 184/9/3
f 192/2/3 186/2/3 185/2/3
f 193/2/3 186/2/3 192/2/3
f 194/8/3 187/8/3 186/8/3
f 194/2/3 186/2/3 193/2/3
f 195/8/3 187/8/3 194/8/3
f 196/2/3 188/2/3 187/2/3
f 196/8/3 187/8/3 195/8/3
f 197/2/3 188/2/3 196/2/3
f 198/7/3 189/7/3 188/7/3
f 198/2/3 188/2/3 197/2/3
f 199/7/3 189/7/3 198/7/3
f 200/2/3 190/2/3 189/2/3
f 200/7/3 189/7/3 199/7/3
f 201/2/3 190/2/3 200/2/3
f 202/9/3 193/9/3 192/9/3
f 202/9/3 192/9/3 184/9/3
f 203/2/3 195/2/3 194/2/3
f 203/9/3 193/9/3 202/9/3
f 203/2/3 194/2/3 193/2/3
f 204/8/3 197/8/3 196/8/3
f 204/2/3 195/2/3 203/2/3
f 204/8/3 196/8/3 195/8/3
f 205/2/3 199/2/3 198/2/3
f 205/8/3 197/8/3 204/8/3
f 205/2/3 198/2/3 197/2/3
f 206/7/3 201/7/3 200/7/3
f 206/2/3 199/2/3 205/2/3
f 206/7/3 200/7/3 199/7/3
f 207/2/3 190/2/3 201/2/3
f 207/7/3 201/7/3 206/7/3
f 208/2/3 190/2/3 207/2/3
f 209/2/3 183/2/3 191/2/3
f 210/2/3 208/2/3 207/2/3
f 210/2/3 209/2/3 208/2/3
f 210/2/3 204/2/3 203/2/3
f 210/2/3 206/2/3 205/2/3
f 210/2/3 207/2/3 206/2/3
f 210/2/3 205/2/3 204/2/3
f 210/2/3 203/2/3 202/2/3
f 211/2/3 183/2/3 209/2/3
f 211/2/3 209/2/3 210/2/3
f 214/6/3 213/6/3 212/6/3
f 215/6/3 213/6/3 214/6/3
f 216/6/4 217/6/4 218/6/4
f 218/6/4 217/6/4 219/6/4
f 220/6/4 221/6/4 224/6/4
f 224/6/4 221/6/4 225/6/4
f 222/6/4 223/6/4 226/6/4
f 226/6/4 223/6/4 227/6/4
f 228/2/4 229/2/4 236/2/4
f 236/2/4 229/2/4 237/2/4
f 230/6/4 231/6/4 238/6/4
f 238/6/4 231/6/4 239/6/4
f 232/7/4 233/7/4 240/7/4
f 240/7/4 233/7/4 241/7/4
f 234/6/4 235/6/4 242/6/4
f 242/6/4 235/6/4 243/6/4
f 228/2/4 236/2/4 244/2/4
f 236/1/4 237/1/4 244/1/4
f 244/1/4 237/1/4 245/1/4
f 240/6/4 241/6/4 246/6/4
f 246/6/4 241/6/4 247/6/4
f 244/2/4 245/2/4 250/2/4
f 228/2/4 244/2/4 250/2/4
f 250/2/4 245/2/4 251/2/4
f 247/2/4 248/2/4 252/2/4
f 246/2/4 247/2/4 252/2/4
f 252/2/4 248/2/4 253/2/4
f 248/10/4 249/10/4 254/10/4
f 253/2/4 248/2/4 254/2/4
f 249/2/4 250/2/4 255/2/4
f 254/10/4 249/10/4 255/10/4
f 255/2/4 250/2/4 256/2/4
f 250/1/4 251/1/4 257/1/4
f 256/2/4 250/2/4 257/2/4
f 251/2/4 245/2/4 258/2/4
f 257/1/4 251/1/4 258/1/4
f 246/2/4 252/2/4 259/2/4
f 252/10/4 253/10/4 260/10/4
f 259/2/4 252/2/4 260/2/4
f 253/2/4 254/2/4 261/2/4
f 260/10/4 253/10/4 261/10/4
f 254/2/4 255/2/4 261/2/4
f 255/10/4 256/10/4 262/10/4
f 261/2/4 255/2/4 262/2/4
f 256/2/4 257/2/4 263/2/4
f 262/10/4 256/10/4 263/10/4
f 257/2/4 258/2/4 263/2/4
f 258/2/4 245/2/4 264/2/4
f 263/2/4 258/2/4 264/2/4
f 259/10/4 260/10/4 265/10/4
f 265/10/4 260/10/4 266/10/4
f 265/2/4 266/2/4 267/2/4
f 267/2/4 266/2/4 268/2/4
f 267/10/4 268/10/4 269/10/4
f 268/2/4 266/2/4 270/2/4
f 269/10/4 268/10/4 270/10/4
f 269/2/4 270/2/4 271/2/4
f 270/2/4 266/2/4 272/2/4
f 271/2/4 270/2/4 272/2/4
f 273/6/4 274/6/4 277/6/4
f 277/6/4 274/6/4 278/6/4
f 275/6/4 276/6/4 279/6/4
f 279/6/4 276/6/4 280/6/4
f 281/6/4 282/6/4 283/6/4
f 283/6/4 282/6/4 284/6/4
f 285/2/4 286/2/4 287/2/4
f 287/2/4 286/2/4 288/2/4
f 293/2/5 290/2/5 289/2/5
f 293/9/5 291/9/5 290/9/5
f 294/2/5 292/2/5 291/2/5
f 294/9/5 291/9/5 293/9/5
f 295/2/5 293/2/5 289/2/5
f 295/2/5 294/2/5 293/2/5
f 296/2/5 292/2/5 294/2/5
f 296/2/5 294/2/5 295/2/5
f 299/6/5 298/6/5 297/6/5
f 300/6/5 298/6/5 299/6/5
f 303/6/5 302/6/5 301/6/5
f 304/6/5 302/6/5 303/6/5
f 307/6/5 306/6/5 305/6/5
f 308/6/5 306/6/5 307/6/5
f 311/6/5 310/6/5 309/6/5
f 312/6/5 310/6/5 311/6/5
f 320/2/5 314/2/5 313/2/5
f 321/10/5 315/10/5 314/10/5
f 321/2/5 314/2/5 320/2/5
f 322/10/5 315/10/5 321/10/5
f 323/2/5 316/2/5 315/2/5
f 324/10/5 317/10/5 316/10/5
f 324/2/5 316/2/5 323/2/5
f 325/10/5 317/10/5 324/10/5
f 326/7/5 319/7/5 318/7/5
f 327/6/5 320/6/5 319/6/5
f 327/7/5 319/7/5 326/7/5
f 328/2/5 321/2/5 320/2/5
f 328/6/5 320/6/5 327/6/5
f 328/2/5 322/2/5 321/2/5
f 329/10/5 315/10/5 322/10/5
f 329/2/5 322/2/5 328/2/5
f 330/2/5 323/2/5 315/2/5
f 330/10/5 315/10/5 329/10/5
f 331/10/5 324/10/5 323/10/5
f 331/2/5 323/2/5 330/2/5
f 332/2/5 325/2/5 324/2/5
f 332/10/5 324/10/5 331/10/5
f 333/2/5 325/2/5 332/2/5
f 336/6/5 335/6/5 334/6/5
f 337/6/5 335/6/5 336/6/5
f 340/6/5 339/6/5 338/6/5
f 341/6/5 339/6/5 340/6/5
f 344/6/5 343/6/5 342/6/5
f 345/6/5 343/6/5 344/6/5
f 348/6/5 347/6/5 346/6/5
f 349/6/5 347/6/5 348/6/5
f 355/4/5 351/4/5 350/4/5
f 356/2/5 352/2/5 351/2/5
f 356/4/5 351/4/5 355/4/5
f 357/11/5 353/11/5 352/11/5
f 357/2/5 352/2/5 356/2/5
f 358/2/5 354/2/5 353/2/5
f 358/11/5 353/11/5 357/11/5
f 359/2/5 357/2/5 356/2/5
f 359/2/5 356/2/5 355/2/5
f 359/2/5 358/2/5 357/2/5
f 360/2/5 354/2/5 358/2/5
f 360/2/5 358/2/5 359/2/5
f 361/2/5 359/2/5 355/2/5
f 362/2/5 359/2/5 361/2/5
f 363/6/6 364/6/6 365/6/6
f 365/6/6 364/6/6 366/6/6
f 367/6/6 368/6/6 369/6/6
f 369/6/6 368/6/6 370/6/6
f 371/6/6 372/6/6 373/6/6
f 373/6/6 372/6/6 374/6/6
f 375/6/6 376/6/6 377/6/6
f 377/6/6 376/6/6 378/6/6
f 379/7/6 380/7/6 382/7/6
f 380/6/6 381/6/6 383/6/6
f 382/7/6 380/7/6 383/7/6
f 383/6/6 381/6/6 384/6/6
f 385/6/6 386/6/6 387/6/6
f 387/6/6 386/6/6 388/6/6
f 389/6/6 390/6/6 397/6/6
f 397/6/6 390/6/6 398/6/6
f 391/2/6 392/2/6 399/2/6
f 392/5/6 393/5/6 400/5/6
f 399/2/6 392/2/6 400/2/6
f 393/2/6 394/2/6 401/2/6
f 400/5/6 393/5/6 401/5/6
f 394/10/6 395/10/6 402/10/6
f 401/2/6 394/2/6 402/2/6
f 395/2/6 396/2/6 403/2/6
f 402/10/6 395/10/6 403/10/6
f 399/10/6 400/10/6 406/10/6
f 401/2/6 402/2/6 407/2/6
f 406/10/6 400/10/6 407/10/6
f 400/2/6 401/2/6 407/2/6
f 402/2/6 403/2/6 407/2/6
f 403/2/6 396/2/6 408/2/6
f 407/2/6 403/2/6 408/2/6
f 404/6/6 405/6/6 409/6/6
f 409/6/6 405/6/6 410/6/6
f 411/6/6 412/6/6 413/6/6
f 413/6/6 412/6/6 414/6/6
f 415/2/6 416/2/6 420/2/6
f 416/11/6 417/11/6 420/11/6
f 417/2/6 418/2/6 421/2/6
f 420/11/6 417/11/6 421/11/6
f 421/2/6 418/2/6 422/2/6
f 422/2/6 418/2/6 423/2/6
f 418/11/6 419/11/6 424/11/6
f 423/2/6 418/2/6 424/2/6
f 424/11/6 419/11/6 425/11/6
f 415/2/6 420/2/6 426/2/6
f 420/2/6 421/2/6 426/2/6
f 421/2/6 422/2/6 426/2/6
f 422/1/6 423/1/6 427/1/6
f 426/2/6 422/2/6 427/2/6
f 424/2/6 425/2/6 428/2/6
f 427/1/6 423/1/6 428/1/6
f 423/2/6 424/2/6 428/2/6
f 428/2/6 425/2/6 429/2/6
f 415/2/6 426/2/6 430/2/6
f 430/2/6 426/2/6 431/2/6
f 432/2/6 433/2/6 434/2/6
f 434/2/6 433/2/6 435/2/6
