# MagicaVoxel @ Ephtracy

# material
mtllib bibelot_2_p3.mtl
usemtl palette

# normals
vn -1 0 0
vn 1 0 0
vn 0 0 1
vn 0 0 -1
vn 0 -1 0
vn 0 1 0

# texcoords
vt 0.259766 0.5
vt 0.298828 0.5
vt 0.306641 0.5
vt 0.310547 0.5
vt 0.322266 0.5
vt 0.943359 0.5
vt 0.951172 0.5

# verts
v -8 4 7
v -8 4 5
v -8 6 7
v -8 6 5
v -8 13 7
v -8 13 5
v -8 15 7
v -8 15 5
v -6 6 7
v -6 6 6
v -6 6 5
v -6 8 7
v -6 8 6
v -6 8 5
v -6 9 7
v -6 9 6
v -6 9 5
v -6 10 7
v -6 10 6
v -6 11 7
v -6 11 6
v -6 12 7
v -6 12 6
v -6 13 7
v -6 13 6
v -6 13 5
v -3 4 5
v -3 4 4
v -3 6 5
v -3 6 4
v -1 4 4
v -1 4 3
v -1 5 4
v -1 5 3
v -1 6 4
v -1 6 3
v 1 4 3
v 1 4 2
v 1 5 3
v 1 5 2
v 1 6 3
v 1 6 2
v 2 6 4
v 2 6 3
v 2 6 2
v 2 7 4
v 2 7 3
v 2 7 2
v 3 7 4
v 3 7 3
v 3 7 2
v 3 8 4
v 3 8 2
v 5 0 4
v 5 0 2
v 5 1 4
v 5 1 3
v 5 1 2
v 5 2 4
v 5 2 3
v 5 2 2
v 5 3 4
v 5 3 3
v 5 4 4
v 5 4 3
v 5 5 4
v 5 5 3
v 5 6 4
v 5 6 3
v 5 6 2
v -5 13 7
v -5 13 5
v -5 15 7
v -5 15 5
v -4 6 7
v -4 6 6
v -4 6 5
v -4 7 6
v -4 7 5
v -4 8 7
v -4 8 6
v -4 11 7
v -4 11 6
v -4 12 7
v -4 12 6
v -4 13 7
v -4 13 5
v -3 4 7
v -3 4 6
v -3 5 7
v -3 5 6
v -3 6 7
v -3 6 6
v -1 4 6
v -1 4 5
v -1 5 5
v -1 6 6
v -1 6 5
v 1 4 5
v 1 4 4
v 1 5 4
v 1 6 5
v 1 6 4
v 3 4 4
v 3 4 3
v 3 4 2
v 3 5 4
v 3 5 3
v 3 5 2
v 4 5 4
v 4 5 2
v 4 6 4
v 4 6 3
v 4 6 2
v 6 7 4
v 6 7 2
v 6 8 4
v 6 8 2
v 7 0 4
v 7 0 3
v 7 0 2
v 7 1 4
v 7 1 3
v 7 4 4
v 7 4 3
v 7 5 4
v 7 5 3
v 7 7 4
v 7 7 2
v -8 4 7
v -8 6 7
v -8 13 7
v -8 15 7
v -7 4 7
v -7 5 7
v -7 14 7
v -7 15 7
v -6 4 7
v -6 5 7
v -6 6 7
v -6 8 7
v -6 9 7
v -6 10 7
v -6 11 7
v -6 12 7
v -6 13 7
v -6 14 7
v -6 15 7
v -5 4 7
v -5 5 7
v -5 6 7
v -5 8 7
v -5 9 7
v -5 10 7
v -5 11 7
v -5 13 7
v -5 15 7
v -4 6 7
v -4 8 7
v -4 11 7
v -4 12 7
v -4 13 7
v -3 4 7
v -3 5 7
v -3 6 7
v -3 4 6
v -3 5 6
v -3 6 6
v -2 5 6
v -2 6 6
v -1 4 6
v -1 6 6
v -1 4 5
v -1 5 5
v -1 6 5
v 0 4 5
v 0 5 5
v 1 4 5
v 1 6 5
v 1 4 4
v 1 5 4
v 1 6 4
v 2 4 4
v 2 5 4
v 2 6 4
v 2 7 4
v 3 4 4
v 3 5 4
v 3 6 4
v 3 7 4
v 3 8 4
v 4 5 4
v 4 6 4
v 4 7 4
v 4 8 4
v 5 0 4
v 5 1 4
v 5 2 4
v 5 3 4
v 5 4 4
v 5 5 4
v 5 6 4
v 5 7 4
v 5 8 4
v 6 0 4
v 6 1 4
v 6 2 4
v 6 3 4
v 6 4 4
v 6 5 4
v 6 6 4
v 6 7 4
v 6 8 4
v 7 0 4
v 7 1 4
v 7 4 4
v 7 5 4
v 7 7 4
v -8 4 5
v -8 6 5
v -8 13 5
v -8 15 5
v -7 5 5
v -7 6 5
v -7 13 5
v -7 14 5
v -6 5 5
v -6 6 5
v -6 8 5
v -6 9 5
v -6 13 5
v -6 14 5
v -5 6 5
v -5 7 5
v -5 8 5
v -5 9 5
v -5 13 5
v -5 15 5
v -4 6 5
v -4 7 5
v -4 13 5
v -3 4 5
v -3 6 5
v -3 4 4
v -3 6 4
v -1 4 4
v -1 5 4
v -1 6 4
v -1 4 3
v -1 5 3
v -1 6 3
v 0 5 3
v 0 6 3
v 1 4 3
v 1 5 3
v 1 6 3
v 1 4 2
v 1 5 2
v 1 6 2
v 2 4 2
v 2 5 2
v 2 6 2
v 2 7 2
v 3 4 2
v 3 5 2
v 3 7 2
v 3 8 2
v 4 5 2
v 4 6 2
v 4 7 2
v 5 0 2
v 5 1 2
v 5 2 2
v 5 6 2
v 5 7 2
v 6 1 2
v 6 2 2
v 6 6 2
v 6 7 2
v 6 8 2
v 7 0 2
v 7 7 2
v 5 0 4
v 6 0 4
v 7 0 4
v 6 0 3
v 7 0 3
v 5 0 2
v 7 0 2
v -8 4 7
v -7 4 7
v -6 4 7
v -5 4 7
v -3 4 7
v -7 4 6
v -6 4 6
v -5 4 6
v -3 4 6
v -1 4 6
v -8 4 5
v -3 4 5
v -1 4 5
v 0 4 5
v 1 4 5
v -3 4 4
v -1 4 4
v 0 4 4
v 1 4 4
v 2 4 4
v 3 4 4
v -1 4 3
v 1 4 3
v 2 4 3
v 3 4 3
v 1 4 2
v 2 4 2
v 3 4 2
v 3 5 4
v 4 5 4
v 3 5 3
v 3 5 2
v 4 5 2
v 4 6 4
v 5 6 4
v 4 6 3
v 5 6 3
v 4 6 2
v 5 6 2
v -8 13 7
v -6 13 7
v -7 13 6
v -6 13 6
v -8 13 5
v -7 13 5
v -6 13 5
v -8 6 7
v -6 6 7
v -4 6 7
v -3 6 7
v -7 6 6
v -6 6 6
v -4 6 6
v -3 6 6
v -2 6 6
v -1 6 6
v -8 6 5
v -7 6 5
v -6 6 5
v -4 6 5
v -3 6 5
v -2 6 5
v -1 6 5
v 1 6 5
v -3 6 4
v -1 6 4
v 0 6 4
v 1 6 4
v 2 6 4
v -1 6 3
v 0 6 3
v 1 6 3
v 2 6 3
v 1 6 2
v 2 6 2
v 2 7 4
v 3 7 4
v 6 7 4
v 7 7 4
v 2 7 3
v 3 7 3
v 2 7 2
v 3 7 2
v 6 7 2
v 7 7 2
v 3 8 4
v 4 8 4
v 5 8 4
v 6 8 4
v 4 8 3
v 5 8 3
v 3 8 2
v 6 8 2
v -5 13 7
v -4 13 7
v -5 13 5
v -4 13 5
v -8 15 7
v -7 15 7
v -6 15 7
v -5 15 7
v -7 15 6
v -6 15 6
v -8 15 5
v -5 15 5

# faces
f 3/2/1 2/2/1 1/2/1
f 4/2/1 2/2/1 3/2/1
f 7/2/1 6/2/1 5/2/1
f 8/2/1 6/2/1 7/2/1
f 12/2/1 10/2/1 9/2/1
f 12/2/1 11/2/1 10/2/1
f 13/2/1 11/2/1 12/2/1
f 14/2/1 11/2/1 13/2/1
f 15/4/1 13/4/1 12/4/1
f 16/6/1 14/6/1 13/6/1
f 16/4/1 13/4/1 15/4/1
f 17/6/1 14/6/1 16/6/1
f 18/2/1 16/2/1 15/2/1
f 18/2/1 17/2/1 16/2/1
f 19/2/1 17/2/1 18/2/1
f 20/7/1 19/7/1 18/7/1
f 21/2/1 17/2/1 19/2/1
f 21/7/1 19/7/1 20/7/1
f 22/4/1 21/4/1 20/4/1
f 23/2/1 17/2/1 21/2/1
f 23/4/1 21/4/1 22/4/1
f 24/2/1 23/2/1 22/2/1
f 25/2/1 17/2/1 23/2/1
f 25/2/1 23/2/1 24/2/1
f 26/2/1 17/2/1 25/2/1
f 29/2/1 28/2/1 27/2/1
f 30/2/1 28/2/1 29/2/1
f 33/2/1 32/2/1 31/2/1
f 34/2/1 32/2/1 33/2/1
f 35/1/1 34/1/1 33/1/1
f 36/1/1 34/1/1 35/1/1
f 39/1/1 38/1/1 37/1/1
f 40/1/1 38/1/1 39/1/1
f 41/2/1 40/2/1 39/2/1
f 42/2/1 40/2/1 41/2/1
f 46/2/1 44/2/1 43/2/1
f 47/6/1 45/6/1 44/6/1
f 47/2/1 44/2/1 46/2/1
f 48/6/1 45/6/1 47/6/1
f 52/2/1 50/2/1 49/2/1
f 52/2/1 51/2/1 50/2/1
f 53/2/1 51/2/1 52/2/1
f 56/2/1 55/2/1 54/2/1
f 57/2/1 55/2/1 56/2/1
f 58/2/1 55/2/1 57/2/1
f 59/4/1 57/4/1 56/4/1
f 60/6/1 58/6/1 57/6/1
f 60/4/1 57/4/1 59/4/1
f 61/6/1 58/6/1 60/6/1
f 62/2/1 60/2/1 59/2/1
f 62/2/1 61/2/1 60/2/1
f 63/2/1 61/2/1 62/2/1
f 64/7/1 63/7/1 62/7/1
f 65/2/1 61/2/1 63/2/1
f 65/7/1 63/7/1 64/7/1
f 66/4/1 65/4/1 64/4/1
f 67/2/1 61/2/1 65/2/1
f 67/4/1 65/4/1 66/4/1
f 68/7/1 67/7/1 66/7/1
f 69/2/1 61/2/1 67/2/1
f 69/7/1 67/7/1 68/7/1
f 70/2/1 61/2/1 69/2/1
f 71/2/2 72/2/2 73/2/2
f 73/2/2 72/2/2 74/2/2
f 75/4/2 76/4/2 78/4/2
f 76/6/2 77/6/2 78/6/2
f 78/6/2 77/6/2 79/6/2
f 75/4/2 78/4/2 80/4/2
f 78/2/2 79/2/2 81/2/2
f 80/4/2 78/4/2 81/4/2
f 80/2/2 81/2/2 82/2/2
f 81/2/2 79/2/2 83/2/2
f 82/2/2 81/2/2 83/2/2
f 82/4/2 83/4/2 84/4/2
f 83/2/2 79/2/2 85/2/2
f 84/4/2 83/4/2 85/4/2
f 84/2/2 85/2/2 86/2/2
f 85/2/2 79/2/2 87/2/2
f 86/2/2 85/2/2 87/2/2
f 88/4/2 89/4/2 90/4/2
f 90/4/2 89/4/2 91/4/2
f 90/2/2 91/2/2 92/2/2
f 92/2/2 91/2/2 93/2/2
f 94/2/2 95/2/2 96/2/2
f 94/2/2 96/2/2 97/2/2
f 97/2/2 96/2/2 98/2/2
f 99/2/2 100/2/2 101/2/2
f 99/2/2 101/2/2 102/2/2
f 102/2/2 101/2/2 103/2/2
f 104/5/2 105/5/2 107/5/2
f 105/2/2 106/2/2 108/2/2
f 107/5/2 105/5/2 108/5/2
f 108/2/2 106/2/2 109/2/2
f 110/2/2 111/2/2 112/2/2
f 112/2/2 111/2/2 113/2/2
f 113/2/2 111/2/2 114/2/2
f 115/2/2 116/2/2 117/2/2
f 117/2/2 116/2/2 118/2/2
f 119/4/2 120/4/2 122/4/2
f 120/2/2 121/2/2 123/2/2
f 122/4/2 120/4/2 123/4/2
f 122/2/2 123/2/2 124/2/2
f 123/2/2 121/2/2 125/2/2
f 124/2/2 123/2/2 125/2/2
f 124/4/2 125/4/2 126/4/2
f 125/2/2 121/2/2 127/2/2
f 126/4/2 125/4/2 127/4/2
f 126/2/2 127/2/2 128/2/2
f 127/2/2 121/2/2 129/2/2
f 128/2/2 127/2/2 129/2/2
f 134/2/3 131/2/3 130/2/3
f 135/2/3 131/2/3 134/2/3
f 136/2/3 133/2/3 132/2/3
f 137/2/3 133/2/3 136/2/3
f 138/7/3 135/7/3 134/7/3
f 139/2/3 131/2/3 135/2/3
f 139/7/3 135/7/3 138/7/3
f 140/2/3 131/2/3 139/2/3
f 146/2/3 136/2/3 132/2/3
f 147/7/3 137/7/3 136/7/3
f 147/2/3 136/2/3 146/2/3
f 148/7/3 137/7/3 147/7/3
f 149/2/3 139/2/3 138/2/3
f 149/2/3 140/2/3 139/2/3
f 149/2/3 141/2/3 140/2/3
f 150/2/3 141/2/3 149/2/3
f 151/2/3 141/2/3 150/2/3
f 152/4/3 142/4/3 141/4/3
f 152/2/3 141/2/3 151/2/3
f 153/2/3 143/2/3 142/2/3
f 153/4/3 142/4/3 152/4/3
f 154/7/3 144/7/3 143/7/3
f 154/2/3 143/2/3 153/2/3
f 155/4/3 145/4/3 144/4/3
f 155/7/3 144/7/3 154/7/3
f 156/2/3 146/2/3 145/2/3
f 156/2/3 148/2/3 147/2/3
f 156/2/3 147/2/3 146/2/3
f 157/2/3 148/2/3 156/2/3
f 158/2/3 151/2/3 150/2/3
f 158/4/3 152/4/3 151/4/3
f 159/2/3 154/2/3 153/2/3
f 159/4/3 152/4/3 158/4/3
f 159/2/3 155/2/3 154/2/3
f 159/2/3 153/2/3 152/2/3
f 160/4/3 145/4/3 155/4/3
f 160/2/3 155/2/3 159/2/3
f 161/2/3 156/2/3 145/2/3
f 161/4/3 145/4/3 160/4/3
f 162/2/3 156/2/3 161/2/3
f 163/4/3 150/4/3 149/4/3
f 164/2/3 158/2/3 150/2/3
f 164/4/3 150/4/3 163/4/3
f 165/2/3 158/2/3 164/2/3
f 169/2/3 167/2/3 166/2/3
f 169/7/3 168/7/3 167/7/3
f 170/7/3 168/7/3 169/7/3
f 171/2/3 169/2/3 166/2/3
f 171/2/3 170/2/3 169/2/3
f 172/2/3 170/2/3 171/2/3
f 176/7/3 174/7/3 173/7/3
f 177/2/3 175/2/3 174/2/3
f 177/7/3 174/7/3 176/7/3
f 178/2/3 177/2/3 176/2/3
f 179/2/3 175/2/3 177/2/3
f 179/2/3 177/2/3 178/2/3
f 183/3/3 181/3/3 180/3/3
f 184/2/3 182/2/3 181/2/3
f 184/3/3 181/3/3 183/3/3
f 185/2/3 182/2/3 184/2/3
f 187/5/3 184/5/3 183/5/3
f 188/6/3 185/6/3 184/6/3
f 188/5/3 184/5/3 187/5/3
f 189/2/3 186/2/3 185/2/3
f 189/6/3 185/6/3 188/6/3
f 190/2/3 186/2/3 189/2/3
f 192/2/3 191/2/3 190/2/3
f 192/2/3 190/2/3 189/2/3
f 192/2/3 189/2/3 188/2/3
f 193/2/3 191/2/3 192/2/3
f 194/2/3 191/2/3 193/2/3
f 195/2/3 191/2/3 194/2/3
f 202/2/3 194/2/3 193/2/3
f 203/6/3 195/6/3 194/6/3
f 203/2/3 194/2/3 202/2/3
f 204/6/3 195/6/3 203/6/3
f 205/2/3 197/2/3 196/2/3
f 206/4/3 198/4/3 197/4/3
f 206/2/3 197/2/3 205/2/3
f 207/2/3 199/2/3 198/2/3
f 207/4/3 198/4/3 206/4/3
f 208/7/3 200/7/3 199/7/3
f 208/2/3 199/2/3 207/2/3
f 209/4/3 201/4/3 200/4/3
f 209/7/3 200/7/3 208/7/3
f 210/7/3 202/7/3 201/7/3
f 210/4/3 201/4/3 209/4/3
f 211/2/3 203/2/3 202/2/3
f 211/7/3 202/7/3 210/7/3
f 211/2/3 204/2/3 203/2/3
f 212/2/3 204/2/3 211/2/3
f 213/2/3 204/2/3 212/2/3
f 214/4/3 206/4/3 205/4/3
f 215/2/3 208/2/3 207/2/3
f 215/4/3 206/4/3 214/4/3
f 215/2/3 209/2/3 208/2/3
f 215/2/3 207/2/3 206/2/3
f 216/4/3 210/4/3 209/4/3
f 216/2/3 209/2/3 215/2/3
f 217/2/3 212/2/3 211/2/3
f 217/4/3 210/4/3 216/4/3
f 217/2/3 211/2/3 210/2/3
f 218/2/3 212/2/3 217/2/3
f 219/2/4 220/2/4 223/2/4
f 223/2/4 220/2/4 224/2/4
f 221/2/4 222/2/4 225/2/4
f 225/2/4 222/2/4 226/2/4
f 223/1/4 224/1/4 227/1/4
f 219/2/4 223/2/4 227/2/4
f 227/1/4 224/1/4 228/1/4
f 225/1/4 226/1/4 231/1/4
f 226/2/4 222/2/4 232/2/4
f 231/1/4 226/1/4 232/1/4
f 227/2/4 228/2/4 233/2/4
f 228/2/4 229/2/4 233/2/4
f 233/2/4 229/2/4 234/2/4
f 229/6/4 230/6/4 235/6/4
f 234/2/4 229/2/4 235/2/4
f 230/2/4 231/2/4 236/2/4
f 235/6/4 230/6/4 236/6/4
f 231/2/4 232/2/4 236/2/4
f 236/2/4 232/2/4 237/2/4
f 232/2/4 222/2/4 238/2/4
f 237/2/4 232/2/4 238/2/4
f 233/6/4 234/6/4 239/6/4
f 227/2/4 233/2/4 239/2/4
f 234/2/4 235/2/4 240/2/4
f 239/6/4 234/6/4 240/6/4
f 236/2/4 237/2/4 240/2/4
f 235/2/4 236/2/4 240/2/4
f 240/2/4 237/2/4 241/2/4
f 227/2/4 239/2/4 242/2/4
f 219/2/4 227/2/4 242/2/4
f 242/2/4 239/2/4 243/2/4
f 244/2/4 245/2/4 246/2/4
f 246/2/4 245/2/4 247/2/4
f 247/2/4 245/2/4 248/2/4
f 249/2/4 250/2/4 252/2/4
f 250/1/4 251/1/4 252/1/4
f 252/1/4 251/1/4 253/1/4
f 249/2/4 252/2/4 254/2/4
f 252/2/4 253/2/4 254/2/4
f 254/2/4 253/2/4 255/2/4
f 255/2/4 253/2/4 256/2/4
f 257/1/4 258/1/4 260/1/4
f 258/2/4 259/2/4 261/2/4
f 260/1/4 258/1/4 261/1/4
f 261/2/4 259/2/4 262/2/4
f 260/2/4 261/2/4 264/2/4
f 262/6/4 263/6/4 265/6/4
f 264/2/4 261/2/4 265/2/4
f 261/6/4 262/6/4 265/6/4
f 265/6/4 263/6/4 266/6/4
f 266/2/4 267/2/4 268/2/4
f 265/2/4 266/2/4 268/2/4
f 268/2/4 267/2/4 269/2/4
f 269/2/4 267/2/4 270/2/4
f 269/6/4 270/6/4 274/6/4
f 270/2/4 267/2/4 275/2/4
f 274/6/4 270/6/4 275/6/4
f 272/6/4 273/6/4 276/6/4
f 271/2/4 272/2/4 276/2/4
f 273/2/4 274/2/4 277/2/4
f 276/6/4 273/6/4 277/6/4
f 274/1/4 275/1/4 278/1/4
f 277/2/4 274/2/4 278/2/4
f 275/2/4 267/2/4 279/2/4
f 278/1/4 275/1/4 279/1/4
f 279/2/4 267/2/4 280/2/4
f 271/2/4 276/2/4 281/2/4
f 277/2/4 278/2/4 281/2/4
f 278/2/4 279/2/4 281/2/4
f 276/2/4 277/2/4 281/2/4
f 281/2/4 279/2/4 282/2/4
f 286/2/5 284/2/5 283/2/5
f 286/4/5 285/4/5 284/4/5
f 287/4/5 285/4/5 286/4/5
f 288/2/5 286/2/5 283/2/5
f 288/2/5 287/2/5 286/2/5
f 289/2/5 287/2/5 288/2/5
f 295/2/5 291/2/5 290/2/5
f 295/7/5 292/7/5 291/7/5
f 296/2/5 293/2/5 292/2/5
f 296/7/5 292/7/5 295/7/5
f 297/4/5 294/4/5 293/4/5
f 297/2/5 293/2/5 296/2/5
f 298/4/5 294/4/5 297/4/5
f 300/2/5 296/2/5 295/2/5
f 300/2/5 299/2/5 298/2/5
f 300/2/5 298/2/5 297/2/5
f 300/2/5 297/2/5 296/2/5
f 300/2/5 295/2/5 290/2/5
f 301/2/5 299/2/5 300/2/5
f 302/2/5 299/2/5 301/2/5
f 305/2/5 302/2/5 301/2/5
f 306/7/5 303/7/5 302/7/5
f 306/2/5 302/2/5 305/2/5
f 307/2/5 304/2/5 303/2/5
f 307/7/5 303/7/5 306/7/5
f 308/2/5 304/2/5 307/2/5
f 311/2/5 307/2/5 306/2/5
f 311/2/5 308/2/5 307/2/5
f 312/3/5 309/3/5 308/3/5
f 312/2/5 308/2/5 311/2/5
f 313/5/5 310/5/5 309/5/5
f 313/3/5 309/3/5 312/3/5
f 314/5/5 310/5/5 313/5/5
f 315/1/5 313/1/5 312/1/5
f 316/2/5 314/2/5 313/2/5
f 316/1/5 313/1/5 315/1/5
f 317/2/5 314/2/5 316/2/5
f 320/2/5 319/2/5 318/2/5
f 321/2/5 319/2/5 320/2/5
f 322/2/5 319/2/5 321/2/5
f 325/2/5 324/2/5 323/2/5
f 326/2/5 324/2/5 325/2/5
f 327/6/5 326/6/5 325/6/5
f 328/6/5 326/6/5 327/6/5
f 331/2/5 330/2/5 329/2/5
f 332/2/5 330/2/5 331/2/5
f 333/2/5 331/2/5 329/2/5
f 334/1/5 332/1/5 331/1/5
f 334/2/5 331/2/5 333/2/5
f 335/1/5 332/1/5 334/1/5
f 336/2/6 337/2/6 340/2/6
f 340/2/6 337/2/6 341/2/6
f 338/2/6 339/2/6 342/2/6
f 342/2/6 339/2/6 343/2/6
f 336/2/6 340/2/6 346/2/6
f 340/1/6 341/1/6 347/1/6
f 346/2/6 340/2/6 347/2/6
f 347/1/6 341/1/6 348/1/6
f 342/2/6 343/2/6 349/2/6
f 343/7/6 344/7/6 350/7/6
f 349/2/6 343/2/6 350/2/6
f 344/2/6 345/2/6 351/2/6
f 350/7/6 344/7/6 351/7/6
f 351/2/6 345/2/6 352/2/6
f 352/2/6 353/2/6 354/2/6
f 351/2/6 352/2/6 354/2/6
f 350/2/6 351/2/6 354/2/6
f 354/2/6 353/2/6 355/2/6
f 355/2/6 353/2/6 356/2/6
f 356/2/6 353/2/6 357/2/6
f 355/1/6 356/1/6 359/1/6
f 357/2/6 358/2/6 360/2/6
f 359/1/6 356/1/6 360/1/6
f 356/2/6 357/2/6 360/2/6
f 360/2/6 358/2/6 361/2/6
f 361/2/6 358/2/6 362/2/6
f 361/2/6 362/2/6 363/2/6
f 363/2/6 362/2/6 364/2/6
f 365/2/6 366/2/6 369/2/6
f 369/2/6 366/2/6 370/2/6
f 369/6/6 370/6/6 371/6/6
f 371/6/6 370/6/6 372/6/6
f 367/2/6 368/2/6 373/2/6
f 373/2/6 368/2/6 374/2/6
f 375/2/6 376/2/6 379/2/6
f 376/6/6 377/6/6 379/6/6
f 377/2/6 378/2/6 380/2/6
f 379/6/6 377/6/6 380/6/6
f 375/2/6 379/2/6 381/2/6
f 379/2/6 380/2/6 381/2/6
f 380/2/6 378/2/6 382/2/6
f 381/2/6 380/2/6 382/2/6
f 383/2/6 384/2/6 385/2/6
f 385/2/6 384/2/6 386/2/6
f 387/2/6 388/2/6 391/2/6
f 388/7/6 389/7/6 391/7/6
f 389/2/6 390/2/6 392/2/6
f 391/7/6 389/7/6 392/7/6
f 387/2/6 391/2/6 393/2/6
f 391/2/6 392/2/6 393/2/6
f 392/2/6 390/2/6 394/2/6
f 393/2/6 392/2/6 394/2/6
