# MagicaVoxel @ Ephtracy

# material
mtllib floor_green_2.mtl
usemtl palette

# normals
vn -1 0 0
vn 1 0 0
vn 0 0 1
vn 0 0 -1
vn 0 -1 0
vn 0 1 0

# texcoords
vt 0.224609 0.5
vt 0.271484 0.5
vt 0.283203 0.5
vt 0.294922 0.5
vt 0.302734 0.5
vt 0.310547 0.5
vt 0.318359 0.5
vt 0.326172 0.5

# verts
v -8 0 8
v -8 0 -3
v -8 0 -4
v -8 0 -7
v -8 0 -8
v -8 1 8
v -8 1 -3
v -8 1 -4
v -8 1 -7
v -8 1 -8
v 8 0 8
v 8 0 2
v 8 0 -0
v 8 0 -2
v 8 0 -5
v 8 0 -8
v 8 1 8
v 8 1 2
v 8 1 -0
v 8 1 -2
v 8 1 -5
v 8 1 -8
v -8 0 8
v -8 1 8
v -5 0 8
v -5 1 8
v -4 0 8
v -4 1 8
v -3 0 8
v -3 1 8
v 1 0 8
v 1 1 8
v 8 0 8
v 8 1 8
v -8 0 -8
v -8 1 -8
v -3 0 -8
v -3 1 -8
v -2 0 -8
v -2 1 -8
v 2 0 -8
v 2 1 -8
v 3 0 -8
v 3 1 -8
v 6 0 -8
v 6 1 -8
v 8 0 -8
v 8 1 -8
v -8 0 8
v -5 0 8
v -4 0 8
v -3 0 8
v 1 0 8
v 8 0 8
v -7 0 7
v -6 0 7
v -5 0 7
v -4 0 7
v -3 0 7
v 0 0 7
v 1 0 7
v 2 0 7
v 5 0 7
v 6 0 7
v -7 0 6
v -6 0 6
v -4 0 6
v -3 0 6
v 0 0 6
v 1 0 6
v 2 0 6
v 3 0 6
v 5 0 6
v 6 0 6
v 7 0 6
v -6 0 5
v -4 0 5
v -2 0 5
v 0 0 5
v 2 0 5
v 3 0 5
v 4 0 5
v -7 0 4
v -6 0 4
v -5 0 4
v -4 0 4
v -3 0 4
v -2 0 4
v -1 0 4
v 0 0 4
v 2 0 4
v 6 0 4
v 7 0 4
v -5 0 3
v -4 0 3
v -3 0 3
v -2 0 3
v -1 0 3
v 0 0 3
v 1 0 3
v 3 0 3
v 4 0 3
v 5 0 3
v 6 0 3
v 7 0 3
v -7 0 2
v -6 0 2
v -5 0 2
v -4 0 2
v -3 0 2
v -2 0 2
v -1 0 2
v 4 0 2
v 5 0 2
v 7 0 2
v 8 0 2
v -6 0 1
v -5 0 1
v -4 0 1
v -3 0 1
v -2 0 1
v -1 0 1
v 0 0 1
v 2 0 1
v 3 0 1
v 4 0 1
v 6 0 1
v 7 0 1
v -7 0 -0
v -6 0 -0
v -5 0 -0
v -4 0 -0
v -2 0 -0
v -1 0 -0
v 3 0 -0
v 4 0 -0
v 5 0 -0
v 6 0 -0
v 7 0 -0
v 8 0 -0
v -5 0 -1
v -4 0 -1
v 0 0 -1
v 1 0 -1
v 2 0 -1
v 3 0 -1
v 4 0 -1
v 5 0 -1
v 6 0 -1
v 7 0 -1
v -4 0 -2
v -3 0 -2
v -2 0 -2
v 1 0 -2
v 2 0 -2
v 3 0 -2
v 4 0 -2
v 5 0 -2
v 6 0 -2
v 7 0 -2
v 8 0 -2
v -8 0 -3
v -7 0 -3
v -6 0 -3
v -5 0 -3
v -3 0 -3
v -2 0 -3
v -1 0 -3
v 2 0 -3
v 3 0 -3
v 4 0 -3
v 5 0 -3
v 6 0 -3
v 7 0 -3
v -8 0 -4
v -7 0 -4
v -6 0 -4
v -5 0 -4
v -4 0 -4
v -2 0 -4
v -1 0 -4
v 1 0 -4
v 2 0 -4
v 3 0 -4
v 4 0 -4
v 5 0 -4
v 6 0 -4
v 7 0 -4
v -6 0 -5
v -5 0 -5
v -4 0 -5
v -3 0 -5
v 1 0 -5
v 2 0 -5
v 3 0 -5
v 4 0 -5
v 5 0 -5
v 6 0 -5
v 7 0 -5
v 8 0 -5
v -4 0 -6
v -3 0 -6
v -2 0 -6
v -1 0 -6
v 0 0 -6
v 1 0 -6
v 2 0 -6
v 3 0 -6
v 4 0 -6
v 5 0 -6
v 6 0 -6
v -8 0 -7
v -4 0 -7
v -3 0 -7
v -2 0 -7
v 0 0 -7
v 1 0 -7
v 2 0 -7
v 3 0 -7
v 4 0 -7
v 6 0 -7
v 7 0 -7
v -8 0 -8
v -3 0 -8
v -2 0 -8
v 2 0 -8
v 3 0 -8
v 6 0 -8
v 8 0 -8
v -8 1 8
v -5 1 8
v -4 1 8
v -3 1 8
v 1 1 8
v 8 1 8
v -7 1 7
v -6 1 7
v -5 1 7
v -4 1 7
v -3 1 7
v 0 1 7
v 1 1 7
v 2 1 7
v 5 1 7
v 6 1 7
v -7 1 6
v -6 1 6
v -4 1 6
v -3 1 6
v 0 1 6
v 1 1 6
v 2 1 6
v 3 1 6
v 5 1 6
v 6 1 6
v 7 1 6
v -6 1 5
v -4 1 5
v -2 1 5
v 0 1 5
v 2 1 5
v 3 1 5
v 4 1 5
v -7 1 4
v -6 1 4
v -5 1 4
v -4 1 4
v -3 1 4
v -2 1 4
v -1 1 4
v 0 1 4
v 2 1 4
v 6 1 4
v 7 1 4
v -5 1 3
v -4 1 3
v -3 1 3
v -2 1 3
v -1 1 3
v 0 1 3
v 1 1 3
v 3 1 3
v 4 1 3
v 5 1 3
v 6 1 3
v 7 1 3
v -7 1 2
v -6 1 2
v -5 1 2
v -4 1 2
v -3 1 2
v -2 1 2
v -1 1 2
v 4 1 2
v 5 1 2
v 7 1 2
v 8 1 2
v -6 1 1
v -5 1 1
v -4 1 1
v -3 1 1
v -2 1 1
v -1 1 1
v 0 1 1
v 2 1 1
v 3 1 1
v 4 1 1
v 6 1 1
v 7 1 1
v -7 1 -0
v -6 1 -0
v -5 1 -0
v -4 1 -0
v -2 1 -0
v -1 1 -0
v 3 1 -0
v 4 1 -0
v 5 1 -0
v 6 1 -0
v 7 1 -0
v 8 1 -0
v -5 1 -1
v -4 1 -1
v 0 1 -1
v 1 1 -1
v 2 1 -1
v 3 1 -1
v 4 1 -1
v 5 1 -1
v 6 1 -1
v 7 1 -1
v -4 1 -2
v -3 1 -2
v -2 1 -2
v 1 1 -2
v 2 1 -2
v 3 1 -2
v 4 1 -2
v 5 1 -2
v 6 1 -2
v 7 1 -2
v 8 1 -2
v -8 1 -3
v -7 1 -3
v -6 1 -3
v -5 1 -3
v -3 1 -3
v -2 1 -3
v -1 1 -3
v 2 1 -3
v 3 1 -3
v 4 1 -3
v 5 1 -3
v 6 1 -3
v 7 1 -3
v -8 1 -4
v -7 1 -4
v -6 1 -4
v -5 1 -4
v -4 1 -4
v -2 1 -4
v -1 1 -4
v 1 1 -4
v 2 1 -4
v 3 1 -4
v 4 1 -4
v 5 1 -4
v 6 1 -4
v 7 1 -4
v -6 1 -5
v -5 1 -5
v -4 1 -5
v -3 1 -5
v 1 1 -5
v 2 1 -5
v 3 1 -5
v 4 1 -5
v 5 1 -5
v 6 1 -5
v 7 1 -5
v 8 1 -5
v -4 1 -6
v -3 1 -6
v -2 1 -6
v -1 1 -6
v 0 1 -6
v 1 1 -6
v 2 1 -6
v 3 1 -6
v 4 1 -6
v 5 1 -6
v 6 1 -6
v -8 1 -7
v -4 1 -7
v -3 1 -7
v -2 1 -7
v 0 1 -7
v 1 1 -7
v 2 1 -7
v 3 1 -7
v 4 1 -7
v 6 1 -7
v 7 1 -7
v -8 1 -8
v -3 1 -8
v -2 1 -8
v 2 1 -8
v 3 1 -8
v 6 1 -8
v 8 1 -8

# faces
f 6/4/1 2/4/1 1/4/1
f 7/1/1 3/1/1 2/1/1
f 7/4/1 2/4/1 6/4/1
f 8/4/1 4/4/1 3/4/1
f 8/1/1 3/1/1 7/1/1
f 9/1/1 5/1/1 4/1/1
f 9/4/1 4/4/1 8/4/1
f 10/1/1 5/1/1 9/1/1
f 11/4/2 12/4/2 17/4/2
f 12/5/2 13/5/2 18/5/2
f 17/4/2 12/4/2 18/4/2
f 13/1/2 14/1/2 19/1/2
f 18/5/2 13/5/2 19/5/2
f 14/4/2 15/4/2 20/4/2
f 19/1/2 14/1/2 20/1/2
f 15/1/2 16/1/2 21/1/2
f 20/4/2 15/4/2 21/4/2
f 21/1/2 16/1/2 22/1/2
f 25/4/3 24/4/3 23/4/3
f 26/4/3 24/4/3 25/4/3
f 27/1/3 26/1/3 25/1/3
f 28/1/3 26/1/3 27/1/3
f 29/4/3 28/4/3 27/4/3
f 30/4/3 28/4/3 29/4/3
f 31/2/3 30/2/3 29/2/3
f 32/2/3 30/2/3 31/2/3
f 33/4/3 32/4/3 31/4/3
f 34/4/3 32/4/3 33/4/3
f 35/1/4 36/1/4 37/1/4
f 37/1/4 36/1/4 38/1/4
f 37/5/4 38/5/4 39/5/4
f 39/5/4 38/5/4 40/5/4
f 39/4/4 40/4/4 41/4/4
f 41/4/4 40/4/4 42/4/4
f 41/5/4 42/5/4 43/5/4
f 43/5/4 42/5/4 44/5/4
f 43/4/4 44/4/4 45/4/4
f 45/4/4 44/4/4 46/4/4
f 45/1/4 46/1/4 47/1/4
f 47/1/4 46/1/4 48/1/4
f 55/4/5 50/4/5 49/4/5
f 56/4/5 50/4/5 55/4/5
f 57/1/5 51/1/5 50/1/5
f 57/4/5 50/4/5 56/4/5
f 58/4/5 52/4/5 51/4/5
f 58/1/5 51/1/5 57/1/5
f 59/2/5 53/2/5 52/2/5
f 59/4/5 52/4/5 58/4/5
f 60/2/5 53/2/5 59/2/5
f 61/4/5 54/4/5 53/4/5
f 61/2/5 53/2/5 60/2/5
f 62/4/5 54/4/5 61/4/5
f 63/4/5 54/4/5 62/4/5
f 64/4/5 54/4/5 63/4/5
f 65/1/5 56/1/5 55/1/5
f 65/4/5 55/4/5 49/4/5
f 66/4/5 57/4/5 56/4/5
f 66/1/5 56/1/5 65/1/5
f 66/4/5 58/4/5 57/4/5
f 67/2/5 59/2/5 58/2/5
f 67/4/5 58/4/5 66/4/5
f 68/4/5 60/4/5 59/4/5
f 68/2/5 59/2/5 67/2/5
f 69/5/5 61/5/5 60/5/5
f 69/4/5 60/4/5 68/4/5
f 70/2/5 62/2/5 61/2/5
f 70/5/5 61/5/5 69/5/5
f 71/4/5 63/4/5 62/4/5
f 71/2/5 62/2/5 70/2/5
f 72/4/5 63/4/5 71/4/5
f 73/1/5 64/1/5 63/1/5
f 73/4/5 63/4/5 72/4/5
f 74/4/5 54/4/5 64/4/5
f 74/1/5 64/1/5 73/1/5
f 75/4/5 54/4/5 74/4/5
f 76/4/5 67/4/5 66/4/5
f 76/4/5 66/4/5 65/4/5
f 77/5/5 70/5/5 69/5/5
f 77/4/5 67/4/5 76/4/5
f 77/5/5 72/5/5 71/5/5
f 77/5/5 68/5/5 67/5/5
f 77/5/5 71/5/5 70/5/5
f 77/5/5 69/5/5 68/5/5
f 78/5/5 72/5/5 77/5/5
f 79/5/5 72/5/5 78/5/5
f 80/5/5 72/5/5 79/5/5
f 81/4/5 73/4/5 72/4/5
f 81/5/5 72/5/5 80/5/5
f 81/4/5 74/4/5 73/4/5
f 82/4/5 74/4/5 81/4/5
f 83/4/5 65/4/5 49/4/5
f 83/4/5 76/4/5 65/4/5
f 84/5/5 77/5/5 76/5/5
f 84/4/5 76/4/5 83/4/5
f 85/5/5 77/5/5 84/5/5
f 86/6/5 78/6/5 77/6/5
f 86/5/5 77/5/5 85/5/5
f 87/6/5 78/6/5 86/6/5
f 88/7/5 79/7/5 78/7/5
f 88/6/5 78/6/5 87/6/5
f 89/7/5 79/7/5 88/7/5
f 90/2/5 80/2/5 79/2/5
f 90/7/5 79/7/5 89/7/5
f 91/5/5 81/5/5 80/5/5
f 91/2/5 80/2/5 90/2/5
f 92/4/5 74/4/5 82/4/5
f 92/1/5 75/1/5 74/1/5
f 93/4/5 54/4/5 75/4/5
f 93/1/5 75/1/5 92/1/5
f 94/6/5 87/6/5 86/6/5
f 94/1/5 85/1/5 84/1/5
f 94/6/5 86/6/5 85/6/5
f 95/6/5 87/6/5 94/6/5
f 96/7/5 89/7/5 88/7/5
f 96/6/5 87/6/5 95/6/5
f 96/7/5 88/7/5 87/7/5
f 97/7/5 89/7/5 96/7/5
f 98/8/5 90/8/5 89/8/5
f 98/7/5 89/7/5 97/7/5
f 99/7/5 91/7/5 90/7/5
f 99/8/5 90/8/5 98/8/5
f 100/7/5 91/7/5 99/7/5
f 101/5/5 81/5/5 91/5/5
f 101/3/5 82/3/5 81/3/5
f 102/4/5 92/4/5 82/4/5
f 102/3/5 82/3/5 101/3/5
f 103/4/5 92/4/5 102/4/5
f 104/3/5 93/3/5 92/3/5
f 104/4/5 92/4/5 103/4/5
f 105/4/5 54/4/5 93/4/5
f 105/3/5 93/3/5 104/3/5
f 106/4/5 83/4/5 49/4/5
f 106/5/5 84/5/5 83/5/5
f 107/1/5 95/1/5 94/1/5
f 107/5/5 84/5/5 106/5/5
f 107/1/5 94/1/5 84/1/5
f 108/1/5 95/1/5 107/1/5
f 109/6/5 97/6/5 96/6/5
f 109/1/5 95/1/5 108/1/5
f 109/6/5 96/6/5 95/6/5
f 110/6/5 97/6/5 109/6/5
f 111/8/5 100/8/5 99/8/5
f 111/6/5 97/6/5 110/6/5
f 111/8/5 98/8/5 97/8/5
f 111/8/5 99/8/5 98/8/5
f 112/8/5 100/8/5 111/8/5
f 113/3/5 103/3/5 102/3/5
f 113/5/5 102/5/5 101/5/5
f 114/4/5 104/4/5 103/4/5
f 114/3/5 103/3/5 113/3/5
f 115/4/5 54/4/5 105/4/5
f 115/5/5 105/5/5 104/5/5
f 116/4/5 54/4/5 115/4/5
f 117/1/5 108/1/5 107/1/5
f 117/4/5 107/4/5 106/4/5
f 118/6/5 110/6/5 109/6/5
f 118/1/5 108/1/5 117/1/5
f 118/6/5 109/6/5 108/6/5
f 119/6/5 110/6/5 118/6/5
f 120/7/5 111/7/5 110/7/5
f 120/6/5 110/6/5 119/6/5
f 121/1/5 112/1/5 111/1/5
f 121/7/5 111/7/5 120/7/5
f 122/8/5 100/8/5 112/8/5
f 122/1/5 112/1/5 121/1/5
f 123/8/5 100/8/5 122/8/5
f 124/5/5 101/5/5 91/5/5
f 124/7/5 91/7/5 100/7/5
f 124/5/5 113/5/5 101/5/5
f 124/5/5 114/5/5 113/5/5
f 125/5/5 114/5/5 124/5/5
f 126/5/5 114/5/5 125/5/5
f 127/5/5 115/5/5 104/5/5
f 127/4/5 104/4/5 114/4/5
f 127/5/5 116/5/5 115/5/5
f 128/5/5 116/5/5 127/5/5
f 129/4/5 106/4/5 49/4/5
f 129/4/5 117/4/5 106/4/5
f 130/6/5 118/6/5 117/6/5
f 130/4/5 117/4/5 129/4/5
f 130/6/5 119/6/5 118/6/5
f 131/6/5 119/6/5 130/6/5
f 132/7/5 121/7/5 120/7/5
f 132/6/5 119/6/5 131/6/5
f 132/7/5 120/7/5 119/7/5
f 133/8/5 122/8/5 121/8/5
f 133/7/5 121/7/5 132/7/5
f 134/7/5 123/7/5 122/7/5
f 134/8/5 122/8/5 133/8/5
f 135/3/5 126/3/5 125/3/5
f 135/7/5 125/7/5 124/7/5
f 136/5/5 114/5/5 126/5/5
f 136/3/5 126/3/5 135/3/5
f 137/4/5 127/4/5 114/4/5
f 137/5/5 114/5/5 136/5/5
f 138/1/5 128/1/5 127/1/5
f 138/4/5 127/4/5 137/4/5
f 139/5/5 116/5/5 128/5/5
f 139/1/5 128/1/5 138/1/5
f 140/5/5 116/5/5 139/5/5
f 141/1/5 132/1/5 131/1/5
f 141/6/5 131/6/5 130/6/5
f 142/7/5 133/7/5 132/7/5
f 142/1/5 132/1/5 141/1/5
f 142/7/5 134/7/5 133/7/5
f 143/8/5 100/8/5 123/8/5
f 143/7/5 134/7/5 142/7/5
f 143/7/5 123/7/5 134/7/5
f 144/7/5 135/7/5 124/7/5
f 144/8/5 100/8/5 143/8/5
f 144/7/5 124/7/5 100/7/5
f 145/7/5 135/7/5 144/7/5
f 146/6/5 136/6/5 135/6/5
f 146/7/5 135/7/5 145/7/5
f 147/5/5 138/5/5 137/5/5
f 147/6/5 136/6/5 146/6/5
f 147/5/5 137/5/5 136/5/5
f 148/5/5 138/5/5 147/5/5
f 149/3/5 139/3/5 138/3/5
f 149/5/5 138/5/5 148/5/5
f 150/1/5 140/1/5 139/1/5
f 150/3/5 139/3/5 149/3/5
f 151/7/5 142/7/5 141/7/5
f 151/7/5 144/7/5 143/7/5
f 151/7/5 143/7/5 142/7/5
f 151/7/5 145/7/5 144/7/5
f 152/7/5 145/7/5 151/7/5
f 153/7/5 145/7/5 152/7/5
f 154/7/5 145/7/5 153/7/5
f 155/6/5 146/6/5 145/6/5
f 155/7/5 145/7/5 154/7/5
f 155/6/5 147/6/5 146/6/5
f 155/6/5 148/6/5 147/6/5
f 156/6/5 148/6/5 155/6/5
f 157/6/5 148/6/5 156/6/5
f 158/1/5 149/1/5 148/1/5
f 158/6/5 148/6/5 157/6/5
f 159/4/5 150/4/5 149/4/5
f 159/1/5 149/1/5 158/1/5
f 160/1/5 140/1/5 150/1/5
f 160/4/5 150/4/5 159/4/5
f 161/1/5 140/1/5 160/1/5
f 162/4/5 129/4/5 49/4/5
f 163/5/5 130/5/5 129/5/5
f 163/4/5 129/4/5 162/4/5
f 164/6/5 141/6/5 130/6/5
f 164/5/5 130/5/5 163/5/5
f 165/7/5 151/7/5 141/7/5
f 165/6/5 141/6/5 164/6/5
f 166/1/5 153/1/5 152/1/5
f 166/6/5 152/6/5 151/6/5
f 167/7/5 154/7/5 153/7/5
f 167/1/5 153/1/5 166/1/5
f 168/7/5 154/7/5 167/7/5
f 169/6/5 155/6/5 154/6/5
f 169/6/5 156/6/5 155/6/5
f 170/1/5 157/1/5 156/1/5
f 170/6/5 156/6/5 169/6/5
f 171/5/5 158/5/5 157/5/5
f 171/1/5 157/1/5 170/1/5
f 172/3/5 159/3/5 158/3/5
f 172/5/5 158/5/5 171/5/5
f 173/4/5 160/4/5 159/4/5
f 173/3/5 159/3/5 172/3/5
f 173/4/5 161/4/5 160/4/5
f 174/4/5 161/4/5 173/4/5
f 175/1/5 163/1/5 162/1/5
f 176/5/5 165/5/5 164/5/5
f 176/1/5 163/1/5 175/1/5
f 176/5/5 164/5/5 163/5/5
f 177/5/5 165/5/5 176/5/5
f 178/7/5 151/7/5 165/7/5
f 178/5/5 165/5/5 177/5/5
f 179/6/5 166/6/5 151/6/5
f 179/7/5 151/7/5 178/7/5
f 179/6/5 168/6/5 167/6/5
f 179/6/5 167/6/5 166/6/5
f 180/6/5 168/6/5 179/6/5
f 181/7/5 154/7/5 168/7/5
f 181/6/5 168/6/5 180/6/5
f 182/6/5 169/6/5 154/6/5
f 182/7/5 154/7/5 181/7/5
f 183/1/5 170/1/5 169/1/5
f 183/6/5 169/6/5 182/6/5
f 184/5/5 171/5/5 170/5/5
f 184/1/5 170/1/5 183/1/5
f 185/3/5 172/3/5 171/3/5
f 185/5/5 171/5/5 184/5/5
f 186/5/5 173/5/5 172/5/5
f 186/3/5 172/3/5 185/3/5
f 187/1/5 174/1/5 173/1/5
f 187/5/5 173/5/5 186/5/5
f 188/4/5 161/4/5 174/4/5
f 188/1/5 174/1/5 187/1/5
f 189/5/5 178/5/5 177/5/5
f 189/4/5 177/4/5 176/4/5
f 189/4/5 176/4/5 175/4/5
f 190/1/5 179/1/5 178/1/5
f 190/5/5 178/5/5 189/5/5
f 191/6/5 180/6/5 179/6/5
f 191/1/5 179/1/5 190/1/5
f 192/6/5 180/6/5 191/6/5
f 193/6/5 183/6/5 182/6/5
f 193/6/5 182/6/5 181/6/5
f 193/6/5 184/6/5 183/6/5
f 194/6/5 184/6/5 193/6/5
f 195/5/5 187/5/5 186/5/5
f 195/6/5 184/6/5 194/6/5
f 195/5/5 186/5/5 185/5/5
f 195/5/5 185/5/5 184/5/5
f 196/5/5 187/5/5 195/5/5
f 197/5/5 187/5/5 196/5/5
f 198/4/5 188/4/5 187/4/5
f 198/5/5 187/5/5 197/5/5
f 199/4/5 161/4/5 188/4/5
f 199/4/5 188/4/5 198/4/5
f 200/4/5 161/4/5 199/4/5
f 201/1/5 192/1/5 191/1/5
f 201/4/5 190/4/5 189/4/5
f 201/4/5 191/4/5 190/4/5
f 202/6/5 180/6/5 192/6/5
f 202/1/5 192/1/5 201/1/5
f 203/1/5 181/1/5 180/1/5
f 203/6/5 180/6/5 202/6/5
f 204/6/5 193/6/5 181/6/5
f 204/1/5 181/1/5 203/1/5
f 205/6/5 193/6/5 204/6/5
f 206/1/5 194/1/5 193/1/5
f 206/6/5 193/6/5 205/6/5
f 207/6/5 195/6/5 194/6/5
f 207/1/5 194/1/5 206/1/5
f 207/6/5 196/6/5 195/6/5
f 208/6/5 196/6/5 207/6/5
f 209/5/5 197/5/5 196/5/5
f 209/6/5 196/6/5 208/6/5
f 210/1/5 198/1/5 197/1/5
f 210/5/5 197/5/5 209/5/5
f 211/4/5 199/4/5 198/4/5
f 211/1/5 198/1/5 210/1/5
f 212/4/5 201/4/5 189/4/5
f 212/4/5 189/4/5 175/4/5
f 213/5/5 202/5/5 201/5/5
f 213/4/5 201/4/5 212/4/5
f 213/5/5 203/5/5 202/5/5
f 214/5/5 203/5/5 213/5/5
f 215/2/5 205/2/5 204/2/5
f 215/5/5 203/5/5 214/5/5
f 215/2/5 204/2/5 203/2/5
f 216/4/5 206/4/5 205/4/5
f 216/2/5 205/2/5 215/2/5
f 217/2/5 208/2/5 207/2/5
f 217/4/5 206/4/5 216/4/5
f 217/2/5 207/2/5 206/2/5
f 218/2/5 208/2/5 217/2/5
f 219/5/5 209/5/5 208/5/5
f 219/2/5 208/2/5 218/2/5
f 220/4/5 211/4/5 210/4/5
f 220/5/5 209/5/5 219/5/5
f 220/4/5 210/4/5 209/4/5
f 221/4/5 199/4/5 211/4/5
f 221/4/5 211/4/5 220/4/5
f 222/1/5 200/1/5 199/1/5
f 222/4/5 199/4/5 221/4/5
f 223/1/5 214/1/5 213/1/5
f 223/1/5 213/1/5 212/1/5
f 224/5/5 215/5/5 214/5/5
f 224/1/5 214/1/5 223/1/5
f 225/4/5 218/4/5 217/4/5
f 225/5/5 215/5/5 224/5/5
f 225/4/5 216/4/5 215/4/5
f 225/4/5 217/4/5 216/4/5
f 226/5/5 219/5/5 218/5/5
f 226/4/5 218/4/5 225/4/5
f 227/4/5 220/4/5 219/4/5
f 227/5/5 219/5/5 226/5/5
f 227/4/5 221/4/5 220/4/5
f 228/1/5 222/1/5 221/1/5
f 228/4/5 221/4/5 227/4/5
f 229/1/5 200/1/5 222/1/5
f 229/1/5 222/1/5 228/1/5
f 230/4/6 231/4/6 236/4/6
f 236/4/6 231/4/6 237/4/6
f 231/1/6 232/1/6 238/1/6
f 237/4/6 231/4/6 238/4/6
f 232/4/6 233/4/6 239/4/6
f 238/1/6 232/1/6 239/1/6
f 233/2/6 234/2/6 240/2/6
f 239/4/6 233/4/6 240/4/6
f 240/2/6 234/2/6 241/2/6
f 234/4/6 235/4/6 242/4/6
f 241/2/6 234/2/6 242/2/6
f 242/4/6 235/4/6 243/4/6
f 243/4/6 235/4/6 244/4/6
f 244/4/6 235/4/6 245/4/6
f 236/1/6 237/1/6 246/1/6
f 230/4/6 236/4/6 246/4/6
f 237/4/6 238/4/6 247/4/6
f 246/1/6 237/1/6 247/1/6
f 238/4/6 239/4/6 247/4/6
f 239/2/6 240/2/6 248/2/6
f 247/4/6 239/4/6 248/4/6
f 240/4/6 241/4/6 249/4/6
f 248/2/6 240/2/6 249/2/6
f 241/5/6 242/5/6 250/5/6
f 249/4/6 241/4/6 250/4/6
f 242/2/6 243/2/6 251/2/6
f 250/5/6 242/5/6 251/5/6
f 243/4/6 244/4/6 252/4/6
f 251/2/6 243/2/6 252/2/6
f 252/4/6 244/4/6 253/4/6
f 244/1/6 245/1/6 254/1/6
f 253/4/6 244/4/6 254/4/6
f 245/4/6 235/4/6 255/4/6
f 254/1/6 245/1/6 255/1/6
f 255/4/6 235/4/6 256/4/6
f 247/4/6 248/4/6 257/4/6
f 246/4/6 247/4/6 257/4/6
f 250/5/6 251/5/6 258/5/6
f 257/4/6 248/4/6 258/4/6
f 252/5/6 253/5/6 258/5/6
f 248/5/6 249/5/6 258/5/6
f 251/5/6 252/5/6 258/5/6
f 249/5/6 250/5/6 258/5/6
f 258/5/6 253/5/6 259/5/6
f 259/5/6 253/5/6 260/5/6
f 260/5/6 253/5/6 261/5/6
f 253/4/6 254/4/6 262/4/6
f 261/5/6 253/5/6 262/5/6
f 254/4/6 255/4/6 262/4/6
f 262/4/6 255/4/6 263/4/6
f 230/4/6 246/4/6 264/4/6
f 246/4/6 257/4/6 264/4/6
f 257/5/6 258/5/6 265/5/6
f 264/4/6 257/4/6 265/4/6
f 265/5/6 258/5/6 266/5/6
f 258/6/6 259/6/6 267/6/6
f 266/5/6 258/5/6 267/5/6
f 267/6/6 259/6/6 268/6/6
f 259/7/6 260/7/6 269/7/6
f 268/6/6 259/6/6 269/6/6
f 269/7/6 260/7/6 270/7/6
f 260/2/6 261/2/6 271/2/6
f 270/7/6 260/7/6 271/7/6
f 261/5/6 262/5/6 272/5/6
f 271/2/6 261/2/6 272/2/6
f 263/4/6 255/4/6 273/4/6
f 255/1/6 256/1/6 273/1/6
f 256/4/6 235/4/6 274/4/6
f 273/1/6 256/1/6 274/1/6
f 267/6/6 268/6/6 275/6/6
f 265/1/6 266/1/6 275/1/6
f 266/6/6 267/6/6 275/6/6
f 275/6/6 268/6/6 276/6/6
f 269/7/6 270/7/6 277/7/6
f 276/6/6 268/6/6 277/6/6
f 268/7/6 269/7/6 277/7/6
f 277/7/6 270/7/6 278/7/6
f 270/8/6 271/8/6 279/8/6
f 278/7/6 270/7/6 279/7/6
f 271/7/6 272/7/6 280/7/6
f 279/8/6 271/8/6 280/8/6
f 280/7/6 272/7/6 281/7/6
f 272/5/6 262/5/6 282/5/6
f 262/3/6 263/3/6 282/3/6
f 263/4/6 273/4/6 283/4/6
f 282/3/6 263/3/6 283/3/6
f 283/4/6 273/4/6 284/4/6
f 273/3/6 274/3/6 285/3/6
f 284/4/6 273/4/6 285/4/6
f 274/4/6 235/4/6 286/4/6
f 285/3/6 274/3/6 286/3/6
f 230/4/6 264/4/6 287/4/6
f 264/5/6 265/5/6 287/5/6
f 275/1/6 276/1/6 288/1/6
f 287/5/6 265/5/6 288/5/6
f 265/1/6 275/1/6 288/1/6
f 288/1/6 276/1/6 289/1/6
f 277/6/6 278/6/6 290/6/6
f 289/1/6 276/1/6 290/1/6
f 276/6/6 277/6/6 290/6/6
f 290/6/6 278/6/6 291/6/6
f 280/8/6 281/8/6 292/8/6
f 291/6/6 278/6/6 292/6/6
f 278/8/6 279/8/6 292/8/6
f 279/8/6 280/8/6 292/8/6
f 292/8/6 281/8/6 293/8/6
f 283/3/6 284/3/6 294/3/6
f 282/5/6 283/5/6 294/5/6
f 284/4/6 285/4/6 295/4/6
f 294/3/6 284/3/6 295/3/6
f 286/4/6 235/4/6 296/4/6
f 285/5/6 286/5/6 296/5/6
f 296/4/6 235/4/6 297/4/6
f 288/1/6 289/1/6 298/1/6
f 287/4/6 288/4/6 298/4/6
f 290/6/6 291/6/6 299/6/6
f 298/1/6 289/1/6 299/1/6
f 289/6/6 290/6/6 299/6/6
f 299/6/6 291/6/6 300/6/6
f 291/7/6 292/7/6 301/7/6
f 300/6/6 291/6/6 301/6/6
f 292/1/6 293/1/6 302/1/6
f 301/7/6 292/7/6 302/7/6
f 293/8/6 281/8/6 303/8/6
f 302/1/6 293/1/6 303/1/6
f 303/8/6 281/8/6 304/8/6
f 272/5/6 282/5/6 305/5/6
f 281/7/6 272/7/6 305/7/6
f 282/5/6 294/5/6 305/5/6
f 294/5/6 295/5/6 305/5/6
f 305/5/6 295/5/6 306/5/6
f 306/5/6 295/5/6 307/5/6
f 285/5/6 296/5/6 308/5/6
f 295/4/6 285/4/6 308/4/6
f 296/5/6 297/5/6 308/5/6
f 308/5/6 297/5/6 309/5/6
f 230/4/6 287/4/6 310/4/6
f 287/4/6 298/4/6 310/4/6
f 298/6/6 299/6/6 311/6/6
f 310/4/6 298/4/6 311/4/6
f 299/6/6 300/6/6 311/6/6
f 311/6/6 300/6/6 312/6/6
f 301/7/6 302/7/6 313/7/6
f 312/6/6 300/6/6 313/6/6
f 300/7/6 301/7/6 313/7/6
f 302/8/6 303/8/6 314/8/6
f 313/7/6 302/7/6 314/7/6
f 303/7/6 304/7/6 315/7/6
f 314/8/6 303/8/6 315/8/6
f 306/3/6 307/3/6 316/3/6
f 305/7/6 306/7/6 316/7/6
f 307/5/6 295/5/6 317/5/6
f 316/3/6 307/3/6 317/3/6
f 295/4/6 308/4/6 318/4/6
f 317/5/6 295/5/6 318/5/6
f 308/1/6 309/1/6 319/1/6
f 318/4/6 308/4/6 319/4/6
f 309/5/6 297/5/6 320/5/6
f 319/1/6 309/1/6 320/1/6
f 320/5/6 297/5/6 321/5/6
f 312/1/6 313/1/6 322/1/6
f 311/6/6 312/6/6 322/6/6
f 313/7/6 314/7/6 323/7/6
f 322/1/6 313/1/6 323/1/6
f 314/7/6 315/7/6 323/7/6
f 304/8/6 281/8/6 324/8/6
f 323/7/6 315/7/6 324/7/6
f 315/7/6 304/7/6 324/7/6
f 305/7/6 316/7/6 325/7/6
f 324/8/6 281/8/6 325/8/6
f 281/7/6 305/7/6 325/7/6
f 325/7/6 316/7/6 326/7/6
f 316/6/6 317/6/6 327/6/6
f 326/7/6 316/7/6 327/7/6
f 318/5/6 319/5/6 328/5/6
f 327/6/6 317/6/6 328/6/6
f 317/5/6 318/5/6 328/5/6
f 328/5/6 319/5/6 329/5/6
f 319/3/6 320/3/6 330/3/6
f 329/5/6 319/5/6 330/5/6
f 320/1/6 321/1/6 331/1/6
f 330/3/6 320/3/6 331/3/6
f 322/7/6 323/7/6 332/7/6
f 324/7/6 325/7/6 332/7/6
f 323/7/6 324/7/6 332/7/6
f 325/7/6 326/7/6 332/7/6
f 332/7/6 326/7/6 333/7/6
f 333/7/6 326/7/6 334/7/6
f 334/7/6 326/7/6 335/7/6
f 326/6/6 327/6/6 336/6/6
f 335/7/6 326/7/6 336/7/6
f 327/6/6 328/6/6 336/6/6
f 328/6/6 329/6/6 336/6/6
f 336/6/6 329/6/6 337/6/6
f 337/6/6 329/6/6 338/6/6
f 329/1/6 330/1/6 339/1/6
f 338/6/6 329/6/6 339/6/6
f 330/4/6 331/4/6 340/4/6
f 339/1/6 330/1/6 340/1/6
f 331/1/6 321/1/6 341/1/6
f 340/4/6 331/4/6 341/4/6
f 341/1/6 321/1/6 342/1/6
f 230/4/6 310/4/6 343/4/6
f 310/5/6 311/5/6 344/5/6
f 343/4/6 310/4/6 344/4/6
f 311/6/6 322/6/6 345/6/6
f 344/5/6 311/5/6 345/5/6
f 322/7/6 332/7/6 346/7/6
f 345/6/6 322/6/6 346/6/6
f 333/1/6 334/1/6 347/1/6
f 332/6/6 333/6/6 347/6/6
f 334/7/6 335/7/6 348/7/6
f 347/1/6 334/1/6 348/1/6
f 348/7/6 335/7/6 349/7/6
f 335/6/6 336/6/6 350/6/6
f 336/6/6 337/6/6 350/6/6
f 337/1/6 338/1/6 351/1/6
f 350/6/6 337/6/6 351/6/6
f 338/5/6 339/5/6 352/5/6
f 351/1/6 338/1/6 352/1/6
f 339/3/6 340/3/6 353/3/6
f 352/5/6 339/5/6 353/5/6
f 340/4/6 341/4/6 354/4/6
f 353/3/6 340/3/6 354/3/6
f 341/4/6 342/4/6 354/4/6
f 354/4/6 342/4/6 355/4/6
f 343/1/6 344/1/6 356/1/6
f 345/5/6 346/5/6 357/5/6
f 356/1/6 344/1/6 357/1/6
f 344/5/6 345/5/6 357/5/6
f 357/5/6 346/5/6 358/5/6
f 346/7/6 332/7/6 359/7/6
f 358/5/6 346/5/6 359/5/6
f 332/6/6 347/6/6 360/6/6
f 359/7/6 332/7/6 360/7/6
f 348/6/6 349/6/6 360/6/6
f 347/6/6 348/6/6 360/6/6
f 360/6/6 349/6/6 361/6/6
f 349/7/6 335/7/6 362/7/6
f 361/6/6 349/6/6 362/6/6
f 335/6/6 350/6/6 363/6/6
f 362/7/6 335/7/6 363/7/6
f 350/1/6 351/1/6 364/1/6
f 363/6/6 350/6/6 364/6/6
f 351/5/6 352/5/6 365/5/6
f 364/1/6 351/1/6 365/1/6
f 352/3/6 353/3/6 366/3/6
f 365/5/6 352/5/6 366/5/6
f 353/5/6 354/5/6 367/5/6
f 366/3/6 353/3/6 367/3/6
f 354/1/6 355/1/6 368/1/6
f 367/5/6 354/5/6 368/5/6
f 355/4/6 342/4/6 369/4/6
f 368/1/6 355/1/6 369/1/6
f 358/5/6 359/5/6 370/5/6
f 357/4/6 358/4/6 370/4/6
f 356/4/6 357/4/6 370/4/6
f 359/1/6 360/1/6 371/1/6
f 370/5/6 359/5/6 371/5/6
f 360/6/6 361/6/6 372/6/6
f 371/1/6 360/1/6 372/1/6
f 372/6/6 361/6/6 373/6/6
f 363/6/6 364/6/6 374/6/6
f 362/6/6 363/6/6 374/6/6
f 364/6/6 365/6/6 374/6/6
f 374/6/6 365/6/6 375/6/6
f 367/5/6 368/5/6 376/5/6
f 375/6/6 365/6/6 376/6/6
f 366/5/6 367/5/6 376/5/6
f 365/5/6 366/5/6 376/5/6
f 376/5/6 368/5/6 377/5/6
f 377/5/6 368/5/6 378/5/6
f 368/4/6 369/4/6 379/4/6
f 378/5/6 368/5/6 379/5/6
f 369/4/6 342/4/6 380/4/6
f 379/4/6 369/4/6 380/4/6
f 380/4/6 342/4/6 381/4/6
f 372/1/6 373/1/6 382/1/6
f 370/4/6 371/4/6 382/4/6
f 371/4/6 372/4/6 382/4/6
f 373/6/6 361/6/6 383/6/6
f 382/1/6 373/1/6 383/1/6
f 361/1/6 362/1/6 384/1/6
f 383/6/6 361/6/6 384/6/6
f 362/6/6 374/6/6 385/6/6
f 384/1/6 362/1/6 385/1/6
f 385/6/6 374/6/6 386/6/6
f 374/1/6 375/1/6 387/1/6
f 386/6/6 374/6/6 387/6/6
f 375/6/6 376/6/6 388/6/6
f 387/1/6 375/1/6 388/1/6
f 376/6/6 377/6/6 388/6/6
f 388/6/6 377/6/6 389/6/6
f 377/5/6 378/5/6 390/5/6
f 389/6/6 377/6/6 390/6/6
f 378/1/6 379/1/6 391/1/6
f 390/5/6 378/5/6 391/5/6
f 379/4/6 380/4/6 392/4/6
f 391/1/6 379/1/6 392/1/6
f 370/4/6 382/4/6 393/4/6
f 356/4/6 370/4/6 393/4/6
f 382/5/6 383/5/6 394/5/6
f 393/4/6 382/4/6 394/4/6
f 383/5/6 384/5/6 394/5/6
f 394/5/6 384/5/6 395/5/6
f 385/2/6 386/2/6 396/2/6
f 395/5/6 384/5/6 396/5/6
f 384/2/6 385/2/6 396/2/6
f 386/4/6 387/4/6 397/4/6
f 396/2/6 386/2/6 397/2/6
f 388/2/6 389/2/6 398/2/6
f 397/4/6 387/4/6 398/4/6
f 387/2/6 388/2/6 398/2/6
f 398/2/6 389/2/6 399/2/6
f 389/5/6 390/5/6 400/5/6
f 399/2/6 389/2/6 400/2/6
f 391/4/6 392/4/6 401/4/6
f 400/5/6 390/5/6 401/5/6
f 390/4/6 391/4/6 401/4/6
f 392/4/6 380/4/6 402/4/6
f 401/4/6 392/4/6 402/4/6
f 380/1/6 381/1/6 403/1/6
f 402/4/6 380/4/6 403/4/6
f 394/1/6 395/1/6 404/1/6
f 393/1/6 394/1/6 404/1/6
f 395/5/6 396/5/6 405/5/6
f 404/1/6 395/1/6 405/1/6
f 398/4/6 399/4/6 406/4/6
f 405/5/6 396/5/6 406/5/6
f 396/4/6 397/4/6 406/4/6
f 397/4/6 398/4/6 406/4/6
f 399/5/6 400/5/6 407/5/6
f 406/4/6 399/4/6 407/4/6
f 400/4/6 401/4/6 408/4/6
f 407/5/6 400/5/6 408/5/6
f 401/4/6 402/4/6 408/4/6
f 402/1/6 403/1/6 409/1/6
f 408/4/6 402/4/6 409/4/6
f 403/1/6 381/1/6 410/1/6
f 409/1/6 403/1/6 410/1/6
