# MagicaVoxel @ Ephtracy

# material
mtllib wall_new_damaged.mtl
usemtl palette

# normals
vn -1 0 0
vn 1 0 0
vn 0 0 1
vn 0 0 -1
vn 0 -1 0
vn 0 1 0

# texcoords
vt 0.259766 0.5
vt 0.263672 0.5
vt 0.267578 0.5
vt 0.271484 0.5

# verts
v -8 0 1
v -8 0 -0
v -8 0 -8
v -8 15 1
v -8 15 -0
v -8 16 1
v -8 16 -8
v -3 3 -0
v -3 3 -2
v -3 5 -0
v -3 5 -2
v -2 2 1
v -2 2 -0
v -2 5 1
v -2 5 -0
v -2 5 -2
v -2 6 -2
v -2 6 -3
v -2 7 -0
v -2 7 -2
v -2 9 -2
v -2 9 -3
v -1 5 1
v -1 5 -0
v -1 7 1
v -1 7 -0
v -1 7 -2
v -1 9 -0
v -1 9 -2
v -1 9 -3
v -1 10 -2
v -1 10 -3
v 0 7 1
v 0 7 -0
v 0 9 1
v 0 9 -0
v 0 9 -2
v 0 10 -0
v 0 10 -2
v 1 9 1
v 1 9 -0
v 1 10 1
v 1 10 -0
v 1 10 -2
v 1 11 -0
v 1 11 -2
v 2 10 1
v 2 10 -0
v 2 12 1
v 2 12 -0
v -5 2 1
v -5 2 -0
v -5 12 1
v -5 12 -0
v -4 3 -0
v -4 3 -2
v -4 11 -0
v -4 11 -2
v -3 6 -2
v -3 6 -3
v -3 10 -2
v -3 10 -3
v 8 0 1
v 8 0 -8
v 8 16 1
v 8 16 -8
v -8 0 1
v -8 15 1
v -8 16 1
v -7 0 1
v -7 14 1
v -6 1 1
v -6 13 1
v -5 2 1
v -5 12 1
v -2 2 1
v -2 5 1
v -1 1 1
v -1 5 1
v -1 7 1
v 0 0 1
v 0 4 1
v 0 5 1
v 0 7 1
v 0 9 1
v 1 0 1
v 1 3 1
v 1 4 1
v 1 6 1
v 1 7 1
v 1 9 1
v 1 10 1
v 2 3 1
v 2 5 1
v 2 6 1
v 2 8 1
v 2 10 1
v 2 12 1
v 3 5 1
v 3 7 1
v 3 9 1
v 3 13 1
v 4 8 1
v 4 14 1
v 5 7 1
v 5 15 1
v 8 0 1
v 8 16 1
v -5 2 -0
v -5 12 -0
v -4 3 -0
v -4 11 -0
v -3 3 -0
v -3 5 -0
v -2 2 -0
v -2 5 -0
v -2 7 -0
v -1 5 -0
v -1 7 -0
v -1 9 -0
v 0 7 -0
v 0 9 -0
v 0 10 -0
v 1 9 -0
v 1 10 -0
v 1 11 -0
v 2 10 -0
v 2 12 -0
v -4 3 -2
v -4 11 -2
v -3 3 -2
v -3 5 -2
v -3 6 -2
v -3 10 -2
v -2 5 -2
v -2 6 -2
v -2 7 -2
v -2 9 -2
v -1 7 -2
v -1 9 -2
v -1 10 -2
v 0 9 -2
v 0 10 -2
v 1 10 -2
v 1 11 -2
v -3 6 -3
v -3 10 -3
v -2 6 -3
v -2 9 -3
v -1 9 -3
v -1 10 -3
v -8 0 -8
v -8 16 -8
v 8 0 -8
v 8 16 -8
v -8 0 1
v -7 0 1
v 0 0 1
v 1 0 1
v 8 0 1
v -8 0 -0
v -7 0 -0
v 0 0 -0
v 1 0 -0
v -8 0 -8
v 8 0 -8
v -3 10 -2
v -1 10 -2
v -3 10 -3
v -1 10 -3
v -4 11 -0
v 1 11 -0
v -4 11 -2
v 1 11 -2
v -5 12 1
v 2 12 1
v -5 12 -0
v 2 12 -0
v -5 2 1
v -2 2 1
v -5 2 -0
v -2 2 -0
v -4 3 -0
v -3 3 -0
v -4 3 -2
v -3 3 -2
v -2 5 1
v -1 5 1
v -3 5 -0
v -2 5 -0
v -1 5 -0
v -3 5 -2
v -2 5 -2
v -3 6 -2
v -2 6 -2
v -3 6 -3
v -2 6 -3
v -1 7 1
v 0 7 1
v -2 7 -0
v -1 7 -0
v 0 7 -0
v -2 7 -2
v -1 7 -2
v 0 9 1
v 1 9 1
v -1 9 -0
v 0 9 -0
v 1 9 -0
v -2 9 -2
v -1 9 -2
v 0 9 -2
v -2 9 -3
v -1 9 -3
v 1 10 1
v 2 10 1
v 0 10 -0
v 1 10 -0
v 2 10 -0
v 0 10 -2
v 1 10 -2
v -8 16 1
v 8 16 1
v -8 16 -8
v 8 16 -8

# faces
f 4/2/1 2/2/1 1/2/1
f 5/1/1 3/1/1 2/1/1
f 5/2/1 2/2/1 4/2/1
f 6/1/1 5/1/1 4/1/1
f 7/1/1 3/1/1 5/1/1
f 7/1/1 5/1/1 6/1/1
f 10/1/1 9/1/1 8/1/1
f 11/1/1 9/1/1 10/1/1
f 14/4/1 13/4/1 12/4/1
f 15/4/1 13/4/1 14/4/1
f 17/1/1 16/1/1 15/1/1
f 19/1/1 17/1/1 15/1/1
f 19/1/1 18/1/1 17/1/1
f 20/1/1 18/1/1 19/1/1
f 21/1/1 18/1/1 20/1/1
f 22/1/1 18/1/1 21/1/1
f 25/4/1 24/4/1 23/4/1
f 26/4/1 24/4/1 25/4/1
f 28/1/1 27/1/1 26/1/1
f 29/1/1 27/1/1 28/1/1
f 31/1/1 30/1/1 29/1/1
f 32/1/1 30/1/1 31/1/1
f 35/4/1 34/4/1 33/4/1
f 36/4/1 34/4/1 35/4/1
f 38/1/1 37/1/1 36/1/1
f 39/1/1 37/1/1 38/1/1
f 42/4/1 41/4/1 40/4/1
f 43/4/1 41/4/1 42/4/1
f 45/1/1 44/1/1 43/1/1
f 46/1/1 44/1/1 45/1/1
f 49/4/1 48/4/1 47/4/1
f 50/4/1 48/4/1 49/4/1
f 51/4/2 52/4/2 53/4/2
f 53/4/2 52/4/2 54/4/2
f 55/1/2 56/1/2 57/1/2
f 57/1/2 56/1/2 58/1/2
f 59/1/2 60/1/2 61/1/2
f 61/1/2 60/1/2 62/1/2
f 63/1/2 64/1/2 65/1/2
f 65/1/2 64/1/2 66/1/2
f 70/2/3 68/2/3 67/2/3
f 71/2/3 68/2/3 70/2/3
f 72/3/3 71/3/3 70/3/3
f 73/3/3 71/3/3 72/3/3
f 74/4/3 73/4/3 72/4/3
f 75/4/3 73/4/3 74/4/3
f 76/4/3 74/4/3 72/4/3
f 78/3/3 72/3/3 70/3/3
f 78/4/3 77/4/3 76/4/3
f 78/4/3 76/4/3 72/4/3
f 79/4/3 77/4/3 78/4/3
f 81/3/3 78/3/3 70/3/3
f 81/3/3 79/3/3 78/3/3
f 82/3/3 79/3/3 81/3/3
f 83/4/3 80/4/3 79/4/3
f 83/3/3 79/3/3 82/3/3
f 84/4/3 80/4/3 83/4/3
f 86/2/3 82/2/3 81/2/3
f 87/2/3 82/2/3 86/2/3
f 88/3/3 83/3/3 82/3/3
f 88/2/3 82/2/3 87/2/3
f 88/3/3 84/3/3 83/3/3
f 89/3/3 84/3/3 88/3/3
f 90/4/3 85/4/3 84/4/3
f 90/3/3 84/3/3 89/3/3
f 91/4/3 85/4/3 90/4/3
f 93/2/3 89/2/3 88/2/3
f 93/1/3 87/1/3 86/1/3
f 93/2/3 88/2/3 87/2/3
f 94/2/3 89/2/3 93/2/3
f 95/3/3 91/3/3 90/3/3
f 95/2/3 89/2/3 94/2/3
f 95/3/3 90/3/3 89/3/3
f 96/3/3 91/3/3 95/3/3
f 97/4/3 92/4/3 91/4/3
f 98/4/3 73/4/3 75/4/3
f 99/1/3 94/1/3 93/1/3
f 99/2/3 95/2/3 94/2/3
f 99/2/3 96/2/3 95/2/3
f 100/2/3 96/2/3 99/2/3
f 101/4/3 97/4/3 91/4/3
f 101/3/3 91/3/3 96/3/3
f 101/4/3 98/4/3 97/4/3
f 102/3/3 71/3/3 73/3/3
f 102/4/3 98/4/3 101/4/3
f 102/4/3 73/4/3 98/4/3
f 103/2/3 96/2/3 100/2/3
f 103/3/3 101/3/3 96/3/3
f 103/3/3 102/3/3 101/3/3
f 104/2/3 68/2/3 71/2/3
f 104/3/3 102/3/3 103/3/3
f 104/3/3 71/3/3 102/3/3
f 105/2/3 103/2/3 100/2/3
f 105/1/3 100/1/3 99/1/3
f 105/2/3 104/2/3 103/2/3
f 106/1/3 69/1/3 68/1/3
f 106/2/3 104/2/3 105/2/3
f 106/2/3 68/2/3 104/2/3
f 107/1/3 105/1/3 99/1/3
f 107/1/3 99/1/3 93/1/3
f 107/1/3 106/1/3 105/1/3
f 107/1/3 93/1/3 86/1/3
f 108/1/3 69/1/3 106/1/3
f 108/1/3 106/1/3 107/1/3
f 111/1/3 110/1/3 109/1/3
f 112/1/3 110/1/3 111/1/3
f 113/1/3 111/1/3 109/1/3
f 115/1/3 113/1/3 109/1/3
f 115/1/3 114/1/3 113/1/3
f 116/1/3 114/1/3 115/1/3
f 118/1/3 117/1/3 116/1/3
f 119/1/3 117/1/3 118/1/3
f 121/1/3 120/1/3 119/1/3
f 122/1/3 120/1/3 121/1/3
f 124/1/3 123/1/3 122/1/3
f 125/1/3 123/1/3 124/1/3
f 126/1/3 110/1/3 112/1/3
f 127/1/3 126/1/3 125/1/3
f 128/1/3 110/1/3 126/1/3
f 128/1/3 126/1/3 127/1/3
f 131/1/3 130/1/3 129/1/3
f 132/1/3 130/1/3 131/1/3
f 133/1/3 130/1/3 132/1/3
f 134/1/3 130/1/3 133/1/3
f 135/1/3 133/1/3 132/1/3
f 136/1/3 133/1/3 135/1/3
f 139/1/3 138/1/3 137/1/3
f 140/1/3 138/1/3 139/1/3
f 141/1/3 130/1/3 134/1/3
f 142/1/3 141/1/3 140/1/3
f 143/1/3 130/1/3 141/1/3
f 143/1/3 141/1/3 142/1/3
f 144/1/3 130/1/3 143/1/3
f 145/1/3 130/1/3 144/1/3
f 148/1/3 147/1/3 146/1/3
f 149/1/3 147/1/3 148/1/3
f 150/1/3 147/1/3 149/1/3
f 151/1/3 147/1/3 150/1/3
f 152/1/4 153/1/4 154/1/4
f 154/1/4 153/1/4 155/1/4
f 161/2/5 157/2/5 156/2/5
f 162/3/5 158/3/5 157/3/5
f 162/2/5 157/2/5 161/2/5
f 163/2/5 159/2/5 158/2/5
f 163/3/5 158/3/5 162/3/5
f 164/1/5 160/1/5 159/1/5
f 164/2/5 159/2/5 163/2/5
f 165/1/5 163/1/5 162/1/5
f 165/1/5 162/1/5 161/1/5
f 165/1/5 164/1/5 163/1/5
f 166/1/5 160/1/5 164/1/5
f 166/1/5 164/1/5 165/1/5
f 169/1/5 168/1/5 167/1/5
f 170/1/5 168/1/5 169/1/5
f 173/1/5 172/1/5 171/1/5
f 174/1/5 172/1/5 173/1/5
f 177/4/5 176/4/5 175/4/5
f 178/4/5 176/4/5 177/4/5
f 179/4/6 180/4/6 181/4/6
f 181/4/6 180/4/6 182/4/6
f 183/1/6 184/1/6 185/1/6
f 185/1/6 184/1/6 186/1/6
f 187/4/6 188/4/6 190/4/6
f 190/4/6 188/4/6 191/4/6
f 189/1/6 190/1/6 192/1/6
f 192/1/6 190/1/6 193/1/6
f 194/1/6 195/1/6 196/1/6
f 196/1/6 195/1/6 197/1/6
f 198/4/6 199/4/6 201/4/6
f 201/4/6 199/4/6 202/4/6
f 200/1/6 201/1/6 203/1/6
f 203/1/6 201/1/6 204/1/6
f 205/4/6 206/4/6 208/4/6
f 208/4/6 206/4/6 209/4/6
f 207/1/6 208/1/6 211/1/6
f 211/1/6 208/1/6 212/1/6
f 210/1/6 211/1/6 213/1/6
f 213/1/6 211/1/6 214/1/6
f 215/4/6 216/4/6 218/4/6
f 218/4/6 216/4/6 219/4/6
f 217/1/6 218/1/6 220/1/6
f 220/1/6 218/1/6 221/1/6
f 222/1/6 223/1/6 224/1/6
f 224/1/6 223/1/6 225/1/6
