# MagicaVoxel @ Ephtracy

# material
mtllib wall_new_1.mtl
usemtl palette

# normals
vn -1 0 0
vn 1 0 0
vn 0 0 1
vn 0 0 -1
vn 0 -1 0
vn 0 1 0

# texcoords
vt 0.259766 0.5
vt 0.267578 0.5
vt 0.275391 0.5
vt 0.291016 0.5
vt 0.294922 0.5
vt 0.302734 0.5

# verts
v -8 0 1
v -8 0 -8
v -8 16 1
v -8 16 -8
v -5 4 1
v -5 4 -0
v -5 5 1
v -5 5 -0
v -5 12 1
v -5 12 -0
v -5 13 1
v -5 13 -0
v -4 8 1
v -4 8 -0
v -4 9 1
v -4 9 -0
v -1 4 1
v -1 4 -0
v -1 5 1
v -1 5 -0
v -1 12 1
v -1 12 -0
v -1 13 1
v -1 13 -0
v 0 8 1
v 0 8 -0
v 0 9 1
v 0 9 -0
v 3 4 1
v 3 4 -0
v 3 5 1
v 3 5 -0
v 3 12 1
v 3 12 -0
v 3 13 1
v 3 13 -0
v 4 8 1
v 4 8 -0
v 4 9 1
v 4 9 -0
v 7 1 1
v 7 1 -0
v 7 15 1
v 7 15 -0
v -7 1 1
v -7 1 -0
v -7 15 1
v -7 15 -0
v -4 4 1
v -4 4 -0
v -4 5 1
v -4 5 -0
v -4 12 1
v -4 12 -0
v -4 13 1
v -4 13 -0
v -3 8 1
v -3 8 -0
v -3 9 1
v -3 9 -0
v 0 4 1
v 0 4 -0
v 0 5 1
v 0 5 -0
v 0 12 1
v 0 12 -0
v 0 13 1
v 0 13 -0
v 1 8 1
v 1 8 -0
v 1 9 1
v 1 9 -0
v 4 4 1
v 4 4 -0
v 4 5 1
v 4 5 -0
v 4 12 1
v 4 12 -0
v 4 13 1
v 4 13 -0
v 5 8 1
v 5 8 -0
v 5 9 1
v 5 9 -0
v 8 0 1
v 8 0 -8
v 8 16 1
v 8 16 -8
v -8 0 1
v -8 16 1
v -7 1 1
v -7 15 1
v -5 4 1
v -5 5 1
v -5 12 1
v -5 13 1
v -4 4 1
v -4 5 1
v -4 8 1
v -4 9 1
v -4 12 1
v -4 13 1
v -3 8 1
v -3 9 1
v -1 4 1
v -1 5 1
v -1 12 1
v -1 13 1
v 0 4 1
v 0 5 1
v 0 8 1
v 0 9 1
v 0 12 1
v 0 13 1
v 1 8 1
v 1 9 1
v 3 4 1
v 3 5 1
v 3 12 1
v 3 13 1
v 4 4 1
v 4 5 1
v 4 8 1
v 4 9 1
v 4 12 1
v 4 13 1
v 5 8 1
v 5 9 1
v 7 1 1
v 7 15 1
v 8 0 1
v 8 16 1
v -7 1 -0
v -7 15 -0
v -5 4 -0
v -5 5 -0
v -5 12 -0
v -5 13 -0
v -4 4 -0
v -4 5 -0
v -4 8 -0
v -4 9 -0
v -4 12 -0
v -4 13 -0
v -3 8 -0
v -3 9 -0
v -1 4 -0
v -1 5 -0
v -1 12 -0
v -1 13 -0
v 0 4 -0
v 0 5 -0
v 0 8 -0
v 0 9 -0
v 0 12 -0
v 0 13 -0
v 1 8 -0
v 1 9 -0
v 3 4 -0
v 3 5 -0
v 3 12 -0
v 3 13 -0
v 4 4 -0
v 4 5 -0
v 4 8 -0
v 4 9 -0
v 4 12 -0
v 4 13 -0
v 5 8 -0
v 5 9 -0
v 7 1 -0
v 7 15 -0
v -8 0 -8
v -8 16 -8
v 8 0 -8
v 8 16 -8
v -8 0 1
v 8 0 1
v -8 0 -8
v 8 0 -8
v -5 4 1
v -4 4 1
v -1 4 1
v 0 4 1
v 3 4 1
v 4 4 1
v -5 4 -0
v -4 4 -0
v -1 4 -0
v 0 4 -0
v 3 4 -0
v 4 4 -0
v -4 8 1
v -3 8 1
v 0 8 1
v 1 8 1
v 4 8 1
v 5 8 1
v -4 8 -0
v -3 8 -0
v 0 8 -0
v 1 8 -0
v 4 8 -0
v 5 8 -0
v -5 12 1
v -4 12 1
v -1 12 1
v 0 12 1
v 3 12 1
v 4 12 1
v -5 12 -0
v -4 12 -0
v -1 12 -0
v 0 12 -0
v 3 12 -0
v 4 12 -0
v -7 15 1
v 7 15 1
v -7 15 -0
v 7 15 -0
v -7 1 1
v 7 1 1
v -7 1 -0
v 7 1 -0
v -5 5 1
v -4 5 1
v -1 5 1
v 0 5 1
v 3 5 1
v 4 5 1
v -5 5 -0
v -4 5 -0
v -1 5 -0
v 0 5 -0
v 3 5 -0
v 4 5 -0
v -4 9 1
v -3 9 1
v 0 9 1
v 1 9 1
v 4 9 1
v 5 9 1
v -4 9 -0
v -3 9 -0
v 0 9 -0
v 1 9 -0
v 4 9 -0
v 5 9 -0
v -5 13 1
v -4 13 1
v -1 13 1
v 0 13 1
v 3 13 1
v 4 13 1
v -5 13 -0
v -4 13 -0
v -1 13 -0
v 0 13 -0
v 3 13 -0
v 4 13 -0
v -8 16 1
v 8 16 1
v -8 16 -8
v 8 16 -8

# faces
f 3/1/1 2/1/1 1/1/1
f 4/1/1 2/1/1 3/1/1
f 7/6/1 6/6/1 5/6/1
f 8/6/1 6/6/1 7/6/1
f 11/2/1 10/2/1 9/2/1
f 12/2/1 10/2/1 11/2/1
f 15/5/1 14/5/1 13/5/1
f 16/5/1 14/5/1 15/5/1
f 19/3/1 18/3/1 17/3/1
f 20/3/1 18/3/1 19/3/1
f 23/6/1 22/6/1 21/6/1
f 24/6/1 22/6/1 23/6/1
f 27/3/1 26/3/1 25/3/1
f 28/3/1 26/3/1 27/3/1
f 31/4/1 30/4/1 29/4/1
f 32/4/1 30/4/1 31/4/1
f 35/5/1 34/5/1 33/5/1
f 36/5/1 34/5/1 35/5/1
f 39/4/1 38/4/1 37/4/1
f 40/4/1 38/4/1 39/4/1
f 43/1/1 42/1/1 41/1/1
f 44/1/1 42/1/1 43/1/1
f 45/1/2 46/1/2 47/1/2
f 47/1/2 46/1/2 48/1/2
f 49/6/2 50/6/2 51/6/2
f 51/6/2 50/6/2 52/6/2
f 53/2/2 54/2/2 55/2/2
f 55/2/2 54/2/2 56/2/2
f 57/5/2 58/5/2 59/5/2
f 59/5/2 58/5/2 60/5/2
f 61/3/2 62/3/2 63/3/2
f 63/3/2 62/3/2 64/3/2
f 65/6/2 66/6/2 67/6/2
f 67/6/2 66/6/2 68/6/2
f 69/3/2 70/3/2 71/3/2
f 71/3/2 70/3/2 72/3/2
f 73/4/2 74/4/2 75/4/2
f 75/4/2 74/4/2 76/4/2
f 77/5/2 78/5/2 79/5/2
f 79/5/2 78/5/2 80/5/2
f 81/4/2 82/4/2 83/4/2
f 83/4/2 82/4/2 84/4/2
f 85/1/2 86/1/2 87/1/2
f 87/1/2 86/1/2 88/1/2
f 91/1/3 90/1/3 89/1/3
f 92/1/3 90/1/3 91/1/3
f 97/6/3 94/6/3 93/6/3
f 98/6/3 94/6/3 97/6/3
f 101/2/3 96/2/3 95/2/3
f 102/2/3 96/2/3 101/2/3
f 103/5/3 100/5/3 99/5/3
f 104/5/3 100/5/3 103/5/3
f 109/3/3 106/3/3 105/3/3
f 110/3/3 106/3/3 109/3/3
f 113/6/3 108/6/3 107/6/3
f 114/6/3 108/6/3 113/6/3
f 115/3/3 112/3/3 111/3/3
f 116/3/3 112/3/3 115/3/3
f 121/4/3 118/4/3 117/4/3
f 122/4/3 118/4/3 121/4/3
f 125/5/3 120/5/3 119/5/3
f 126/5/3 120/5/3 125/5/3
f 127/4/3 124/4/3 123/4/3
f 128/4/3 124/4/3 127/4/3
f 129/1/3 91/1/3 89/1/3
f 130/1/3 90/1/3 92/1/3
f 131/1/3 129/1/3 89/1/3
f 131/1/3 130/1/3 129/1/3
f 132/1/3 90/1/3 130/1/3
f 132/1/3 130/1/3 131/1/3
f 135/1/3 134/1/3 133/1/3
f 136/1/3 134/1/3 135/1/3
f 137/1/3 134/1/3 136/1/3
f 138/1/3 134/1/3 137/1/3
f 139/1/3 135/1/3 133/1/3
f 140/1/3 137/1/3 136/1/3
f 141/1/3 137/1/3 140/1/3
f 142/1/3 137/1/3 141/1/3
f 143/1/3 137/1/3 142/1/3
f 144/1/3 134/1/3 138/1/3
f 145/1/3 140/1/3 139/1/3
f 145/1/3 141/1/3 140/1/3
f 146/1/3 143/1/3 142/1/3
f 146/1/3 144/1/3 143/1/3
f 147/1/3 145/1/3 139/1/3
f 147/1/3 146/1/3 145/1/3
f 147/1/3 139/1/3 133/1/3
f 148/1/3 146/1/3 147/1/3
f 149/1/3 144/1/3 146/1/3
f 149/1/3 146/1/3 148/1/3
f 150/1/3 134/1/3 144/1/3
f 150/1/3 144/1/3 149/1/3
f 151/1/3 147/1/3 133/1/3
f 152/1/3 149/1/3 148/1/3
f 153/1/3 149/1/3 152/1/3
f 154/1/3 149/1/3 153/1/3
f 155/1/3 149/1/3 154/1/3
f 156/1/3 134/1/3 150/1/3
f 157/1/3 152/1/3 151/1/3
f 157/1/3 153/1/3 152/1/3
f 158/1/3 155/1/3 154/1/3
f 158/1/3 156/1/3 155/1/3
f 159/1/3 157/1/3 151/1/3
f 159/1/3 158/1/3 157/1/3
f 159/1/3 151/1/3 133/1/3
f 160/1/3 158/1/3 159/1/3
f 161/1/3 156/1/3 158/1/3
f 161/1/3 158/1/3 160/1/3
f 162/1/3 134/1/3 156/1/3
f 162/1/3 156/1/3 161/1/3
f 163/1/3 159/1/3 133/1/3
f 164/1/3 161/1/3 160/1/3
f 165/1/3 161/1/3 164/1/3
f 166/1/3 161/1/3 165/1/3
f 167/1/3 161/1/3 166/1/3
f 168/1/3 134/1/3 162/1/3
f 169/1/3 164/1/3 163/1/3
f 169/1/3 165/1/3 164/1/3
f 170/1/3 167/1/3 166/1/3
f 170/1/3 168/1/3 167/1/3
f 171/1/3 169/1/3 163/1/3
f 171/1/3 170/1/3 169/1/3
f 171/1/3 163/1/3 133/1/3
f 172/1/3 168/1/3 170/1/3
f 172/1/3 170/1/3 171/1/3
f 172/1/3 134/1/3 168/1/3
f 173/1/4 174/1/4 175/1/4
f 175/1/4 174/1/4 176/1/4
f 179/1/5 178/1/5 177/1/5
f 180/1/5 178/1/5 179/1/5
f 187/6/5 182/6/5 181/6/5
f 188/6/5 182/6/5 187/6/5
f 189/3/5 184/3/5 183/3/5
f 190/3/5 184/3/5 189/3/5
f 191/4/5 186/4/5 185/4/5
f 192/4/5 186/4/5 191/4/5
f 199/5/5 194/5/5 193/5/5
f 200/5/5 194/5/5 199/5/5
f 201/3/5 196/3/5 195/3/5
f 202/3/5 196/3/5 201/3/5
f 203/4/5 198/4/5 197/4/5
f 204/4/5 198/4/5 203/4/5
f 211/2/5 206/2/5 205/2/5
f 212/2/5 206/2/5 211/2/5
f 213/6/5 208/6/5 207/6/5
f 214/6/5 208/6/5 213/6/5
f 215/5/5 210/5/5 209/5/5
f 216/5/5 210/5/5 215/5/5
f 219/1/5 218/1/5 217/1/5
f 220/1/5 218/1/5 219/1/5
f 221/1/6 222/1/6 223/1/6
f 223/1/6 222/1/6 224/1/6
f 225/6/6 226/6/6 231/6/6
f 231/6/6 226/6/6 232/6/6
f 227/3/6 228/3/6 233/3/6
f 233/3/6 228/3/6 234/3/6
f 229/4/6 230/4/6 235/4/6
f 235/4/6 230/4/6 236/4/6
f 237/5/6 238/5/6 243/5/6
f 243/5/6 238/5/6 244/5/6
f 239/3/6 240/3/6 245/3/6
f 245/3/6 240/3/6 246/3/6
f 241/4/6 242/4/6 247/4/6
f 247/4/6 242/4/6 248/4/6
f 249/2/6 250/2/6 255/2/6
f 255/2/6 250/2/6 256/2/6
f 251/6/6 252/6/6 257/6/6
f 257/6/6 252/6/6 258/6/6
f 253/5/6 254/5/6 259/5/6
f 259/5/6 254/5/6 260/5/6
f 261/1/6 262/1/6 263/1/6
f 263/1/6 262/1/6 264/1/6
