# MagicaVoxel @ Ephtracy

# material
mtllib wall_new_2.mtl
usemtl palette

# normals
vn -1 0 0
vn 1 0 0
vn 0 0 1
vn 0 0 -1
vn 0 -1 0
vn 0 1 0

# texcoords
vt 0.259766 0.5
vt 0.275391 0.5
vt 0.291016 0.5
vt 0.298828 0.5

# verts
v -8 0 1
v -8 0 -8
v -8 16 1
v -8 16 -8
v -6 12 -0
v -6 12 -1
v -6 13 -0
v -6 13 -1
v -6 14 -0
v -6 14 -1
v 0 5 -0
v 0 5 -1
v 0 6 -0
v 0 6 -1
v 0 7 -0
v 0 7 -1
v 3 4 -0
v 3 4 -1
v 3 5 -0
v 3 5 -1
v 3 7 -0
v 3 7 -1
v 3 12 -0
v 3 12 -1
v 7 1 1
v 7 1 -1
v 7 12 -0
v 7 12 -1
v 7 13 -0
v 7 14 -0
v 7 14 -1
v 7 15 1
v 7 15 -1
v -7 1 1
v -7 1 -1
v -7 15 1
v -7 15 -1
v 5 4 -0
v 5 4 -1
v 5 7 -0
v 5 7 -1
v 5 12 -0
v 5 12 -1
v 8 0 1
v 8 0 -8
v 8 12 -0
v 8 12 -1
v 8 13 -0
v 8 13 -1
v 8 14 -0
v 8 14 -1
v 8 16 1
v 8 16 -8
v -8 0 1
v -8 16 1
v -7 1 1
v -7 15 1
v 7 1 1
v 7 15 1
v 8 0 1
v 8 16 1
v -6 12 -0
v -6 13 -0
v -6 14 -0
v 0 5 -0
v 0 6 -0
v 0 7 -0
v 3 4 -0
v 3 5 -0
v 3 7 -0
v 3 12 -0
v 4 4 -0
v 4 6 -0
v 4 7 -0
v 4 13 -0
v 5 4 -0
v 5 7 -0
v 5 12 -0
v 5 13 -0
v 7 12 -0
v 7 13 -0
v 7 14 -0
v -7 1 -1
v -7 15 -1
v -6 12 -1
v -6 13 -1
v -6 14 -1
v 0 5 -1
v 0 6 -1
v 0 7 -1
v 3 4 -1
v 3 5 -1
v 3 7 -1
v 3 12 -1
v 4 4 -1
v 5 4 -1
v 5 7 -1
v 5 12 -1
v 7 1 -1
v 7 12 -1
v 7 14 -1
v 7 15 -1
v -8 0 -8
v -8 16 -8
v 8 0 -8
v 8 16 -8
v -8 0 1
v 8 0 1
v -8 0 -8
v 8 0 -8
v 3 4 -0
v 4 4 -0
v 5 4 -0
v 3 4 -1
v 4 4 -1
v 5 4 -1
v 0 5 -0
v 3 5 -0
v 0 5 -1
v 3 5 -1
v -6 12 -0
v 3 12 -0
v 5 12 -0
v 7 12 -0
v -6 12 -1
v 3 12 -1
v 5 12 -1
v 7 12 -1
v -7 15 1
v 7 15 1
v -7 15 -1
v 7 15 -1
v -7 1 1
v 7 1 1
v -7 1 -1
v 7 1 -1
v 0 7 -0
v 3 7 -0
v 0 7 -1
v 3 7 -1
v -6 14 -0
v 7 14 -0
v -6 14 -1
v 7 14 -1
v -8 16 1
v 8 16 1
v -8 16 -8
v 8 16 -8

# faces
f 3/1/1 2/1/1 1/1/1
f 4/1/1 2/1/1 3/1/1
f 7/3/1 6/3/1 5/3/1
f 8/3/1 6/3/1 7/3/1
f 9/4/1 8/4/1 7/4/1
f 10/4/1 8/4/1 9/4/1
f 13/3/1 12/3/1 11/3/1
f 14/3/1 12/3/1 13/3/1
f 15/2/1 14/2/1 13/2/1
f 16/2/1 14/2/1 15/2/1
f 19/3/1 18/3/1 17/3/1
f 20/3/1 18/3/1 19/3/1
f 23/3/1 22/3/1 21/3/1
f 24/3/1 22/3/1 23/3/1
f 27/1/1 26/1/1 25/1/1
f 28/1/1 26/1/1 27/1/1
f 29/1/1 27/1/1 25/1/1
f 30/1/1 29/1/1 25/1/1
f 32/1/1 30/1/1 25/1/1
f 32/1/1 31/1/1 30/1/1
f 33/1/1 31/1/1 32/1/1
f 34/1/2 35/1/2 36/1/2
f 36/1/2 35/1/2 37/1/2
f 38/2/2 39/2/2 40/2/2
f 40/2/2 39/2/2 41/2/2
f 40/4/2 41/4/2 42/4/2
f 42/4/2 41/4/2 43/4/2
f 44/1/2 45/1/2 46/1/2
f 46/1/2 45/1/2 47/1/2
f 44/1/2 46/1/2 48/1/2
f 46/3/2 47/3/2 48/3/2
f 47/1/2 45/1/2 49/1/2
f 48/3/2 47/3/2 49/3/2
f 44/1/2 48/1/2 50/1/2
f 48/4/2 49/4/2 50/4/2
f 49/1/2 45/1/2 51/1/2
f 50/4/2 49/4/2 51/4/2
f 44/1/2 50/1/2 52/1/2
f 50/1/2 51/1/2 52/1/2
f 51/1/2 45/1/2 53/1/2
f 52/1/2 51/1/2 53/1/2
f 56/1/3 55/1/3 54/1/3
f 57/1/3 55/1/3 56/1/3
f 58/1/3 56/1/3 54/1/3
f 59/1/3 55/1/3 57/1/3
f 60/1/3 58/1/3 54/1/3
f 60/1/3 59/1/3 58/1/3
f 61/1/3 55/1/3 59/1/3
f 61/1/3 59/1/3 60/1/3
f 69/3/3 66/3/3 65/3/3
f 70/2/3 67/2/3 66/2/3
f 71/3/3 63/3/3 62/3/3
f 72/3/3 69/3/3 68/3/3
f 73/2/3 70/2/3 66/2/3
f 73/3/3 69/3/3 72/3/3
f 73/3/3 66/3/3 69/3/3
f 74/3/3 71/3/3 70/3/3
f 74/2/3 70/2/3 73/2/3
f 75/4/3 64/4/3 63/4/3
f 75/3/3 71/3/3 74/3/3
f 75/3/3 63/3/3 71/3/3
f 76/2/3 74/2/3 73/2/3
f 76/2/3 73/2/3 72/2/3
f 77/4/3 75/4/3 74/4/3
f 77/2/3 74/2/3 76/2/3
f 78/4/3 75/4/3 77/4/3
f 79/4/3 64/4/3 75/4/3
f 79/4/3 75/4/3 78/4/3
f 80/3/3 79/3/3 78/3/3
f 81/4/3 64/4/3 79/4/3
f 81/3/3 79/3/3 80/3/3
f 82/4/3 64/4/3 81/4/3
f 85/1/3 84/1/3 83/1/3
f 86/1/3 84/1/3 85/1/3
f 87/1/3 84/1/3 86/1/3
f 88/1/3 85/1/3 83/1/3
f 89/1/3 85/1/3 88/1/3
f 90/1/3 85/1/3 89/1/3
f 91/1/3 88/1/3 83/1/3
f 92/1/3 88/1/3 91/1/3
f 93/1/3 85/1/3 90/1/3
f 94/1/3 85/1/3 93/1/3
f 95/1/3 91/1/3 83/1/3
f 96/1/3 95/1/3 83/1/3
f 99/1/3 96/1/3 83/1/3
f 99/1/3 98/1/3 97/1/3
f 99/1/3 97/1/3 96/1/3
f 100/1/3 98/1/3 99/1/3
f 101/1/3 84/1/3 87/1/3
f 102/1/3 84/1/3 101/1/3
f 103/1/4 104/1/4 105/1/4
f 105/1/4 104/1/4 106/1/4
f 109/1/5 108/1/5 107/1/5
f 110/1/5 108/1/5 109/1/5
f 114/3/5 112/3/5 111/3/5
f 115/2/5 113/2/5 112/2/5
f 115/3/5 112/3/5 114/3/5
f 116/2/5 113/2/5 115/2/5
f 119/3/5 118/3/5 117/3/5
f 120/3/5 118/3/5 119/3/5
f 125/3/5 122/3/5 121/3/5
f 126/3/5 122/3/5 125/3/5
f 127/3/5 124/3/5 123/3/5
f 128/3/5 124/3/5 127/3/5
f 131/1/5 130/1/5 129/1/5
f 132/1/5 130/1/5 131/1/5
f 133/1/6 134/1/6 135/1/6
f 135/1/6 134/1/6 136/1/6
f 137/2/6 138/2/6 139/2/6
f 139/2/6 138/2/6 140/2/6
f 141/4/6 142/4/6 143/4/6
f 143/4/6 142/4/6 144/4/6
f 145/1/6 146/1/6 147/1/6
f 147/1/6 146/1/6 148/1/6
