# MagicaVoxel @ Ephtracy

# material
mtllib scientist01_attack-09.mtl
usemtl palette

# normals
vn -1 0 0
vn 1 0 0
vn 0 0 1
vn 0 0 -1
vn 0 -1 0
vn 0 1 0

# texcoords
vt 0.00195313 0.5
vt 0.302734 0.5
vt 0.341797 0.5
vt 0.345703 0.5
vt 0.396484 0.5
vt 0.416016 0.5
vt 0.501953 0.5
vt 0.669922 0.5
vt 0.681641 0.5
vt 0.693359 0.5
vt 0.701172 0.5
vt 0.712891 0.5

# verts
v -8 4 1
v -8 4 -4
v -8 5 2
v -8 5 1
v -8 5 -4
v -8 5 -5
v -8 13 2
v -8 13 1
v -8 14 1
v -8 14 -0
v -8 14 -4
v -8 14 -5
v -8 15 -0
v -8 15 -4
v -7 3 1
v -7 3 -4
v -7 4 2
v -7 4 1
v -7 4 -4
v -7 4 -6
v -7 5 3
v -7 5 2
v -7 5 1
v -7 5 -4
v -7 5 -5
v -7 13 2
v -7 13 1
v -7 14 3
v -7 14 2
v -7 14 1
v -7 14 -0
v -7 14 -4
v -7 14 -5
v -7 15 2
v -7 15 1
v -7 15 -0
v -7 15 -4
v -7 15 -5
v -7 15 -6
v -7 16 1
v -7 16 -5
v -6 3 2
v -6 3 1
v -6 3 -4
v -6 3 -5
v -6 4 3
v -6 4 2
v -6 4 1
v -6 4 -4
v -6 4 -5
v -6 4 -6
v -6 4 -7
v -6 5 3
v -6 5 2
v -6 14 3
v -6 14 2
v -6 14 -6
v -6 14 -7
v -6 15 3
v -6 15 2
v -6 15 1
v -6 15 -5
v -6 15 -6
v -6 16 2
v -6 16 1
v -6 16 -5
v -6 16 -6
v -5 3 -5
v -5 3 -6
v -5 4 -5
v -5 4 -6
v -5 5 -7
v -5 5 -8
v -5 14 -6
v -5 14 -7
v -5 14 -8
v -5 15 3
v -5 15 2
v -5 15 -6
v -5 15 -7
v -5 16 3
v -5 16 2
v -4 2 2
v -4 2 -1
v -4 3 2
v -4 3 -1
v -4 3 -6
v -4 3 -7
v -4 4 -6
v -4 4 -7
v -4 4 -8
v -4 5 -7
v -4 5 -8
v -3 0 1
v -3 0 -3
v -3 1 1
v -3 1 -0
v -3 1 -1
v -3 1 -3
v -3 2 3
v -3 2 2
v -3 2 -0
v -3 2 -1
v -3 3 2
v -3 4 3
v -3 4 2
v -3 13 4
v -3 13 3
v -3 15 4
v -3 15 3
v -2 4 4
v -2 4 3
v -2 8 4
v -2 8 3
v -2 12 4
v -2 12 3
v -2 13 4
v -2 13 3
v -1 12 5
v -1 12 4
v -1 13 5
v -1 13 4
v -1 14 5
v -1 14 4
v -1 15 5
v -1 15 4
v -1 15 3
v -1 16 4
v -1 16 3
v 1 0 1
v 1 0 -0
v 1 0 -1
v 1 0 -3
v 1 1 1
v 1 1 -0
v 1 1 -1
v 1 1 -3
v 1 2 1
v 1 2 -0
v 1 2 -1
v 1 3 1
v 1 3 -0
v 1 3 -1
v 3 2 2
v 3 2 1
v 3 3 2
v 3 3 1
v -3 2 2
v -3 2 1
v -3 3 2
v -3 3 1
v -1 0 1
v -1 0 -0
v -1 0 -1
v -1 0 -3
v -1 1 1
v -1 1 -0
v -1 1 -1
v -1 1 -3
v -1 2 1
v -1 2 -0
v -1 2 -1
v -1 3 1
v -1 3 -0
v -1 3 -1
v 1 4 4
v 1 4 3
v 1 8 4
v 1 8 3
v 1 12 5
v 1 12 4
v 1 13 5
v 1 13 4
v 1 14 5
v 1 14 4
v 1 15 5
v 1 15 4
v 1 15 3
v 1 16 4
v 1 16 3
v 2 12 4
v 2 12 3
v 2 13 4
v 2 13 3
v 3 0 1
v 3 0 -3
v 3 1 1
v 3 1 -0
v 3 1 -1
v 3 1 -3
v 3 2 3
v 3 2 2
v 3 2 -0
v 3 2 -1
v 3 3 2
v 3 4 3
v 3 4 2
v 3 13 4
v 3 13 3
v 3 15 4
v 3 15 3
v 4 2 2
v 4 2 -1
v 4 3 2
v 4 3 -1
v 4 3 -6
v 4 3 -7
v 4 4 -6
v 4 4 -7
v 4 4 -8
v 4 5 -7
v 4 5 -8
v 5 3 -5
v 5 3 -6
v 5 4 -5
v 5 4 -6
v 5 5 -7
v 5 5 -8
v 5 14 -6
v 5 14 -7
v 5 14 -8
v 5 15 3
v 5 15 2
v 5 15 -6
v 5 15 -7
v 5 16 3
v 5 16 2
v 6 3 2
v 6 3 1
v 6 3 -4
v 6 3 -5
v 6 4 3
v 6 4 2
v 6 4 1
v 6 4 -4
v 6 4 -5
v 6 4 -6
v 6 4 -7
v 6 5 3
v 6 5 2
v 6 14 3
v 6 14 2
v 6 14 -6
v 6 14 -7
v 6 15 3
v 6 15 2
v 6 15 1
v 6 15 -5
v 6 15 -6
v 6 16 2
v 6 16 1
v 6 16 -5
v 6 16 -6
v 7 3 1
v 7 3 -4
v 7 4 2
v 7 4 1
v 7 4 -4
v 7 4 -6
v 7 5 3
v 7 5 2
v 7 5 1
v 7 5 -4
v 7 5 -5
v 7 13 2
v 7 13 1
v 7 14 3
v 7 14 2
v 7 14 1
v 7 14 -0
v 7 14 -4
v 7 14 -5
v 7 15 2
v 7 15 1
v 7 15 -0
v 7 15 -4
v 7 15 -5
v 7 15 -6
v 7 16 1
v 7 16 -5
v 8 4 1
v 8 4 -4
v 8 5 2
v 8 5 1
v 8 5 -4
v 8 5 -5
v 8 13 2
v 8 13 1
v 8 14 1
v 8 14 -0
v 8 14 -4
v 8 14 -5
v 8 15 -0
v 8 15 -4
v -1 12 5
v -1 13 5
v -1 14 5
v -1 15 5
v 1 12 5
v 1 13 5
v 1 14 5
v 1 15 5
v -3 13 4
v -3 15 4
v -2 4 4
v -2 8 4
v -2 12 4
v -2 13 4
v -2 14 4
v -2 15 4
v -1 12 4
v -1 13 4
v -1 14 4
v -1 15 4
v -1 16 4
v 1 4 4
v 1 8 4
v 1 12 4
v 1 13 4
v 1 14 4
v 1 15 4
v 1 16 4
v 2 12 4
v 2 13 4
v 2 14 4
v 2 15 4
v 3 13 4
v 3 15 4
v -7 5 3
v -7 14 3
v -6 4 3
v -6 5 3
v -6 14 3
v -6 15 3
v -5 15 3
v -5 16 3
v -3 2 3
v -3 4 3
v -3 13 3
v -3 15 3
v -2 4 3
v -2 8 3
v -2 12 3
v -2 13 3
v -2 15 3
v -1 12 3
v -1 15 3
v -1 16 3
v 1 4 3
v 1 8 3
v 1 12 3
v 1 15 3
v 1 16 3
v 2 12 3
v 2 13 3
v 2 15 3
v 3 2 3
v 3 4 3
v 3 13 3
v 3 15 3
v 5 15 3
v 5 16 3
v 6 4 3
v 6 5 3
v 6 14 3
v 6 15 3
v 7 5 3
v 7 14 3
v -8 5 2
v -8 13 2
v -7 4 2
v -7 5 2
v -7 13 2
v -7 14 2
v -7 15 2
v -6 3 2
v -6 4 2
v -6 5 2
v -6 14 2
v -6 15 2
v -6 16 2
v -5 15 2
v -5 16 2
v -4 2 2
v -4 3 2
v -3 2 2
v -3 3 2
v -3 4 2
v 3 2 2
v 3 3 2
v 3 4 2
v 4 2 2
v 4 3 2
v 5 15 2
v 5 16 2
v 6 3 2
v 6 4 2
v 6 5 2
v 6 14 2
v 6 15 2
v 6 16 2
v 7 4 2
v 7 5 2
v 7 13 2
v 7 14 2
v 7 15 2
v 8 5 2
v 8 13 2
v -8 4 1
v -8 5 1
v -8 13 1
v -8 14 1
v -7 3 1
v -7 4 1
v -7 5 1
v -7 13 1
v -7 14 1
v -7 15 1
v -7 16 1
v -6 3 1
v -6 4 1
v -6 15 1
v -6 16 1
v -3 0 1
v -3 1 1
v -3 2 1
v -3 3 1
v -1 0 1
v -1 1 1
v -1 2 1
v -1 3 1
v 1 0 1
v 1 1 1
v 1 2 1
v 1 3 1
v 3 0 1
v 3 1 1
v 3 2 1
v 3 3 1
v 6 3 1
v 6 4 1
v 6 15 1
v 6 16 1
v 7 3 1
v 7 4 1
v 7 5 1
v 7 13 1
v 7 14 1
v 7 15 1
v 7 16 1
v 8 4 1
v 8 5 1
v 8 13 1
v 8 14 1
v -8 14 -0
v -8 15 -0
v -7 14 -0
v -7 15 -0
v -3 1 -0
v -3 2 -0
v -1 1 -0
v -1 2 -0
v 1 1 -0
v 1 2 -0
v 3 1 -0
v 3 2 -0
v 7 14 -0
v 7 15 -0
v 8 14 -0
v 8 15 -0
v -3 2 2
v -3 3 2
v 3 2 2
v 3 3 2
v -4 2 -1
v -4 3 -1
v -3 1 -1
v -3 2 -1
v -2 2 -1
v -2 3 -1
v -1 1 -1
v -1 2 -1
v -1 3 -1
v 1 1 -1
v 1 2 -1
v 1 3 -1
v 2 2 -1
v 2 3 -1
v 3 1 -1
v 3 2 -1
v 4 2 -1
v 4 3 -1
v -3 0 -3
v -3 1 -3
v -1 0 -3
v -1 1 -3
v 1 0 -3
v 1 1 -3
v 3 0 -3
v 3 1 -3
v -8 4 -4
v -8 5 -4
v -8 14 -4
v -8 15 -4
v -7 3 -4
v -7 4 -4
v -7 5 -4
v -7 14 -4
v -7 15 -4
v -6 3 -4
v -6 4 -4
v 6 3 -4
v 6 4 -4
v 7 3 -4
v 7 4 -4
v 7 5 -4
v 7 14 -4
v 7 15 -4
v 8 4 -4
v 8 5 -4
v 8 14 -4
v 8 15 -4
v -8 5 -5
v -8 14 -5
v -7 5 -5
v -7 14 -5
v -7 15 -5
v -7 16 -5
v -6 3 -5
v -6 4 -5
v -6 15 -5
v -6 16 -5
v -5 3 -5
v -5 4 -5
v 5 3 -5
v 5 4 -5
v 6 3 -5
v 6 4 -5
v 6 15 -5
v 6 16 -5
v 7 5 -5
v 7 14 -5
v 7 15 -5
v 7 16 -5
v 8 5 -5
v 8 14 -5
v -7 4 -6
v -7 15 -6
v -6 4 -6
v -6 14 -6
v -6 15 -6
v -6 16 -6
v -5 3 -6
v -5 4 -6
v -5 14 -6
v -5 15 -6
v -4 3 -6
v -4 4 -6
v 4 3 -6
v 4 4 -6
v 5 3 -6
v 5 4 -6
v 5 14 -6
v 5 15 -6
v 6 4 -6
v 6 14 -6
v 6 15 -6
v 6 16 -6
v 7 4 -6
v 7 15 -6
v -6 4 -7
v -6 14 -7
v -5 5 -7
v -5 14 -7
v -5 15 -7
v -4 3 -7
v -4 4 -7
v -4 5 -7
v 4 3 -7
v 4 4 -7
v 4 5 -7
v 5 5 -7
v 5 14 -7
v 5 15 -7
v 6 4 -7
v 6 14 -7
v -5 5 -8
v -5 14 -8
v -4 4 -8
v -4 5 -8
v 4 4 -8
v 4 5 -8
v 5 5 -8
v 5 14 -8
v -3 0 1
v -1 0 1
v 1 0 1
v 3 0 1
v -2 0 -0
v -1 0 -0
v 1 0 -0
v 2 0 -0
v -2 0 -1
v -1 0 -1
v 1 0 -1
v 2 0 -1
v -3 0 -3
v -1 0 -3
v 1 0 -3
v 3 0 -3
v -3 2 3
v 3 2 3
v -4 2 2
v -3 2 2
v 3 2 2
v 4 2 2
v -3 2 1
v -1 2 1
v 1 2 1
v 3 2 1
v -3 2 -0
v -1 2 -0
v 1 2 -0
v 3 2 -0
v -4 2 -1
v -3 2 -1
v 3 2 -1
v 4 2 -1
v -6 3 2
v -4 3 2
v -3 3 2
v 3 3 2
v 4 3 2
v 6 3 2
v -7 3 1
v -6 3 1
v -3 3 1
v -1 3 1
v 1 3 1
v 3 3 1
v 6 3 1
v 7 3 1
v -1 3 -0
v 1 3 -0
v -4 3 -1
v -2 3 -1
v -1 3 -1
v 1 3 -1
v 2 3 -1
v 4 3 -1
v -7 3 -4
v -6 3 -4
v 6 3 -4
v 7 3 -4
v -6 3 -5
v -5 3 -5
v 5 3 -5
v 6 3 -5
v -5 3 -6
v -4 3 -6
v 4 3 -6
v 5 3 -6
v -4 3 -7
v 4 3 -7
v -2 4 4
v 1 4 4
v -6 4 3
v -3 4 3
v -2 4 3
v 1 4 3
v 3 4 3
v 6 4 3
v -7 4 2
v -6 4 2
v -3 4 2
v 3 4 2
v 6 4 2
v 7 4 2
v -8 4 1
v -7 4 1
v -6 4 1
v 6 4 1
v 7 4 1
v 8 4 1
v -8 4 -4
v -7 4 -4
v -6 4 -4
v 6 4 -4
v 7 4 -4
v 8 4 -4
v -6 4 -5
v -5 4 -5
v 5 4 -5
v 6 4 -5
v -7 4 -6
v -6 4 -6
v -5 4 -6
v -4 4 -6
v 4 4 -6
v 5 4 -6
v 6 4 -6
v 7 4 -6
v -6 4 -7
v -4 4 -7
v 4 4 -7
v 6 4 -7
v -4 4 -8
v 4 4 -8
v -7 5 3
v -6 5 3
v 6 5 3
v 7 5 3
v -8 5 2
v -7 5 2
v -6 5 2
v 6 5 2
v 7 5 2
v 8 5 2
v -8 5 1
v -7 5 1
v 7 5 1
v 8 5 1
v -8 5 -4
v -7 5 -4
v 7 5 -4
v 8 5 -4
v -8 5 -5
v -7 5 -5
v 7 5 -5
v 8 5 -5
v -5 5 -7
v -4 5 -7
v 4 5 -7
v 5 5 -7
v -5 5 -8
v -4 5 -8
v 4 5 -8
v 5 5 -8
v -1 12 5
v 1 12 5
v -2 12 4
v -1 12 4
v 1 12 4
v 2 12 4
v -2 12 3
v -1 12 3
v 1 12 3
v 2 12 3
v -3 13 4
v -2 13 4
v 2 13 4
v 3 13 4
v -3 13 3
v -2 13 3
v 2 13 3
v 3 13 3
v -3 1 1
v -1 1 1
v 1 1 1
v 3 1 1
v -3 1 -0
v -1 1 -0
v 1 1 -0
v 3 1 -0
v -3 1 -1
v -1 1 -1
v 1 1 -1
v 3 1 -1
v -3 1 -3
v -1 1 -3
v 1 1 -3
v 3 1 -3
v -2 8 4
v 1 8 4
v -2 8 3
v 1 8 3
v -8 13 2
v -7 13 2
v 7 13 2
v 8 13 2
v -8 13 1
v -7 13 1
v 7 13 1
v 8 13 1
v -7 14 3
v -6 14 3
v 6 14 3
v 7 14 3
v -7 14 2
v -6 14 2
v 6 14 2
v 7 14 2
v -8 14 1
v -7 14 1
v 7 14 1
v 8 14 1
v -8 14 -0
v -7 14 -0
v 7 14 -0
v 8 14 -0
v -8 14 -4
v -7 14 -4
v 7 14 -4
v 8 14 -4
v -8 14 -5
v -7 14 -5
v 7 14 -5
v 8 14 -5
v -6 14 -6
v -5 14 -6
v 5 14 -6
v 6 14 -6
v -6 14 -7
v -5 14 -7
v 5 14 -7
v 6 14 -7
v -5 14 -8
v 5 14 -8
v -1 15 5
v 1 15 5
v -3 15 4
v -2 15 4
v -1 15 4
v 1 15 4
v 2 15 4
v 3 15 4
v -6 15 3
v -5 15 3
v -3 15 3
v -2 15 3
v -1 15 3
v 1 15 3
v 2 15 3
v 3 15 3
v 5 15 3
v 6 15 3
v -7 15 2
v -6 15 2
v -5 15 2
v 5 15 2
v 6 15 2
v 7 15 2
v -7 15 1
v -6 15 1
v 6 15 1
v 7 15 1
v -8 15 -0
v -7 15 -0
v 7 15 -0
v 8 15 -0
v -8 15 -4
v -7 15 -4
v 7 15 -4
v 8 15 -4
v -7 15 -5
v -6 15 -5
v 6 15 -5
v 7 15 -5
v -7 15 -6
v -6 15 -6
v -5 15 -6
v 5 15 -6
v 6 15 -6
v 7 15 -6
v -5 15 -7
v 5 15 -7
v -1 16 4
v 1 16 4
v -5 16 3
v -1 16 3
v 1 16 3
v 5 16 3
v -6 16 2
v -5 16 2
v 5 16 2
v 6 16 2
v -7 16 1
v -6 16 1
v 6 16 1
v 7 16 1
v -7 16 -5
v -6 16 -5
v 6 16 -5
v 7 16 -5
v -6 16 -6
v 6 16 -6

# faces
f 4/7/1 2/7/1 1/7/1
f 5/7/1 2/7/1 4/7/1
f 7/7/1 4/7/1 3/7/1
f 7/7/1 6/7/1 5/7/1
f 7/7/1 5/7/1 4/7/1
f 8/7/1 6/7/1 7/7/1
f 9/7/1 6/7/1 8/7/1
f 10/7/1 6/7/1 9/7/1
f 11/7/1 6/7/1 10/7/1
f 12/7/1 6/7/1 11/7/1
f 13/7/1 11/7/1 10/7/1
f 14/7/1 11/7/1 13/7/1
f 18/7/1 16/7/1 15/7/1
f 19/7/1 16/7/1 18/7/1
f 22/7/1 18/7/1 17/7/1
f 23/7/1 18/7/1 22/7/1
f 24/7/1 20/7/1 19/7/1
f 25/7/1 20/7/1 24/7/1
f 26/7/1 22/7/1 21/7/1
f 28/7/1 26/7/1 21/7/1
f 28/7/1 27/7/1 26/7/1
f 29/7/1 27/7/1 28/7/1
f 30/7/1 27/7/1 29/7/1
f 33/7/1 20/7/1 25/7/1
f 34/7/1 31/7/1 30/7/1
f 34/7/1 30/7/1 29/7/1
f 35/7/1 31/7/1 34/7/1
f 36/7/1 31/7/1 35/7/1
f 37/7/1 33/7/1 32/7/1
f 38/7/1 20/7/1 33/7/1
f 38/7/1 33/7/1 37/7/1
f 39/7/1 20/7/1 38/7/1
f 40/7/1 36/7/1 35/7/1
f 40/7/1 37/7/1 36/7/1
f 40/7/1 38/7/1 37/7/1
f 41/7/1 38/7/1 40/7/1
f 47/7/1 43/7/1 42/7/1
f 48/7/1 43/7/1 47/7/1
f 49/7/1 45/7/1 44/7/1
f 50/7/1 45/7/1 49/7/1
f 53/7/1 47/7/1 46/7/1
f 54/7/1 47/7/1 53/7/1
f 57/7/1 52/7/1 51/7/1
f 58/7/1 52/7/1 57/7/1
f 59/7/1 56/7/1 55/7/1
f 60/7/1 56/7/1 59/7/1
f 64/7/1 61/7/1 60/7/1
f 65/7/1 61/7/1 64/7/1
f 66/7/1 63/7/1 62/7/1
f 67/7/1 63/7/1 66/7/1
f 70/7/1 69/7/1 68/7/1
f 71/7/1 69/7/1 70/7/1
f 75/7/1 73/7/1 72/7/1
f 76/7/1 73/7/1 75/7/1
f 79/7/1 75/7/1 74/7/1
f 80/7/1 75/7/1 79/7/1
f 81/7/1 78/7/1 77/7/1
f 82/7/1 78/7/1 81/7/1
f 85/5/1 84/5/1 83/5/1
f 86/5/1 84/5/1 85/5/1
f 89/7/1 88/7/1 87/7/1
f 90/7/1 88/7/1 89/7/1
f 92/7/1 91/7/1 90/7/1
f 93/7/1 91/7/1 92/7/1
f 96/3/1 95/3/1 94/3/1
f 97/3/1 95/3/1 96/3/1
f 98/3/1 95/3/1 97/3/1
f 99/3/1 95/3/1 98/3/1
f 102/2/1 98/2/1 97/2/1
f 103/2/1 98/2/1 102/2/1
f 104/5/1 101/5/1 100/5/1
f 105/5/1 104/5/1 100/5/1
f 106/5/1 104/5/1 105/5/1
f 109/4/1 108/4/1 107/4/1
f 110/4/1 108/4/1 109/4/1
f 113/5/1 112/5/1 111/5/1
f 114/5/1 112/5/1 113/5/1
f 117/8/1 116/8/1 115/8/1
f 118/8/1 116/8/1 117/8/1
f 121/8/1 120/8/1 119/8/1
f 122/8/1 120/8/1 121/8/1
f 123/9/1 122/9/1 121/9/1
f 124/9/1 122/9/1 123/9/1
f 125/10/1 124/10/1 123/10/1
f 126/10/1 124/10/1 125/10/1
f 128/11/1 127/11/1 126/11/1
f 129/11/1 127/11/1 128/11/1
f 134/3/1 131/3/1 130/3/1
f 135/2/1 132/2/1 131/2/1
f 135/3/1 131/3/1 134/3/1
f 136/3/1 133/3/1 132/3/1
f 136/2/1 132/2/1 135/2/1
f 137/3/1 133/3/1 136/3/1
f 139/2/1 136/2/1 135/2/1
f 140/2/1 136/2/1 139/2/1
f 141/5/1 139/5/1 138/5/1
f 142/6/1 140/6/1 139/6/1
f 142/5/1 139/5/1 141/5/1
f 143/6/1 140/6/1 142/6/1
f 146/5/1 145/5/1 144/5/1
f 147/5/1 145/5/1 146/5/1
f 148/5/2 149/5/2 150/5/2
f 150/5/2 149/5/2 151/5/2
f 152/3/2 153/3/2 156/3/2
f 153/2/2 154/2/2 157/2/2
f 156/3/2 153/3/2 157/3/2
f 154/3/2 155/3/2 158/3/2
f 157/2/2 154/2/2 158/2/2
f 158/3/2 155/3/2 159/3/2
f 157/2/2 158/2/2 161/2/2
f 161/2/2 158/2/2 162/2/2
f 160/5/2 161/5/2 163/5/2
f 161/6/2 162/6/2 164/6/2
f 163/5/2 161/5/2 164/5/2
f 164/6/2 162/6/2 165/6/2
f 166/5/2 167/5/2 168/5/2
f 168/5/2 167/5/2 169/5/2
f 170/8/2 171/8/2 172/8/2
f 172/8/2 171/8/2 173/8/2
f 172/9/2 173/9/2 174/9/2
f 174/9/2 173/9/2 175/9/2
f 174/10/2 175/10/2 176/10/2
f 176/10/2 175/10/2 177/10/2
f 177/11/2 178/11/2 179/11/2
f 179/11/2 178/11/2 180/11/2
f 181/8/2 182/8/2 183/8/2
f 183/8/2 182/8/2 184/8/2
f 185/3/2 186/3/2 187/3/2
f 187/3/2 186/3/2 188/3/2
f 188/3/2 186/3/2 189/3/2
f 189/3/2 186/3/2 190/3/2
f 188/2/2 189/2/2 193/2/2
f 193/2/2 189/2/2 194/2/2
f 191/5/2 192/5/2 195/5/2
f 191/5/2 195/5/2 196/5/2
f 196/5/2 195/5/2 197/5/2
f 198/4/2 199/4/2 200/4/2
f 200/4/2 199/4/2 201/4/2
f 202/5/2 203/5/2 204/5/2
f 204/5/2 203/5/2 205/5/2
f 206/7/2 207/7/2 208/7/2
f 208/7/2 207/7/2 209/7/2
f 209/7/2 210/7/2 211/7/2
f 211/7/2 210/7/2 212/7/2
f 213/7/2 214/7/2 215/7/2
f 215/7/2 214/7/2 216/7/2
f 217/7/2 218/7/2 220/7/2
f 220/7/2 218/7/2 221/7/2
f 219/7/2 220/7/2 224/7/2
f 224/7/2 220/7/2 225/7/2
f 222/7/2 223/7/2 226/7/2
f 226/7/2 223/7/2 227/7/2
f 228/7/2 229/7/2 233/7/2
f 233/7/2 229/7/2 234/7/2
f 230/7/2 231/7/2 235/7/2
f 235/7/2 231/7/2 236/7/2
f 232/7/2 233/7/2 239/7/2
f 239/7/2 233/7/2 240/7/2
f 237/7/2 238/7/2 243/7/2
f 243/7/2 238/7/2 244/7/2
f 241/7/2 242/7/2 245/7/2
f 245/7/2 242/7/2 246/7/2
f 246/7/2 247/7/2 250/7/2
f 250/7/2 247/7/2 251/7/2
f 248/7/2 249/7/2 252/7/2
f 252/7/2 249/7/2 253/7/2
f 254/7/2 255/7/2 257/7/2
f 257/7/2 255/7/2 258/7/2
f 256/7/2 257/7/2 261/7/2
f 261/7/2 257/7/2 262/7/2
f 258/7/2 259/7/2 263/7/2
f 263/7/2 259/7/2 264/7/2
f 260/7/2 261/7/2 265/7/2
f 260/7/2 265/7/2 267/7/2
f 265/7/2 266/7/2 267/7/2
f 267/7/2 266/7/2 268/7/2
f 268/7/2 266/7/2 269/7/2
f 264/7/2 259/7/2 272/7/2
f 269/7/2 270/7/2 273/7/2
f 268/7/2 269/7/2 273/7/2
f 273/7/2 270/7/2 274/7/2
f 274/7/2 270/7/2 275/7/2
f 271/7/2 272/7/2 276/7/2
f 272/7/2 259/7/2 277/7/2
f 276/7/2 272/7/2 277/7/2
f 277/7/2 259/7/2 278/7/2
f 274/7/2 275/7/2 279/7/2
f 275/7/2 276/7/2 279/7/2
f 276/7/2 277/7/2 279/7/2
f 279/7/2 277/7/2 280/7/2
f 281/7/2 282/7/2 284/7/2
f 284/7/2 282/7/2 285/7/2
f 283/7/2 284/7/2 287/7/2
f 285/7/2 286/7/2 287/7/2
f 284/7/2 285/7/2 287/7/2
f 287/7/2 286/7/2 288/7/2
f 288/7/2 286/7/2 289/7/2
f 289/7/2 286/7/2 290/7/2
f 290/7/2 286/7/2 291/7/2
f 291/7/2 286/7/2 292/7/2
f 290/7/2 291/7/2 293/7/2
f 293/7/2 291/7/2 294/7/2
f 299/8/3 296/8/3 295/8/3
f 300/9/3 297/9/3 296/9/3
f 300/8/3 296/8/3 299/8/3
f 301/10/3 298/10/3 297/10/3
f 301/9/3 297/9/3 300/9/3
f 302/10/3 298/10/3 301/10/3
f 308/4/3 304/4/3 303/4/3
f 309/4/3 304/4/3 308/4/3
f 310/4/3 304/4/3 309/4/3
f 311/8/3 308/8/3 307/8/3
f 312/9/3 309/9/3 308/9/3
f 312/8/3 308/8/3 311/8/3
f 313/10/3 310/10/3 309/10/3
f 313/9/3 309/9/3 312/9/3
f 314/10/3 310/10/3 313/10/3
f 316/5/3 306/5/3 305/5/3
f 317/5/3 306/5/3 316/5/3
f 321/11/3 315/11/3 314/11/3
f 322/11/3 315/11/3 321/11/3
f 323/8/3 319/8/3 318/8/3
f 324/9/3 320/9/3 319/9/3
f 324/8/3 319/8/3 323/8/3
f 325/10/3 321/10/3 320/10/3
f 325/9/3 320/9/3 324/9/3
f 326/10/3 321/10/3 325/10/3
f 327/4/3 325/4/3 324/4/3
f 327/4/3 326/4/3 325/4/3
f 328/4/3 326/4/3 327/4/3
f 332/7/3 330/7/3 329/7/3
f 333/7/3 330/7/3 332/7/3
f 335/7/3 332/7/3 331/7/3
f 335/7/3 334/7/3 333/7/3
f 335/7/3 333/7/3 332/7/3
f 338/7/3 335/7/3 331/7/3
f 338/7/3 336/7/3 335/7/3
f 339/7/3 336/7/3 338/7/3
f 340/7/3 336/7/3 339/7/3
f 341/5/3 338/5/3 337/5/3
f 341/7/3 339/7/3 338/7/3
f 342/7/3 339/7/3 341/7/3
f 343/7/3 339/7/3 342/7/3
f 344/7/3 339/7/3 343/7/3
f 345/7/3 336/7/3 340/7/3
f 346/7/3 343/7/3 342/7/3
f 347/7/3 336/7/3 345/7/3
f 348/7/3 336/7/3 347/7/3
f 349/5/3 341/5/3 337/5/3
f 350/7/3 346/7/3 342/7/3
f 351/7/3 346/7/3 350/7/3
f 354/7/3 350/7/3 349/7/3
f 354/7/3 351/7/3 350/7/3
f 356/7/3 353/7/3 352/7/3
f 357/5/3 349/5/3 337/5/3
f 358/7/3 355/7/3 354/7/3
f 358/5/3 349/5/3 357/5/3
f 358/7/3 354/7/3 349/7/3
f 359/7/3 355/7/3 358/7/3
f 360/7/3 353/7/3 356/7/3
f 361/7/3 359/7/3 358/7/3
f 361/7/3 360/7/3 359/7/3
f 361/7/3 353/7/3 360/7/3
f 362/7/3 353/7/3 361/7/3
f 363/7/3 361/7/3 358/7/3
f 364/7/3 361/7/3 363/7/3
f 365/7/3 361/7/3 364/7/3
f 366/7/3 361/7/3 365/7/3
f 367/7/3 365/7/3 364/7/3
f 368/7/3 365/7/3 367/7/3
f 372/7/3 370/7/3 369/7/3
f 373/7/3 370/7/3 372/7/3
f 377/7/3 372/7/3 371/7/3
f 378/7/3 372/7/3 377/7/3
f 379/7/3 375/7/3 374/7/3
f 380/7/3 375/7/3 379/7/3
f 382/7/3 381/7/3 380/7/3
f 383/7/3 381/7/3 382/7/3
f 385/7/3 377/7/3 376/7/3
f 386/5/3 385/5/3 384/5/3
f 387/7/3 377/7/3 385/7/3
f 387/5/3 385/5/3 386/5/3
f 388/7/3 377/7/3 387/7/3
f 392/5/3 390/5/3 389/5/3
f 393/7/3 391/7/3 390/7/3
f 393/5/3 390/5/3 392/5/3
f 396/7/3 391/7/3 393/7/3
f 397/7/3 391/7/3 396/7/3
f 400/7/3 395/7/3 394/7/3
f 401/7/3 395/7/3 400/7/3
f 402/7/3 398/7/3 397/7/3
f 403/7/3 398/7/3 402/7/3
f 405/7/3 400/7/3 399/7/3
f 406/7/3 400/7/3 405/7/3
f 407/7/3 404/7/3 403/7/3
f 408/7/3 404/7/3 407/7/3
f 414/7/3 410/7/3 409/7/3
f 415/7/3 410/7/3 414/7/3
f 416/7/3 412/7/3 411/7/3
f 417/7/3 412/7/3 416/7/3
f 420/7/3 414/7/3 413/7/3
f 421/7/3 414/7/3 420/7/3
f 422/7/3 419/7/3 418/7/3
f 423/7/3 419/7/3 422/7/3
f 428/3/3 425/3/3 424/3/3
f 429/3/3 425/3/3 428/3/3
f 430/5/3 427/5/3 426/5/3
f 431/5/3 427/5/3 430/5/3
f 436/3/3 433/3/3 432/3/3
f 437/3/3 433/3/3 436/3/3
f 438/5/3 435/5/3 434/5/3
f 439/5/3 435/5/3 438/5/3
f 444/7/3 441/7/3 440/7/3
f 445/7/3 441/7/3 444/7/3
f 449/7/3 443/7/3 442/7/3
f 450/7/3 443/7/3 449/7/3
f 451/7/3 446/7/3 445/7/3
f 452/7/3 446/7/3 451/7/3
f 453/7/3 448/7/3 447/7/3
f 454/7/3 448/7/3 453/7/3
f 457/7/3 456/7/3 455/7/3
f 458/7/3 456/7/3 457/7/3
f 461/2/3 460/2/3 459/2/3
f 462/2/3 460/2/3 461/2/3
f 465/2/3 464/2/3 463/2/3
f 466/2/3 464/2/3 465/2/3
f 469/7/3 468/7/3 467/7/3
f 470/7/3 468/7/3 469/7/3
f 471/5/4 472/5/4 473/5/4
f 473/5/4 472/5/4 474/5/4
f 475/5/4 476/5/4 478/5/4
f 478/5/4 476/5/4 479/5/4
f 477/2/4 478/2/4 479/2/4
f 479/5/4 476/5/4 480/5/4
f 477/2/4 479/2/4 481/2/4
f 479/6/4 480/6/4 482/6/4
f 481/2/4 479/2/4 482/2/4
f 482/6/4 480/6/4 483/6/4
f 484/2/4 485/2/4 487/2/4
f 485/6/4 486/6/4 487/6/4
f 487/6/4 486/6/4 488/6/4
f 484/2/4 487/2/4 489/2/4
f 487/5/4 488/5/4 490/5/4
f 489/2/4 487/2/4 490/2/4
f 490/5/4 488/5/4 491/5/4
f 491/5/4 488/5/4 492/5/4
f 493/3/4 494/3/4 495/3/4
f 495/3/4 494/3/4 496/3/4
f 497/3/4 498/3/4 499/3/4
f 499/3/4 498/3/4 500/3/4
f 501/7/4 502/7/4 506/7/4
f 506/7/4 502/7/4 507/7/4
f 503/7/4 504/7/4 508/7/4
f 508/7/4 504/7/4 509/7/4
f 505/7/4 506/7/4 510/7/4
f 510/7/4 506/7/4 511/7/4
f 512/7/4 513/7/4 514/7/4
f 514/7/4 513/7/4 515/7/4
f 515/7/4 516/7/4 519/7/4
f 519/7/4 516/7/4 520/7/4
f 517/7/4 518/7/4 521/7/4
f 521/7/4 518/7/4 522/7/4
f 523/7/4 524/7/4 525/7/4
f 525/7/4 524/7/4 526/7/4
f 527/7/4 528/7/4 531/7/4
f 531/7/4 528/7/4 532/7/4
f 529/7/4 530/7/4 533/7/4
f 533/7/4 530/7/4 534/7/4
f 535/7/4 536/7/4 537/7/4
f 537/7/4 536/7/4 538/7/4
f 539/7/4 540/7/4 543/7/4
f 543/7/4 540/7/4 544/7/4
f 541/7/4 542/7/4 545/7/4
f 545/7/4 542/7/4 546/7/4
f 547/7/4 548/7/4 549/7/4
f 549/7/4 548/7/4 550/7/4
f 550/7/4 548/7/4 551/7/4
f 551/7/4 552/7/4 555/7/4
f 550/7/4 551/7/4 555/7/4
f 555/7/4 552/7/4 556/7/4
f 553/7/4 554/7/4 557/7/4
f 557/7/4 554/7/4 558/7/4
f 559/7/4 560/7/4 561/7/4
f 561/7/4 560/7/4 562/7/4
f 556/7/4 552/7/4 564/7/4
f 563/7/4 564/7/4 566/7/4
f 564/7/4 552/7/4 567/7/4
f 566/7/4 564/7/4 567/7/4
f 567/7/4 552/7/4 568/7/4
f 565/7/4 566/7/4 569/7/4
f 566/7/4 567/7/4 569/7/4
f 569/7/4 567/7/4 570/7/4
f 571/7/4 572/7/4 573/7/4
f 573/7/4 572/7/4 574/7/4
f 571/7/4 573/7/4 577/7/4
f 577/7/4 573/7/4 578/7/4
f 576/7/4 577/7/4 579/7/4
f 579/7/4 577/7/4 580/7/4
f 580/7/4 581/7/4 582/7/4
f 574/7/4 575/7/4 583/7/4
f 583/7/4 575/7/4 584/7/4
f 580/7/4 582/7/4 585/7/4
f 582/7/4 583/7/4 585/7/4
f 585/7/4 583/7/4 586/7/4
f 587/7/4 588/7/4 590/7/4
f 589/7/4 590/7/4 591/7/4
f 590/7/4 588/7/4 592/7/4
f 591/7/4 590/7/4 592/7/4
f 592/7/4 588/7/4 593/7/4
f 593/7/4 588/7/4 594/7/4
f 599/3/5 596/3/5 595/3/5
f 600/3/5 596/3/5 599/3/5
f 601/3/5 598/3/5 597/3/5
f 602/3/5 598/3/5 601/3/5
f 603/2/5 600/2/5 599/2/5
f 603/3/5 599/3/5 595/3/5
f 604/2/5 600/2/5 603/2/5
f 605/2/5 602/2/5 601/2/5
f 606/3/5 598/3/5 602/3/5
f 606/2/5 602/2/5 605/2/5
f 607/3/5 604/3/5 603/3/5
f 607/3/5 603/3/5 595/3/5
f 608/3/5 604/3/5 607/3/5
f 609/3/5 606/3/5 605/3/5
f 610/3/5 598/3/5 606/3/5
f 610/3/5 606/3/5 609/3/5
f 614/5/5 612/5/5 611/5/5
f 615/5/5 612/5/5 614/5/5
f 617/5/5 614/5/5 613/5/5
f 620/5/5 616/5/5 615/5/5
f 621/5/5 618/5/5 617/5/5
f 621/5/5 617/5/5 613/5/5
f 622/5/5 618/5/5 621/5/5
f 623/5/5 620/5/5 619/5/5
f 624/5/5 616/5/5 620/5/5
f 624/5/5 620/5/5 623/5/5
f 625/5/5 621/5/5 613/5/5
f 626/5/5 621/5/5 625/5/5
f 627/5/5 616/5/5 624/5/5
f 628/5/5 616/5/5 627/5/5
f 636/7/5 630/7/5 629/7/5
f 637/7/5 632/7/5 631/7/5
f 638/7/5 632/7/5 637/7/5
f 639/7/5 632/7/5 638/7/5
f 640/7/5 632/7/5 639/7/5
f 641/7/5 634/7/5 633/7/5
f 643/7/5 639/7/5 638/7/5
f 644/7/5 639/7/5 643/7/5
f 645/7/5 636/7/5 635/7/5
f 645/7/5 630/7/5 636/7/5
f 647/7/5 644/7/5 643/7/5
f 648/7/5 644/7/5 647/7/5
f 650/7/5 642/7/5 641/7/5
f 650/7/5 641/7/5 633/7/5
f 651/7/5 649/7/5 648/7/5
f 651/7/5 650/7/5 649/7/5
f 651/7/5 648/7/5 647/7/5
f 651/7/5 646/7/5 645/7/5
f 651/7/5 647/7/5 646/7/5
f 651/7/5 645/7/5 635/7/5
f 652/7/5 650/7/5 651/7/5
f 653/7/5 642/7/5 650/7/5
f 653/7/5 650/7/5 652/7/5
f 654/7/5 642/7/5 653/7/5
f 655/7/5 653/7/5 652/7/5
f 656/7/5 653/7/5 655/7/5
f 657/7/5 653/7/5 656/7/5
f 658/7/5 653/7/5 657/7/5
f 659/7/5 657/7/5 656/7/5
f 660/7/5 657/7/5 659/7/5
f 661/7/5 657/7/5 660/7/5
f 662/7/5 657/7/5 661/7/5
f 663/7/5 661/7/5 660/7/5
f 664/7/5 661/7/5 663/7/5
f 669/5/5 666/5/5 665/5/5
f 670/5/5 666/5/5 669/5/5
f 674/7/5 668/7/5 667/7/5
f 675/7/5 668/7/5 674/7/5
f 676/7/5 672/7/5 671/7/5
f 677/7/5 672/7/5 676/7/5
f 680/7/5 674/7/5 673/7/5
f 681/7/5 674/7/5 680/7/5
f 682/7/5 678/7/5 677/7/5
f 683/7/5 678/7/5 682/7/5
f 685/7/5 680/7/5 679/7/5
f 686/7/5 680/7/5 685/7/5
f 689/7/5 684/7/5 683/7/5
f 690/7/5 684/7/5 689/7/5
f 691/7/5 687/7/5 686/7/5
f 694/7/5 689/7/5 688/7/5
f 695/7/5 692/7/5 691/7/5
f 695/7/5 691/7/5 686/7/5
f 696/7/5 692/7/5 695/7/5
f 697/7/5 692/7/5 696/7/5
f 700/7/5 694/7/5 693/7/5
f 701/7/5 689/7/5 694/7/5
f 701/7/5 694/7/5 700/7/5
f 702/7/5 689/7/5 701/7/5
f 703/7/5 698/7/5 697/7/5
f 703/7/5 697/7/5 696/7/5
f 704/7/5 698/7/5 703/7/5
f 705/7/5 700/7/5 699/7/5
f 705/7/5 701/7/5 700/7/5
f 706/7/5 701/7/5 705/7/5
f 707/7/5 705/7/5 704/7/5
f 708/7/5 705/7/5 707/7/5
f 714/7/5 710/7/5 709/7/5
f 715/7/5 710/7/5 714/7/5
f 716/7/5 712/7/5 711/7/5
f 717/7/5 712/7/5 716/7/5
f 719/7/5 714/7/5 713/7/5
f 720/7/5 714/7/5 719/7/5
f 721/7/5 718/7/5 717/7/5
f 722/7/5 718/7/5 721/7/5
f 727/7/5 724/7/5 723/7/5
f 728/7/5 724/7/5 727/7/5
f 729/7/5 726/7/5 725/7/5
f 730/7/5 726/7/5 729/7/5
f 735/7/5 732/7/5 731/7/5
f 736/7/5 732/7/5 735/7/5
f 737/7/5 734/7/5 733/7/5
f 738/7/5 734/7/5 737/7/5
f 742/8/5 740/8/5 739/8/5
f 743/8/5 740/8/5 742/8/5
f 745/8/5 742/8/5 741/8/5
f 746/12/5 743/12/5 742/12/5
f 746/8/5 742/8/5 745/8/5
f 747/8/5 744/8/5 743/8/5
f 747/12/5 743/12/5 746/12/5
f 748/8/5 744/8/5 747/8/5
f 753/4/5 750/4/5 749/4/5
f 754/4/5 750/4/5 753/4/5
f 755/4/5 752/4/5 751/4/5
f 756/4/5 752/4/5 755/4/5
f 757/3/6 758/3/6 761/3/6
f 761/3/6 758/3/6 762/3/6
f 759/3/6 760/3/6 763/3/6
f 763/3/6 760/3/6 764/3/6
f 765/3/6 766/3/6 769/3/6
f 769/3/6 766/3/6 770/3/6
f 767/3/6 768/3/6 771/3/6
f 771/3/6 768/3/6 772/3/6
f 773/5/6 774/5/6 775/5/6
f 775/5/6 774/5/6 776/5/6
f 777/7/6 778/7/6 781/7/6
f 781/7/6 778/7/6 782/7/6
f 779/7/6 780/7/6 783/7/6
f 783/7/6 780/7/6 784/7/6
f 785/7/6 786/7/6 789/7/6
f 789/7/6 786/7/6 790/7/6
f 787/7/6 788/7/6 791/7/6
f 791/7/6 788/7/6 792/7/6
f 793/7/6 794/7/6 797/7/6
f 797/7/6 794/7/6 798/7/6
f 795/7/6 796/7/6 799/7/6
f 799/7/6 796/7/6 800/7/6
f 801/7/6 802/7/6 805/7/6
f 805/7/6 802/7/6 806/7/6
f 803/7/6 804/7/6 807/7/6
f 807/7/6 804/7/6 808/7/6
f 809/7/6 810/7/6 813/7/6
f 813/7/6 810/7/6 814/7/6
f 811/7/6 812/7/6 815/7/6
f 815/7/6 812/7/6 816/7/6
f 814/7/6 815/7/6 817/7/6
f 817/7/6 815/7/6 818/7/6
f 819/10/6 820/10/6 823/10/6
f 823/10/6 820/10/6 824/10/6
f 821/4/6 822/4/6 829/4/6
f 822/10/6 823/10/6 830/10/6
f 829/4/6 822/4/6 830/4/6
f 830/10/6 823/10/6 831/10/6
f 824/10/6 825/10/6 832/10/6
f 825/4/6 826/4/6 833/4/6
f 832/10/6 825/10/6 833/10/6
f 833/4/6 826/4/6 834/4/6
f 827/7/6 828/7/6 838/7/6
f 838/7/6 828/7/6 839/7/6
f 835/7/6 836/7/6 840/7/6
f 840/7/6 836/7/6 841/7/6
f 837/7/6 838/7/6 843/7/6
f 843/7/6 838/7/6 844/7/6
f 841/7/6 842/7/6 845/7/6
f 845/7/6 842/7/6 846/7/6
f 847/7/6 848/7/6 851/7/6
f 851/7/6 848/7/6 852/7/6
f 849/7/6 850/7/6 853/7/6
f 853/7/6 850/7/6 854/7/6
f 855/7/6 856/7/6 859/7/6
f 859/7/6 856/7/6 860/7/6
f 857/7/6 858/7/6 863/7/6
f 863/7/6 858/7/6 864/7/6
f 861/7/6 862/7/6 865/7/6
f 865/7/6 862/7/6 866/7/6
f 867/11/6 868/11/6 870/11/6
f 870/11/6 868/11/6 871/11/6
f 869/7/6 870/7/6 874/7/6
f 871/7/6 872/7/6 874/7/6
f 870/7/6 871/7/6 874/7/6
f 874/7/6 872/7/6 875/7/6
f 873/7/6 874/7/6 878/7/6
f 875/7/6 876/7/6 878/7/6
f 874/7/6 875/7/6 878/7/6
f 878/7/6 876/7/6 879/7/6
f 877/7/6 878/7/6 881/7/6
f 879/7/6 880/7/6 881/7/6
f 878/7/6 879/7/6 881/7/6
f 881/7/6 880/7/6 882/7/6
f 882/7/6 880/7/6 883/7/6
f 883/7/6 880/7/6 884/7/6
f 882/7/6 883/7/6 885/7/6
f 885/7/6 883/7/6 886/7/6
