# MagicaVoxel @ Ephtracy

# material
mtllib big_floors_vial_blue.mtl
usemtl palette

# normals
vn -1 0 0
vn 1 0 0
vn 0 0 1
vn 0 0 -1
vn 0 -1 0
vn 0 1 0

# texcoords
vt 0.376953 0.5
vt 0.388672 0.5
vt 0.396484 0.5
vt 0.404297 0.5
vt 0.412109 0.5
vt 0.419922 0.5

# verts
v -7 0 2
v -7 0 1
v -7 0 -0
v -7 0 -1
v -7 1 2
v -7 1 1
v -7 1 -0
v -7 1 -1
v -7 2 1
v -7 2 -0
v -6 0 1
v -6 0 -0
v -6 1 1
v -6 1 -0
v -5 0 -2
v -5 0 -3
v -5 0 -6
v -5 0 -7
v -5 1 -1
v -5 1 -2
v -5 1 -3
v -5 1 -4
v -5 1 -6
v -5 1 -7
v -5 2 -1
v -5 2 -2
v -5 2 -3
v -5 2 -4
v -5 3 -2
v -5 3 -3
v -4 0 -1
v -4 0 -2
v -4 0 -3
v -4 0 -4
v -4 0 -5
v -4 0 -6
v -4 1 -1
v -4 1 -2
v -4 1 -3
v -4 1 -4
v -4 1 -5
v -4 1 -6
v -4 1 -7
v -4 2 -2
v -4 2 -3
v -4 2 -6
v -4 2 -7
v -3 0 -6
v -3 0 -7
v -3 1 -6
v -3 1 -7
v -2 0 -2
v -2 0 -3
v -2 1 -2
v -2 1 -3
v -1 1 -4
v -1 1 -5
v -1 2 -4
v -1 2 -5
v 0 0 1
v 0 0 -0
v 0 0 -1
v 0 0 -4
v 0 0 -5
v 0 1 1
v 0 1 -0
v 0 1 -1
v 0 1 -2
v 0 1 -3
v 0 1 -4
v 0 1 -5
v 0 2 -1
v 0 2 -2
v 0 2 -3
v 0 2 -4
v 0 2 -5
v 0 3 -4
v 0 3 -5
v 1 1 -4
v 1 1 -5
v 1 2 -4
v 1 2 -5
v -6 0 2
v -6 0 1
v -6 0 -0
v -6 0 -1
v -6 1 2
v -6 1 1
v -6 1 -0
v -6 1 -1
v -6 2 1
v -6 2 -0
v -4 0 -6
v -4 0 -7
v -4 1 -1
v -4 1 -2
v -4 1 -3
v -4 1 -4
v -4 1 -6
v -4 1 -7
v -4 2 -1
v -4 2 -2
v -4 2 -3
v -4 2 -4
v -4 3 -2
v -4 3 -3
v -3 0 -1
v -3 0 -2
v -3 0 -3
v -3 0 -4
v -3 0 -5
v -3 0 -6
v -3 1 -1
v -3 1 -2
v -3 1 -3
v -3 1 -4
v -3 1 -5
v -3 1 -6
v -3 1 -7
v -3 2 -6
v -3 2 -7
v -2 0 -6
v -2 0 -7
v -2 1 -2
v -2 1 -3
v -2 1 -6
v -2 1 -7
v -2 2 -2
v -2 2 -3
v -1 0 1
v -1 0 -0
v -1 1 1
v -1 1 -0
v 0 1 -4
v 0 1 -5
v 0 2 -4
v 0 2 -5
v 1 0 1
v 1 0 -0
v 1 0 -1
v 1 0 -2
v 1 0 -3
v 1 0 -4
v 1 0 -5
v 1 1 1
v 1 1 -0
v 1 1 -1
v 1 1 -2
v 1 1 -3
v 1 1 -4
v 1 1 -5
v 1 2 -1
v 1 2 -2
v 1 2 -3
v 1 2 -4
v 1 2 -5
v 1 3 -4
v 1 3 -5
v 2 1 -4
v 2 1 -5
v 2 2 -4
v 2 2 -5
v -7 0 2
v -7 1 2
v -6 0 2
v -6 1 2
v -7 1 1
v -7 2 1
v -6 0 1
v -6 1 1
v -6 2 1
v -5 0 1
v -5 1 1
v -4 0 1
v -4 1 1
v -3 0 1
v -3 1 1
v -2 0 1
v -2 1 1
v -1 0 1
v -1 1 1
v 0 0 1
v 0 1 1
v 1 0 1
v 1 1 1
v -7 0 -0
v -7 1 -0
v -6 0 -0
v -6 1 -0
v -5 1 -1
v -5 2 -1
v -4 0 -1
v -4 1 -1
v -4 2 -1
v -3 0 -1
v -3 1 -1
v 0 1 -1
v 0 2 -1
v 1 1 -1
v 1 2 -1
v -5 0 -2
v -5 1 -2
v -5 2 -2
v -5 3 -2
v -4 0 -2
v -4 1 -2
v -4 2 -2
v -4 3 -2
v -3 1 -2
v -3 2 -2
v -2 0 -2
v -2 1 -2
v -2 2 -2
v -1 0 -2
v -1 1 -2
v 0 0 -2
v 0 1 -2
v 1 0 -2
v 1 1 -2
v -5 1 -3
v -5 2 -3
v -4 1 -3
v -4 2 -3
v -1 1 -4
v -1 2 -4
v 0 0 -4
v 0 1 -4
v 0 2 -4
v 0 3 -4
v 1 0 -4
v 1 1 -4
v 1 2 -4
v 1 3 -4
v 2 1 -4
v 2 2 -4
v -5 0 -6
v -5 1 -6
v -4 0 -6
v -4 1 -6
v -4 2 -6
v -3 0 -6
v -3 1 -6
v -3 2 -6
v -2 0 -6
v -2 1 -6
v -7 0 1
v -7 1 1
v -6 0 1
v -6 1 1
v -7 1 -0
v -7 2 -0
v -6 0 -0
v -6 1 -0
v -6 2 -0
v -5 0 -0
v -5 1 -0
v -4 0 -0
v -4 1 -0
v -3 0 -0
v -3 1 -0
v -2 0 -0
v -2 1 -0
v -1 0 -0
v -1 1 -0
v -7 0 -1
v -7 1 -1
v -6 0 -1
v -6 1 -1
v 0 0 -1
v 0 1 -1
v 1 0 -1
v 1 1 -1
v -5 1 -2
v -5 2 -2
v -4 1 -2
v -4 2 -2
v -5 0 -3
v -5 1 -3
v -5 2 -3
v -5 3 -3
v -4 0 -3
v -4 1 -3
v -4 2 -3
v -4 3 -3
v -3 1 -3
v -3 2 -3
v -2 0 -3
v -2 1 -3
v -2 2 -3
v -1 0 -3
v -1 1 -3
v 0 0 -3
v 0 1 -3
v 1 0 -3
v 1 1 -3
v -5 1 -4
v -5 2 -4
v -4 1 -4
v -4 2 -4
v 0 1 -4
v 0 2 -4
v 1 1 -4
v 1 2 -4
v -1 1 -5
v -1 2 -5
v 0 0 -5
v 0 1 -5
v 0 2 -5
v 0 3 -5
v 1 0 -5
v 1 1 -5
v 1 2 -5
v 1 3 -5
v 2 1 -5
v 2 2 -5
v -4 0 -6
v -4 1 -6
v -3 0 -6
v -3 1 -6
v -5 0 -7
v -5 1 -7
v -4 0 -7
v -4 1 -7
v -4 2 -7
v -3 0 -7
v -3 1 -7
v -3 2 -7
v -2 0 -7
v -2 1 -7
v -7 0 2
v -6 0 2
v -7 0 1
v -6 0 1
v -5 0 1
v -4 0 1
v -3 0 1
v -2 0 1
v -1 0 1
v 0 0 1
v 1 0 1
v -7 0 -0
v -6 0 -0
v -5 0 -0
v -4 0 -0
v -3 0 -0
v -2 0 -0
v -1 0 -0
v 0 0 -0
v 1 0 -0
v -7 0 -1
v -6 0 -1
v -4 0 -1
v -3 0 -1
v 0 0 -1
v 1 0 -1
v -5 0 -2
v -4 0 -2
v -3 0 -2
v -2 0 -2
v -1 0 -2
v 0 0 -2
v 1 0 -2
v -5 0 -3
v -4 0 -3
v -3 0 -3
v -2 0 -3
v -1 0 -3
v 0 0 -3
v 1 0 -3
v -4 0 -4
v -3 0 -4
v 0 0 -4
v 1 0 -4
v -4 0 -5
v -3 0 -5
v 0 0 -5
v 1 0 -5
v -5 0 -6
v -4 0 -6
v -3 0 -6
v -2 0 -6
v -5 0 -7
v -4 0 -7
v -3 0 -7
v -2 0 -7
v -7 1 1
v -6 1 1
v -7 1 -0
v -6 1 -0
v -5 1 -1
v -4 1 -1
v 0 1 -1
v 1 1 -1
v -5 1 -2
v -4 1 -2
v -3 1 -2
v -2 1 -2
v 0 1 -2
v 1 1 -2
v -5 1 -3
v -4 1 -3
v -3 1 -3
v -2 1 -3
v 0 1 -3
v 1 1 -3
v -5 1 -4
v -4 1 -4
v -1 1 -4
v 0 1 -4
v 1 1 -4
v 2 1 -4
v -1 1 -5
v 0 1 -5
v 1 1 -5
v 2 1 -5
v -4 1 -6
v -3 1 -6
v -4 1 -7
v -3 1 -7
v -5 2 -2
v -4 2 -2
v -5 2 -3
v -4 2 -3
v 0 2 -4
v 1 2 -4
v 0 2 -5
v 1 2 -5
v -7 1 2
v -6 1 2
v -7 1 1
v -6 1 1
v -5 1 1
v -4 1 1
v -3 1 1
v -2 1 1
v -1 1 1
v 0 1 1
v 1 1 1
v -7 1 -0
v -6 1 -0
v -5 1 -0
v -4 1 -0
v -3 1 -0
v -2 1 -0
v -1 1 -0
v 0 1 -0
v 1 1 -0
v -7 1 -1
v -6 1 -1
v -4 1 -1
v -3 1 -1
v 0 1 -1
v 1 1 -1
v -5 1 -2
v -4 1 -2
v -3 1 -2
v -2 1 -2
v -1 1 -2
v 0 1 -2
v -5 1 -3
v -4 1 -3
v -3 1 -3
v -2 1 -3
v -1 1 -3
v 0 1 -3
v -4 1 -4
v -3 1 -4
v 0 1 -4
v 1 1 -4
v -4 1 -5
v -3 1 -5
v 0 1 -5
v 1 1 -5
v -5 1 -6
v -4 1 -6
v -3 1 -6
v -2 1 -6
v -5 1 -7
v -4 1 -7
v -3 1 -7
v -2 1 -7
v -7 2 1
v -6 2 1
v -7 2 -0
v -6 2 -0
v -5 2 -1
v -4 2 -1
v 0 2 -1
v 1 2 -1
v -5 2 -2
v -4 2 -2
v -3 2 -2
v -2 2 -2
v 0 2 -2
v 1 2 -2
v -5 2 -3
v -4 2 -3
v -3 2 -3
v -2 2 -3
v 0 2 -3
v 1 2 -3
v -5 2 -4
v -4 2 -4
v -1 2 -4
v 0 2 -4
v 1 2 -4
v 2 2 -4
v -1 2 -5
v 0 2 -5
v 1 2 -5
v 2 2 -5
v -4 2 -6
v -3 2 -6
v -4 2 -7
v -3 2 -7
v -5 3 -2
v -4 3 -2
v -5 3 -3
v -4 3 -3
v 0 3 -4
v 1 3 -4
v 0 3 -5
v 1 3 -5

# faces
f 5/1/1 2/1/1 1/1/1
f 6/1/1 2/1/1 5/1/1
f 7/1/1 4/1/1 3/1/1
f 8/1/1 4/1/1 7/1/1
f 9/1/1 7/1/1 6/1/1
f 10/1/1 7/1/1 9/1/1
f 13/2/1 12/2/1 11/2/1
f 14/2/1 12/2/1 13/2/1
f 20/1/1 16/1/1 15/1/1
f 21/1/1 16/1/1 20/1/1
f 23/1/1 18/1/1 17/1/1
f 24/1/1 18/1/1 23/1/1
f 25/1/1 20/1/1 19/1/1
f 26/1/1 20/1/1 25/1/1
f 27/1/1 22/1/1 21/1/1
f 28/1/1 22/1/1 27/1/1
f 29/1/1 27/1/1 26/1/1
f 30/1/1 27/1/1 29/1/1
f 37/6/1 32/6/1 31/6/1
f 38/6/1 32/6/1 37/6/1
f 39/4/1 34/4/1 33/4/1
f 40/3/1 35/3/1 34/3/1
f 40/4/1 34/4/1 39/4/1
f 41/2/1 36/2/1 35/2/1
f 41/3/1 35/3/1 40/3/1
f 42/2/1 36/2/1 41/2/1
f 44/2/1 39/2/1 38/2/1
f 45/2/1 39/2/1 44/2/1
f 46/3/1 43/3/1 42/3/1
f 47/3/1 43/3/1 46/3/1
f 50/1/1 49/1/1 48/1/1
f 51/1/1 49/1/1 50/1/1
f 54/4/1 53/4/1 52/4/1
f 55/4/1 53/4/1 54/4/1
f 58/1/1 57/1/1 56/1/1
f 59/1/1 57/1/1 58/1/1
f 65/6/1 61/6/1 60/6/1
f 66/5/1 62/5/1 61/5/1
f 66/6/1 61/6/1 65/6/1
f 67/5/1 62/5/1 66/5/1
f 70/1/1 64/1/1 63/1/1
f 71/1/1 64/1/1 70/1/1
f 72/4/1 68/4/1 67/4/1
f 73/3/1 69/3/1 68/3/1
f 73/4/1 68/4/1 72/4/1
f 74/2/1 70/2/1 69/2/1
f 74/3/1 69/3/1 73/3/1
f 75/2/1 70/2/1 74/2/1
f 77/1/1 76/1/1 75/1/1
f 78/1/1 76/1/1 77/1/1
f 81/1/1 80/1/1 79/1/1
f 82/1/1 80/1/1 81/1/1
f 83/1/2 84/1/2 87/1/2
f 87/1/2 84/1/2 88/1/2
f 85/1/2 86/1/2 89/1/2
f 89/1/2 86/1/2 90/1/2
f 88/1/2 89/1/2 91/1/2
f 91/1/2 89/1/2 92/1/2
f 93/1/2 94/1/2 99/1/2
f 99/1/2 94/1/2 100/1/2
f 95/1/2 96/1/2 101/1/2
f 101/1/2 96/1/2 102/1/2
f 97/1/2 98/1/2 103/1/2
f 103/1/2 98/1/2 104/1/2
f 102/1/2 103/1/2 105/1/2
f 105/1/2 103/1/2 106/1/2
f 107/6/2 108/6/2 113/6/2
f 108/5/2 109/5/2 114/5/2
f 113/6/2 108/6/2 114/6/2
f 109/4/2 110/4/2 115/4/2
f 114/5/2 109/5/2 115/5/2
f 110/3/2 111/3/2 116/3/2
f 115/4/2 110/4/2 116/4/2
f 111/2/2 112/2/2 117/2/2
f 116/3/2 111/3/2 117/3/2
f 117/2/2 112/2/2 118/2/2
f 118/3/2 119/3/2 120/3/2
f 120/3/2 119/3/2 121/3/2
f 122/1/2 123/1/2 126/1/2
f 126/1/2 123/1/2 127/1/2
f 124/3/2 125/3/2 128/3/2
f 128/3/2 125/3/2 129/3/2
f 130/6/2 131/6/2 132/6/2
f 132/6/2 131/6/2 133/6/2
f 134/1/2 135/1/2 136/1/2
f 136/1/2 135/1/2 137/1/2
f 138/6/2 139/6/2 145/6/2
f 139/5/2 140/5/2 146/5/2
f 145/6/2 139/6/2 146/6/2
f 146/5/2 140/5/2 147/5/2
f 141/6/2 142/6/2 148/6/2
f 148/6/2 142/6/2 149/6/2
f 143/1/2 144/1/2 150/1/2
f 150/1/2 144/1/2 151/1/2
f 147/4/2 148/4/2 152/4/2
f 148/3/2 149/3/2 153/3/2
f 152/4/2 148/4/2 153/4/2
f 149/2/2 150/2/2 154/2/2
f 153/3/2 149/3/2 154/3/2
f 154/2/2 150/2/2 155/2/2
f 155/1/2 156/1/2 157/1/2
f 157/1/2 156/1/2 158/1/2
f 159/1/2 160/1/2 161/1/2
f 161/1/2 160/1/2 162/1/2
f 165/1/3 164/1/3 163/1/3
f 166/1/3 164/1/3 165/1/3
f 170/1/3 168/1/3 167/1/3
f 171/1/3 168/1/3 170/1/3
f 172/2/3 170/2/3 169/2/3
f 173/2/3 170/2/3 172/2/3
f 174/3/3 173/3/3 172/3/3
f 175/3/3 173/3/3 174/3/3
f 176/4/3 175/4/3 174/4/3
f 177/4/3 175/4/3 176/4/3
f 178/5/3 177/5/3 176/5/3
f 179/5/3 177/5/3 178/5/3
f 180/6/3 179/6/3 178/6/3
f 181/6/3 179/6/3 180/6/3
f 184/6/3 183/6/3 182/6/3
f 185/6/3 183/6/3 184/6/3
f 188/1/3 187/1/3 186/1/3
f 189/1/3 187/1/3 188/1/3
f 193/1/3 191/1/3 190/1/3
f 194/1/3 191/1/3 193/1/3
f 195/6/3 193/6/3 192/6/3
f 196/6/3 193/6/3 195/6/3
f 199/4/3 198/4/3 197/4/3
f 200/4/3 198/4/3 199/4/3
f 205/1/3 202/1/3 201/1/3
f 206/1/3 202/1/3 205/1/3
f 207/1/3 204/1/3 203/1/3
f 208/1/3 204/1/3 207/1/3
f 209/2/3 207/2/3 206/2/3
f 210/2/3 207/2/3 209/2/3
f 212/3/3 210/3/3 209/3/3
f 213/3/3 210/3/3 212/3/3
f 214/4/3 212/4/3 211/4/3
f 215/4/3 212/4/3 214/4/3
f 216/5/3 215/5/3 214/5/3
f 217/5/3 215/5/3 216/5/3
f 218/6/3 217/6/3 216/6/3
f 219/6/3 217/6/3 218/6/3
f 222/1/3 221/1/3 220/1/3
f 223/1/3 221/1/3 222/1/3
f 227/1/3 225/1/3 224/1/3
f 228/1/3 225/1/3 227/1/3
f 230/1/3 227/1/3 226/1/3
f 231/1/3 227/1/3 230/1/3
f 232/1/3 229/1/3 228/1/3
f 233/1/3 229/1/3 232/1/3
f 234/1/3 232/1/3 231/1/3
f 235/1/3 232/1/3 234/1/3
f 238/1/3 237/1/3 236/1/3
f 239/1/3 237/1/3 238/1/3
f 242/3/3 240/3/3 239/3/3
f 243/3/3 240/3/3 242/3/3
f 244/1/3 242/1/3 241/1/3
f 245/1/3 242/1/3 244/1/3
f 246/1/4 247/1/4 248/1/4
f 248/1/4 247/1/4 249/1/4
f 250/1/4 251/1/4 253/1/4
f 253/1/4 251/1/4 254/1/4
f 252/2/4 253/2/4 255/2/4
f 255/2/4 253/2/4 256/2/4
f 255/3/4 256/3/4 257/3/4
f 257/3/4 256/3/4 258/3/4
f 257/4/4 258/4/4 259/4/4
f 259/4/4 258/4/4 260/4/4
f 259/5/4 260/5/4 261/5/4
f 261/5/4 260/5/4 262/5/4
f 261/6/4 262/6/4 263/6/4
f 263/6/4 262/6/4 264/6/4
f 265/1/4 266/1/4 267/1/4
f 267/1/4 266/1/4 268/1/4
f 269/5/4 270/5/4 271/5/4
f 271/5/4 270/5/4 272/5/4
f 273/1/4 274/1/4 275/1/4
f 275/1/4 274/1/4 276/1/4
f 277/1/4 278/1/4 281/1/4
f 281/1/4 278/1/4 282/1/4
f 279/1/4 280/1/4 283/1/4
f 283/1/4 280/1/4 284/1/4
f 282/2/4 283/2/4 285/2/4
f 285/2/4 283/2/4 286/2/4
f 285/3/4 286/3/4 288/3/4
f 288/3/4 286/3/4 289/3/4
f 287/4/4 288/4/4 290/4/4
f 290/4/4 288/4/4 291/4/4
f 290/5/4 291/5/4 292/5/4
f 292/5/4 291/5/4 293/5/4
f 292/6/4 293/6/4 294/6/4
f 294/6/4 293/6/4 295/6/4
f 296/1/4 297/1/4 298/1/4
f 298/1/4 297/1/4 299/1/4
f 300/2/4 301/2/4 302/2/4
f 302/2/4 301/2/4 303/2/4
f 304/1/4 305/1/4 307/1/4
f 307/1/4 305/1/4 308/1/4
f 306/1/4 307/1/4 310/1/4
f 310/1/4 307/1/4 311/1/4
f 308/1/4 309/1/4 312/1/4
f 312/1/4 309/1/4 313/1/4
f 311/1/4 312/1/4 314/1/4
f 314/1/4 312/1/4 315/1/4
f 316/2/4 317/2/4 318/2/4
f 318/2/4 317/2/4 319/2/4
f 320/1/4 321/1/4 322/1/4
f 322/1/4 321/1/4 323/1/4
f 323/3/4 324/3/4 326/3/4
f 326/3/4 324/3/4 327/3/4
f 325/1/4 326/1/4 328/1/4
f 328/1/4 326/1/4 329/1/4
f 332/1/5 331/1/5 330/1/5
f 333/1/5 331/1/5 332/1/5
f 342/2/5 334/2/5 333/2/5
f 343/3/5 335/3/5 334/3/5
f 343/2/5 334/2/5 342/2/5
f 344/4/5 336/4/5 335/4/5
f 344/3/5 335/3/5 343/3/5
f 345/5/5 337/5/5 336/5/5
f 345/4/5 336/4/5 344/4/5
f 346/6/5 338/6/5 337/6/5
f 346/5/5 337/5/5 345/5/5
f 347/6/5 338/6/5 346/6/5
f 348/6/5 340/6/5 339/6/5
f 349/6/5 340/6/5 348/6/5
f 350/1/5 342/1/5 341/1/5
f 351/1/5 342/1/5 350/1/5
f 354/5/5 349/5/5 348/5/5
f 355/5/5 349/5/5 354/5/5
f 357/6/5 353/6/5 352/6/5
f 358/6/5 353/6/5 357/6/5
f 363/1/5 357/1/5 356/1/5
f 364/5/5 358/5/5 357/5/5
f 364/1/5 357/1/5 363/1/5
f 365/5/5 358/5/5 364/5/5
f 366/4/5 360/4/5 359/4/5
f 367/5/5 361/5/5 360/5/5
f 367/4/5 360/4/5 366/4/5
f 368/6/5 362/6/5 361/6/5
f 368/5/5 361/5/5 367/5/5
f 369/6/5 362/6/5 368/6/5
f 370/4/5 365/4/5 364/4/5
f 371/4/5 365/4/5 370/4/5
f 374/3/5 371/3/5 370/3/5
f 375/3/5 371/3/5 374/3/5
f 376/1/5 373/1/5 372/1/5
f 377/1/5 373/1/5 376/1/5
f 379/2/5 375/2/5 374/2/5
f 380/2/5 375/2/5 379/2/5
f 382/1/5 379/1/5 378/1/5
f 383/1/5 379/1/5 382/1/5
f 384/1/5 381/1/5 380/1/5
f 385/1/5 381/1/5 384/1/5
f 388/1/5 387/1/5 386/1/5
f 389/1/5 387/1/5 388/1/5
f 394/1/5 391/1/5 390/1/5
f 395/1/5 391/1/5 394/1/5
f 398/4/5 393/4/5 392/4/5
f 399/4/5 393/4/5 398/4/5
f 402/3/5 397/3/5 396/3/5
f 403/3/5 397/3/5 402/3/5
f 406/1/5 401/1/5 400/1/5
f 407/1/5 401/1/5 406/1/5
f 409/2/5 405/2/5 404/2/5
f 410/2/5 405/2/5 409/2/5
f 412/1/5 409/1/5 408/1/5
f 413/1/5 409/1/5 412/1/5
f 414/1/5 411/1/5 410/1/5
f 415/1/5 411/1/5 414/1/5
f 418/3/5 417/3/5 416/3/5
f 419/3/5 417/3/5 418/3/5
f 422/1/5 421/1/5 420/1/5
f 423/1/5 421/1/5 422/1/5
f 426/1/5 425/1/5 424/1/5
f 427/1/5 425/1/5 426/1/5
f 428/1/6 429/1/6 430/1/6
f 430/1/6 429/1/6 431/1/6
f 431/2/6 432/2/6 440/2/6
f 432/3/6 433/3/6 441/3/6
f 440/2/6 432/2/6 441/2/6
f 433/4/6 434/4/6 442/4/6
f 441/3/6 433/3/6 442/3/6
f 434/5/6 435/5/6 443/5/6
f 442/4/6 434/4/6 443/4/6
f 435/6/6 436/6/6 444/6/6
f 443/5/6 435/5/6 444/5/6
f 444/6/6 436/6/6 445/6/6
f 437/6/6 438/6/6 446/6/6
f 446/6/6 438/6/6 447/6/6
f 439/1/6 440/1/6 448/1/6
f 448/1/6 440/1/6 449/1/6
f 446/5/6 447/5/6 452/5/6
f 452/5/6 447/5/6 453/5/6
f 450/6/6 451/6/6 455/6/6
f 455/6/6 451/6/6 456/6/6
f 454/1/6 455/1/6 460/1/6
f 460/1/6 455/1/6 461/1/6
f 457/4/6 458/4/6 463/4/6
f 458/5/6 459/5/6 464/5/6
f 463/4/6 458/4/6 464/4/6
f 464/5/6 459/5/6 465/5/6
f 461/4/6 462/4/6 466/4/6
f 466/4/6 462/4/6 467/4/6
f 466/3/6 467/3/6 470/3/6
f 470/3/6 467/3/6 471/3/6
f 468/1/6 469/1/6 472/1/6
f 472/1/6 469/1/6 473/1/6
f 470/2/6 471/2/6 475/2/6
f 475/2/6 471/2/6 476/2/6
f 474/1/6 475/1/6 478/1/6
f 478/1/6 475/1/6 479/1/6
f 476/1/6 477/1/6 480/1/6
f 480/1/6 477/1/6 481/1/6
f 482/1/6 483/1/6 484/1/6
f 484/1/6 483/1/6 485/1/6
f 486/1/6 487/1/6 490/1/6
f 490/1/6 487/1/6 491/1/6
f 488/4/6 489/4/6 494/4/6
f 494/4/6 489/4/6 495/4/6
f 491/2/6 492/2/6 497/2/6
f 492/3/6 493/3/6 498/3/6
f 497/2/6 492/2/6 498/2/6
f 498/3/6 493/3/6 499/3/6
f 494/3/6 495/3/6 500/3/6
f 500/3/6 495/3/6 501/3/6
f 496/1/6 497/1/6 502/1/6
f 502/1/6 497/1/6 503/1/6
f 500/2/6 501/2/6 505/2/6
f 505/2/6 501/2/6 506/2/6
f 504/1/6 505/1/6 508/1/6
f 508/1/6 505/1/6 509/1/6
f 506/1/6 507/1/6 510/1/6
f 510/1/6 507/1/6 511/1/6
f 512/3/6 513/3/6 514/3/6
f 514/3/6 513/3/6 515/3/6
f 516/1/6 517/1/6 518/1/6
f 518/1/6 517/1/6 519/1/6
f 520/1/6 521/1/6 522/1/6
f 522/1/6 521/1/6 523/1/6
